<?xml version="1.0" encoding="UTF-8" standalone="no"?>
<svg
   version="1.0"
   width="1091.3125pt"
   height="374.4357pt"
   viewBox="0 0 1091.3125 374.4357"
   preserveAspectRatio="xMidYMid meet"
   id="svg58"
   sodipodi:docname="909158_4.svg"
   inkscape:version="1.1.1 (3bf5ae0d25, 2021-09-20)"
   xmlns:inkscape="http://www.inkscape.org/namespaces/inkscape"
   xmlns:sodipodi="http://sodipodi.sourceforge.net/DTD/sodipodi-0.dtd"
   xmlns="http://www.w3.org/2000/svg"
   xmlns:svg="http://www.w3.org/2000/svg">
  <defs
     id="defs62" />
  <sodipodi:namedview
     id="namedview60"
     pagecolor="#ffffff"
     bordercolor="#666666"
     borderopacity="1.0"
     inkscape:pageshadow="2"
     inkscape:pageopacity="0.0"
     inkscape:pagecheckerboard="0"
     inkscape:document-units="pt"
     showgrid="false"
     inkscape:snap-grids="true"
     inkscape:lockguides="true"
     inkscape:zoom="0.54299226"
     inkscape:cx="829.66192"
     inkscape:cy="81.953286"
     inkscape:window-width="1920"
     inkscape:window-height="1027"
     inkscape:window-x="-8"
     inkscape:window-y="-8"
     inkscape:window-maximized="1"
     inkscape:current-layer="g56" />
  <metadata
     id="metadata2">
Created by potrace 1.15, written by Peter Selinger 2001-2017
</metadata>
  <g
     transform="matrix(0.1,0,0,-0.1,-21,683)"
     fill="#000000"
     stroke="none"
     id="g56"
     style="display:inline">
    <path
       d="m 5598.3539,5204.5559 c -15,-28 -157,-343 -522,-1158 -230,-514 -291,-636 -347,-699 -42,-48 -100,-85 -153,-95 -23,-5 -31,-13 -33,-34 l -3,-27 h 335 336 v 25 c 0,27 -6,29 -99,40 -114,13 -161,57 -161,151 0,59 12,96 77,247 l 47,107 350,-2 350,-3 75,-175 c 119,-280 110,-319 -78,-336 -66,-6 -71,-9 -71,-30 v -24 h 485 485 v 25 c 0,19 -7,26 -27,31 -95,21 -129,47 -190,148 -21,33 -213,459 -428,945 -214,487 -395,886 -402,888 -6,3 -18,-8 -26,-24 z m -18,-1001 c 78,-178 141,-326 141,-328 0,-2 -133,-4 -295,-4 -162,0 -295,3 -295,7 0,20 295,662 301,656 4,-4 71,-154 148,-331 z"
       id="path6" />
    <path
       d="m 9054.1255,6743.9382 c 3,-26 8,-29 55,-34 76,-10 121,-37 186,-114 l 58,-69 -3,-756 -3,-755 -30,-60 c -37,-74 -79,-100 -188,-116 -71,-11 -77,-13 -77,-35 v -24 h 355 355 v 24 c 0,21 -5,24 -62,30 -72,7 -158,45 -188,83 -49,63 -50,81 -48,794 l 3,666 669.9995,-824 c 590,-725 673,-823 695,-821 l 25,3 5,910 5,910 23,47 c 29,59 59,78 152,98 69,15 75,18 78,43 l 3,27 h -330 -331 v -25 c 0,-20 6,-25 38,-30 122,-18 182,-50 214,-116 9,-19 21,-69 27,-112 12,-89 15,-937 4,-937 -5,0 -226,274 -493,610 l -484.9995,609 -358,1 h -358 z"
       id="path30" />
    <path
       d="m 8056.2944,5145.8931 c -142,-23 -300,-85 -412,-162 -122,-84 -260,-243 -328,-379 -142,-280 -139,-675 6,-963 156,-308 426,-495 785,-542 142,-19 209,-19 346,0 247,33 422,116 584,279 134.0003,135 218.0003,280 271.0003,472 26,92 28,112 28,289 0,167 -3,200 -24,275 -46,173 -134,324 -260,451 -130.0003,130 -268.0003,208 -450.0003,256 -84,22 -120,26 -296,29 -110,1 -222,-1 -250,-5 z m 429,-134 c 90,-45 147,-105 203,-214 74,-142 98,-253 114,-510 33,-556 -85,-929 -331,-1046 -56,-27 -78,-32 -166,-35 -208,-8 -339,71 -435,260 -80,158 -109,311 -116,603 -9,409 51,671 193,833 101,116 193,154 356,149 100,-3 112,-6 182,-40 z"
       id="path32" />
    <path
       d="m 210,6805 c 0,-24 3,-25 53,-25 80,0 150,-24 185,-64 24,-28 32,-47 37,-98 3,-35 5,-398 3,-808 l -3,-745 -25,-50 c -34,-68 -95,-105 -184,-112 -65,-6 -66,-6 -66,-35 v -28 l 343,2 342,3 v 25 c 0,24 -4,25 -69,33 -81,9 -137,36 -179,89 -24,30 -31,50 -38,115 -11,108 -11,1519 0,1508 5,-6 179,-404 386,-885 208,-481 382,-879 387,-885 5,-6 14,-6 24,0 8,6 184,410 390,899 205,489 376,891 379,894 3,3 4,-358 3,-804 -3,-765 -4,-811 -22,-846 -28,-58 -74,-81 -173,-86 l -83,-5 v -28 -29 h 520 520 v 30 30 h -68 c -84,0 -157,32 -187,82 -19,32 -20,56 -23,808 -2,426 0,798 3,827 13,104 74,153 202,161 69,4 73,6 73,28 v 24 h -407 -408 l -264,-643 c -145,-353 -267,-645 -270,-649 -4,-4 -131,284 -283,640 l -276,647 -411,3 -411,2 z"
       id="path34" />
    <path
       d="m 3381.9952,6733.3135 c 0,-24 4,-26 75,-32 92,-9 152,-37 180,-85 20,-34 20,-50 20,-855 0,-758 -1,-822 -17,-852 -24,-43 -77,-73 -140,-79 -111,-11 -119,-13 -116,-37 l 3,-22 508,-3 507,-2 v 24 c 0,27 -3,28 -114,40 -58,7 -101,30 -130,69 -20,28 -21,40 -24,403 l -3,374 h 63 63 l 320,-455 320,-455 h 313 312 v 30 c 0,25 -4,30 -25,30 -51,0 -115,41 -169,109 -61,76 -534,743 -542,765 -4,9 6,16 30,20 20,4 76,27 125,51 140,71 232,184 262,326 16,74 7,222 -18,291 -52,142 -177,262 -328,313 -129,44 -182,47 -842,52 l -633,5 z m 1042,-101 c 89,-16 166,-55 210,-105 70,-79 105,-213 95,-360 -10,-150 -66,-258 -165,-317 -65,-40 -134,-54 -299,-61 l -133,-6 v 432 431 h 108 c 59,-1 142,-7 184,-14 z"
       id="path40" />
    <path
       d="m 5831.734,6458.5392 v -270 h 28 c 25,0 28,4 44,73 38,157 126,275 235,318 48,18 84,23 201,27 l 143,4 -3,-848 c -3,-835 -3,-850 -24,-884 -29,-51 -87,-79 -178,-86 -71,-7 -76,-8 -76,-30 v -24 h 520 520 v 24 c 0,22 -5,23 -76,30 -85,7 -144,33 -178,79 -21,28 -21,34 -24,884 l -2,855 147,-4 c 174,-5 211,-17 296,-97 60,-56 102,-134 136,-248 21,-69 23,-73 51,-73 h 30 v 270 270 h -895 -895 z"
       id="path42" />
    <path
       d="m 3095.6247,5223.1401 c -15,-28 -157,-343 -522,-1158 -230,-514 -291,-636 -347,-699 -42,-48 -100,-85 -153,-95 -23,-5 -31,-13 -33,-34 l -3,-27 h 335 336 v 25 c 0,27 -6,29 -99,40 -114,13 -161,57 -161,151 0,59 12,96 77,247 l 47,107 350,-2 350,-3 75,-175 c 119,-280 110,-319 -78,-336 -66,-6 -71,-9 -71,-30 v -24 h 485 485 v 25 c 0,19 -7,26 -27,31 -95,21 -129,47 -190,148 -21,33 -213,459 -428,945 -214,487 -395,886 -402,888 -6,3 -18,-8 -26,-24 z m -18,-1001 c 78,-178 141,-326 141,-328 0,-2 -133,-4 -295,-4 -162,0 -295,3 -295,7 0,20 295,662 301,656 4,-4 71,-154 148,-331 z"
       id="path6-4" />
  </g>
</svg>
