<?xml version="1.0" encoding="utf-8"?>
<!-- Generator: Adobe Illustrator 23.0.5, SVG Export Plug-In . SVG Version: 6.00 Build 0)  -->
<svg version="1.1" id="Capa_1" xmlns="http://www.w3.org/2000/svg" xmlns:xlink="http://www.w3.org/1999/xlink" x="0px" y="0px"
	 viewBox="0 0 742.2 232.6" style="enable-background:new 0 0 742.2 232.6;" xml:space="preserve">
<style type="text/css">
	.st0{fill:#FFFFFF;}
	.st1{stroke:#000000;stroke-width:0.652;stroke-miterlimit:10;}
</style>
<path class="st0" d="M326.8,201.3c-1.2,0-2.3-1-2.3-2.3V33.9c0-1.2,1-2.3,2.3-2.3c1.2,0,2.3,1,2.3,2.3v165.2
	C329.1,200.4,328.2,201.3,326.8,201.3"/>
<g>
	<g>
		<polygon class="st0" points="168.4,9.6 162.8,18.2 168.3,16.9 		"/>
		<path class="st0" d="M148.3,153.1l8.9-97.5l0.1,0.7l0.4-3.6l-0.1-0.8l3.1-33.3l9.4-14.1V4.1l-10.2,14.4l-2.8,29.7l-2.9-19.9
			c0-0.1-0.1-0.2-0.2-0.2c-0.1,0-0.2,0.1-0.2,0.2l3,23.2L153.5,87l-15.9-54.2c0-0.1-0.1-0.2-0.2-0.1c-0.1,0-0.2,0.1-0.1,0.3l15,55
			c0,0.1,0,0.2,0,0.4c0,0.2,0.1,0.6,0.2,1c0.1,0.5,0.3,1.4,0.5,2.3l-1.2,13.1c-1.9-3.8-3.3-6.7-4.4-8.9c-0.7-1.4-1.2-2.5-1.6-3.2
			c-0.2-0.4-0.4-0.7-0.5-0.9c-0.1-0.2-0.2-0.3-0.2-0.4l-23.2-51.1c0-0.1-0.2-0.1-0.3-0.1s-0.1,0.2-0.1,0.3l22.3,51.6
			c0,0.1,0.1,0.3,0.1,0.5c0.1,0.3,0.3,0.7,0.5,1.3c0.4,1,1,2.5,1.7,4.5c1.2,3,3,7.5,5.1,12.6l-0.5,5.3c-3.6-5.3-6.4-9.5-8.7-12.7
			c-1.4-2.1-2.6-3.7-3.4-4.8c-1-1.4-1.3-1.8-1.5-1.9l-29.9-46.3c-0.1-0.1-0.2-0.1-0.3-0.1c-0.1,0.1-0.1,0.2-0.1,0.3l29.1,47
			c0,0.1,0.1,0.1,0.1,0.2c0.1,0.1,0.2,0.3,0.3,0.5c0.2,0.4,0.6,1,1,1.9c0.8,1.5,2,3.5,3.6,6.2c2.9,5,6.6,11.3,9.2,15.7l-0.2,2.2
			c-3.4-3.7-8.2-8.8-12.3-13.1c-2.2-2.4-4-4.2-5.2-5.5c-1.7-1.8-2.1-2.2-2.3-2.3L94.3,63.2c-0.1-0.1-0.2-0.1-0.3,0
			c-0.1,0.1-0.1,0.2,0,0.3l35.1,41.2c0,0.1,0.1,0.2,0.1,0.3c0.1,0.1,0.2,0.3,0.4,0.6c0.4,0.5,0.9,1.2,1.6,2.1c1.3,1.7,3.1,4,5.5,6.9
			c4.1,5.1,9.1,11.2,12.5,15.4l-0.1,0.8c-6-4.7-10.9-8.5-15-11.6c-3-2.3-5.3-4.1-7-5.4c-2.5-1.9-3.1-2.2-3.2-2.3L83.3,78
			c-0.1-0.1-0.2-0.1-0.3,0c-0.1,0.1-0.1,0.2,0,0.3l40.3,34.3c0,0.1,0.1,0.2,0.2,0.3c0.1,0.1,0.4,0.4,0.6,0.6
			c0.5,0.5,1.3,1.2,2.3,2.2c1.8,1.7,4.3,4,7.5,6.9c5.7,5.2,12.2,10.9,14.9,13.3l0,0c-6.4-3.4-12.1-6.5-16.6-8.9
			c-11.8-6.3-12.8-6.7-13-6.7L74.4,94.7c-0.1-0.1-0.2,0-0.3,0.1c-0.1,0.1,0,0.2,0.1,0.3l44.4,26.7c0.1,0.1,0.2,0.2,0.3,0.3
			c0.2,0.1,0.5,0.3,0.8,0.6c0.7,0.5,1.7,1.1,3,2c2.2,1.4,5.3,3.5,9.3,6c3,1.9,9.4,5.8,16.4,10.2l0,0c-7.7-2.6-31.7-10.7-32.7-10.7
			l0,0l-47.8-17.3c-0.1,0-0.2,0-0.3,0.1c0,0.1,0,0.2,0.1,0.3l47.5,18.4c0.1,0.1,0.2,0.1,0.4,0.2c0.2,0.1,0.6,0.3,1,0.5
			c0.8,0.4,2,0.9,3.6,1.6c2.7,1.1,6.4,2.7,11.1,4.7c5.9,2.5,13.9,5.4,16.7,6.6l0,0c-6.6-1-32.2-4.9-34.4-4.9c0,0-0.1,0-0.2,0
			l-44.5-7.6c-0.1,0-0.2,0-0.2,0.2c0,0.1,0,0.2,0.2,0.2l44.4,8.7c0.1,0.1,0.2,0.1,0.4,0.2c0.2,0.1,0.6,0.2,1.1,0.3
			c0.9,0.2,2.2,0.5,3.8,0.9c2.8,0.7,6.7,1.5,11.6,2.7c6.2,1.4,14.7,3,17.6,3.6c0,0,0-0.3,0.1-0.7l-0.1,0.8l0,0
			c-2.9,0.1-11.6,0.1-17.8,0.4c-5,0.2-8.9,0.4-11.8,0.5c-1.7,0.1-3,0.2-3.9,0.2c-0.9,0.1-1.3,0.1-1.5,0.2l-38.2,0.2
			c-0.1,0-0.2,0.1-0.2,0.2c0,0.1,0.1,0.2,0.2,0.2c0.2,0,5,0.1,10.5,0.3c5.9,0.2,12.5,0.4,12.7,0.4l0,0l15,0.3c0.1,0,0.2,0.1,0.4,0.1
			s0.6,0.1,1.1,0.1c0.9,0.1,2.2,0.2,3.9,0.2c2.8,0.1,6.8,0.3,11.8,0.5c6.7,0.3,14.5,0.5,17.5,0.5l0,0l22.8,8.1v-0.3l-21.7-8.3
			L148.3,153.1z"/>
		<path class="st0" d="M273.3,111.8c0-0.1-0.1-0.2-0.3-0.1L225.2,129l0,0c-1.1,0-24.6,8-32.5,10.7v-0.1c6.9-4.4,13.2-8.2,16.2-10
			c4-2.5,7.1-4.6,9.3-6c1.3-0.9,2.3-1.5,3-2c0.4-0.2,0.6-0.4,0.8-0.6c0.1-0.1,0.2-0.2,0.3-0.3L266.7,94c0.1-0.1,0.1-0.2,0.1-0.3
			c-0.1-0.1-0.2-0.1-0.3-0.1l-44.9,25.7c-0.2,0-1.2,0.4-13,6.7c-4.5,2.4-10.1,5.4-16.4,8.9v-0.1c2.7-2.4,9.1-8.1,14.7-13.1
			c3.2-2.9,5.7-5.2,7.5-6.9c1-1,1.8-1.7,2.3-2.2c0.3-0.3,0.5-0.5,0.6-0.6s0.2-0.2,0.2-0.3l40.3-34.3c0.1-0.1,0.1-0.2,0-0.3
			c-0.1-0.1-0.2-0.1-0.3,0l-40.8,33.4c-0.2,0.1-0.7,0.4-3.2,2.3c-1.7,1.3-4,3.1-7,5.4c-4,3.1-8.9,6.9-14.9,11.5l-0.1-0.8
			c3.4-4.2,8.4-10.3,12.4-15.3c2.4-3,4.2-5.3,5.5-6.9c0.7-0.9,1.3-1.6,1.6-2.1c0.2-0.3,0.3-0.5,0.4-0.6c0.1-0.1,0.1-0.2,0.1-0.3
			l35.1-41.2c0.1-0.1,0.1-0.2,0-0.3s-0.2-0.1-0.3,0l-35.8,40.4c-0.2,0.1-0.6,0.5-2.3,2.3c-1.2,1.3-3,3.1-5.2,5.5
			c-4,4.3-8.8,9.4-12.2,13.1l-0.2-2.2c2.6-4.4,6.3-10.7,9.2-15.7c1.5-2.7,2.7-4.7,3.6-6.2c0.4-0.8,0.8-1.4,1-1.9
			c0.1-0.2,0.2-0.4,0.3-0.5c0-0.1,0.1-0.2,0.1-0.2l29.1-47c0.1-0.1,0-0.2-0.1-0.3s-0.2,0-0.3,0.1l-29.9,46.3
			c-0.2,0.1-0.5,0.5-1.5,1.9c-0.8,1.1-1.9,2.7-3.4,4.8c-2.2,3.2-5.1,7.4-8.7,12.8l-0.5-5.1c2.1-5.3,4-9.8,5.2-12.9
			c0.8-1.9,1.3-3.4,1.7-4.5c0.2-0.6,0.4-1,0.5-1.3c0.1-0.2,0.1-0.4,0.1-0.5l22.3-51.6c0-0.1,0-0.2-0.1-0.3c-0.1,0-0.2,0-0.3,0.1
			l-23.2,51.1c-0.1,0.1-0.1,0.2-0.2,0.4c-0.1,0.2-0.3,0.5-0.5,0.9c-0.4,0.7-0.9,1.8-1.6,3.2c-1.2,2.3-2.6,5.2-4.5,9.2l-1.3-12.4
			c0.3-1.3,0.6-2.6,0.7-3.3c0.1-0.5,0.2-0.8,0.2-1s0.1-0.3,0-0.4l15-55c0-0.1,0-0.2-0.1-0.3c-0.1,0-0.2,0-0.2,0.1l-15.9,54.6
			c-0.1,0.1-0.1,0.2-0.2,0.4l-3.4-33l3.4-26.6c0-0.1-0.1-0.2-0.2-0.2c-0.1,0-0.2,0.1-0.2,0.2l-3.4,23.2l-3.3-32L170.1,4v157.8
			l22.8-8.1l0.2-1c2.3,0,10.9-0.2,18.1-0.5c5-0.2,8.9-0.4,11.8-0.5c1.7-0.1,3-0.2,3.9-0.2c0.5,0,0.9-0.1,1.1-0.1
			c0.2,0,0.3,0,0.4-0.1l15-0.3l0,0c0.2,0,6.9-0.2,12.7-0.4c5.6-0.2,10.3-0.3,10.5-0.3c0.1,0,0.2-0.1,0.2-0.2c0-0.1-0.1-0.2-0.2-0.2
			l-38.2-0.2c-0.2-0.1-0.6-0.1-1.5-0.2c-0.9-0.1-2.2-0.1-3.9-0.2c-2.8-0.1-6.8-0.3-11.8-0.5c-6-0.3-14.4-0.3-17.5-0.4v-0.1
			c3.1-0.7,11.3-2.2,17.3-3.5c4.9-1.1,8.8-2,11.6-2.7c1.6-0.4,2.9-0.7,3.8-0.9c0.5-0.1,0.8-0.2,1.1-0.3c0.2,0,0.3-0.1,0.4-0.2
			l44.4-8.7c0.1,0,0.2-0.1,0.2-0.2c0-0.1-0.1-0.2-0.2-0.2l-44.5,7.6c-0.1,0-0.1,0-0.2,0c-2.2,0-27.1,3.8-34.1,4.8v-0.1
			c3-1.2,10.8-4.1,16.5-6.5c4.7-2,8.4-3.5,11.1-4.7c1.6-0.7,2.8-1.2,3.6-1.6c0.4-0.2,0.8-0.4,1-0.5s0.3-0.2,0.4-0.2l47.5-18.4
			C273.3,112.1,273.3,112,273.3,111.8z M171.8,16.9l-0.2-7.3l5.6,8.6L171.8,16.9z"/>
	</g>
	<polygon class="st0" points="64.1,169.6 77.9,183.5 91.6,169.6 91.6,201.2 85.9,201.2 85.9,182.1 77.9,190.4 69.8,182.1 
		69.8,201.2 64.1,201.2 	"/>
	<path class="st0" d="M106.6,175.4h-7.1v-5.1h12.8l13.1,31h-6.2l-2.4-5.8h-13.1l-2.4,5.8h-6L106.6,175.4z M114.9,190.3l-4.5-11.1
		l-4.5,11.1H114.9z"/>
	<path class="st0" d="M129.9,191.4h-3.7V186h3.7v-15.8h14.8c3.4,0,6.1,1,8.1,3s3,4.5,3,7.6c0,2.2-0.7,4.1-2,5.8
		c-1.4,1.7-3.1,2.8-5.2,3.5l7.7,11h-7.2l-6.5-9.7h-7v9.7h-5.7C129.9,201.2,129.9,191.4,129.9,191.4z M135.6,186h8.6
		c1.9,0,3.4-0.5,4.4-1.5s1.5-2.2,1.5-3.7s-0.5-2.7-1.5-3.7s-2.5-1.5-4.4-1.5h-8.6V186z"/>
	<path class="st0" d="M168.7,175.4h-7.1v-5.1h12.8l13.1,31h-6.2l-2.4-5.8h-13.1l-2.4,5.8h-6.1L168.7,175.4z M177,190.3l-4.5-11.1
		l-4.5,11.1H177z"/>
	<polygon class="st0" points="193,175.7 183.9,175.7 183.9,170.2 207.8,170.2 207.8,175.7 198.7,175.7 198.7,201.2 193,201.2 	"/>
	<path class="st0" d="M211.6,179.4c0.9-2,2-3.7,3.6-5.1c1.5-1.5,3.3-2.6,5.3-3.4c2-0.8,4.2-1.2,6.5-1.2s4.5,0.4,6.5,1.2
		s3.8,2,5.3,3.4c1.5,1.5,2.7,3.2,3.6,5.1c0.8,2,1.3,4.1,1.3,6.3s-0.4,4.3-1.3,6.3s-2,3.7-3.6,5.2c-1.5,1.4-3.3,2.6-5.3,3.4
		c-2,0.8-4.2,1.2-6.5,1.2s-4.4-0.4-6.4-1.2s-3.8-2-5.3-3.5s-2.7-3.2-3.6-5.2c-0.9-2-1.3-4-1.3-6.3
		C210.3,183.5,210.8,181.4,211.6,179.4 M217.2,189.9c0.6,1.3,1.4,2.4,2.3,3.4c1,1,2.1,1.7,3.4,2.3c1.3,0.6,2.6,0.8,4,0.8
		s2.7-0.3,4-0.8s2.4-1.3,3.4-2.3s1.8-2.1,2.4-3.4c0.6-1.3,0.8-2.7,0.8-4.2s-0.3-2.9-0.8-4.2c-0.6-1.3-1.3-2.4-2.4-3.4
		c-1-1-2.1-1.7-3.4-2.3c-1.3-0.5-2.6-0.8-4-0.8s-2.7,0.3-4,0.8s-2.4,1.3-3.4,2.3s-1.8,2.1-2.3,3.4c-0.6,1.3-0.9,2.7-0.9,4.2
		C216.4,187.2,216.7,188.6,217.2,189.9"/>
	<polygon class="st0" points="248.8,169.6 243.8,169.6 243.8,175.7 248.8,175.7 255,175.7 	"/>
	<polygon class="st0" points="268.8,170.2 268.8,189.2 256.1,176.7 248.8,176.7 248.8,201.2 254.6,201.2 254.6,182.2 274.6,201.8 
		274.6,170.2 	"/>
	<path class="st0" d="M64.1,210.4h4.4c1.5,0,2.5,0.3,3.3,0.8c1.3,0.8,1.8,2.1,1.8,3.4c0,2-1.1,2.9-2.2,3.5c3,0.9,3.2,3.4,3.2,4.2
		c0,1.8-0.8,3.1-2.3,3.9c-1,0.6-1.9,0.7-3.6,0.7h-4.6L64.1,210.4L64.1,210.4z M65.9,217.6L65.9,217.6h2.5c0.8,0,1.4-0.1,1.9-0.3
		c1.1-0.6,1.3-1.5,1.3-2.5c0-1.2-0.6-2-1.3-2.4c-0.4-0.2-1-0.4-2.1-0.4h-2.4L65.9,217.6L65.9,217.6z M65.9,225.3L65.9,225.3h3
		c0.7,0,1.4-0.1,2-0.3c1-0.4,1.7-1.3,1.7-2.8c0-1.3-0.7-2.3-1.8-2.8c-0.7-0.3-1.3-0.3-2.3-0.3h-2.7v6.2L65.9,225.3L65.9,225.3z"/>
	<path class="st0" d="M78.4,210.4v10.5c0,1.3,0,2.2,0.8,3.3c0.6,0.8,1.7,1.4,2.9,1.4c1.2,0,2.3-0.5,2.8-1.4c0.8-1.1,0.8-2.1,0.8-3.4
		v-10.5h1.8v10.5c0,1.9-0.2,3.8-1.9,5.1c-0.9,0.8-2.1,1.3-3.6,1.3c-1.2,0-2.6-0.3-3.7-1.3c-1.7-1.4-1.9-3.3-1.9-5.1v-10.5
		L78.4,210.4L78.4,210.4z"/>
	<polygon class="st0" points="90.8,210.4 100,210.4 100,212 92.7,212 92.7,217.8 100,217.8 100,219.4 92.7,219.4 92.7,225.3 
		100,225.3 100,227 90.8,227 	"/>
	<polygon class="st0" points="114.5,224.2 114.5,210.4 116.3,210.4 116.3,227 114.5,227 104.7,213 104.7,227 102.9,227 102.9,210.4 
		104.8,210.4 	"/>
	<path class="st0" d="M118.8,218.7c0-5.1,4-8.6,8.6-8.6c4.9,0,8.6,3.7,8.6,8.6c0,4.9-3.8,8.6-8.6,8.6S118.8,223.5,118.8,218.7
		C118.8,218.8,118.8,218.7,118.8,218.7z M120.7,218.7L120.7,218.7c0,3.9,2.9,6.9,6.8,6.9c3.9,0,6.8-3.2,6.8-6.9
		c0-3.8-2.9-6.9-6.8-6.9C123.6,211.7,120.7,214.8,120.7,218.7L120.7,218.7z"/>
	<path class="st0" d="M139.7,222.4c0.3,2.7,2.3,3.3,3.3,3.3c1.7,0,3.3-1.3,3.3-3.2c0-2.3-2-2.8-3.9-3.5c-1.3-0.4-4.2-1.3-4.2-4.4
		c0-2.9,2.4-4.6,4.9-4.6c2.1,0,4.4,1.1,4.7,4.3H146c-0.2-1.1-0.7-2.7-2.9-2.7c-1.7,0-3,1.1-3,2.8c0,2,1.6,2.5,4.1,3.4
		c1.6,0.6,4,1.5,4,4.5c0,2.7-2,4.9-5.1,4.9c-2.8,0-5.1-1.7-5.2-4.9L139.7,222.4L139.7,222.4z"/>
	<path class="st0" d="M156.5,227h-2l6.9-16.6h1.8L170,227h-2l-1.9-4.7h-7.7L156.5,227z M162.2,212.5L162.2,212.5l-3.3,8.3h6.6
		L162.2,212.5z"/>
	<rect x="171.9" y="210.4" class="st0" width="1.8" height="16.6"/>
	<path class="st0" d="M176.9,210.4h4.3c2.6,0,3.8,0.3,4.7,0.9c1.3,0.8,2.3,2.6,2.3,4.5c0,1.1-0.3,2.3-1,3.2c-1,1.3-2.2,1.7-3.7,1.8
		l4.1,6.2h-2l-4.7-7.2h0.5c1.2,0,2.8,0,3.7-0.9c0.9-0.8,1.3-1.9,1.3-3c0-1.2-0.6-2.5-1.6-3.2c-0.8-0.5-1.9-0.6-3.4-0.6h-2.6V227
		h-1.9L176.9,210.4L176.9,210.4z"/>
	<polygon class="st0" points="190.2,210.4 199.4,210.4 199.4,212 192,212 192,217.8 199.3,217.8 199.3,219.4 192,219.4 192,225.3 
		199.4,225.3 199.4,227 190.2,227 	"/>
	<path class="st0" d="M203.4,222.4c0.3,2.7,2.3,3.3,3.3,3.3c1.7,0,3.3-1.3,3.3-3.2c0-2.3-2-2.8-3.9-3.5c-1.3-0.4-4.2-1.3-4.2-4.4
		c0-2.9,2.4-4.6,4.9-4.6c2.1,0,4.4,1.1,4.7,4.3h-1.8c-0.2-1.1-0.7-2.7-2.9-2.7c-1.7,0-3,1.1-3,2.8c0,2,1.6,2.5,4.1,3.4
		c1.6,0.6,4,1.5,4,4.5c0,2.7-2,4.9-5.1,4.9c-2.8,0-5.1-1.7-5.2-4.9L203.4,222.4L203.4,222.4z"/>
	<path class="st0" d="M233.8,223.4h-2.2v3.6h-2.8v-3.6H216V220l12.2-9.6h3.5v10.5h2.2L233.8,223.4L233.8,223.4z M228.8,220.9
		L228.8,220.9v-7.7c-0.3,0-1.9,1.2-4.7,3.4c-1.7,1.3-3.3,2.6-4.9,4l0.4,0.3H228.8z"/>
	<path class="st0" d="M254.1,215.9c0,1.8-0.6,3.1-1.9,3.9c-0.9,0.6-2.4,1-4.2,1.1c-1.5,0-3,0.1-4.5,0.1c-1.1,0-1.9,0.2-2.5,0.3
		c-1.1,0.3-1.6,0.9-1.6,1.6c0,0.3,0,0.8,0,1.5H254v2.5h-17.8v-3.3c0-2.6,1.3-4.2,3.9-4.7c2.4-0.1,4.8-0.3,7.3-0.4
		c2.6-0.2,3.9-1.1,3.9-2.8c0-1.2-0.4-2-1.3-2.5c-0.6-0.3-1.6-0.5-2.9-0.5h-2.9c-1.6,0-2.7,0.1-3.3,0.4c-1.1,0.4-1.6,1.2-1.6,2.6
		h-2.9c0-2.1,0.7-3.6,2.2-4.5c1.1-0.6,2.8-0.9,5.2-0.9h2.7c2.6,0,4.5,0.3,5.5,0.8C253.4,211.9,254.1,213.5,254.1,215.9"/>
	<polygon class="st0" points="274.6,210.4 264,217.8 274.3,227 270.3,227 261.5,219.2 259.2,219.2 259.2,227 256.4,227 256.4,210.4 
		259.2,210.4 259.2,216.7 261.4,216.7 270.5,210.4 	"/>
	<path class="st0" d="M190.3,135.3v7.9l0.5,1.7l0.5,0.9l1.2,1.2l1.9,0.5h1.7l1.9-0.5l0.7-0.2l1,1.2l-1.9,1.7l-1.4,0.7l-6.4,0.2
		l-0.7,0.2h-1.4l-0.9-0.5l-0.5-0.7l-0.5-1.2l0.2-1.7l-0.5-6.4l-0.7-1.4l-1.2-3.6l-0.5-3.3l0.2-2.4l-5.3-2.9l-5.3-2.9l-3.6-1.7
		l-2.1,3.8l-2.9,4.8l-3.6,4.3l-0.7,0.5l-1.7,0.7h-1.7l-17,2.9l-1.7,0.5l-1.2,1l-1,1.4l-0.4,1.8v1.4l0.2,1.2l-0.7,0.5l-1-0.7l-1-1.4
		l-0.7-1.4l1-7.6v-0.5l0.7-0.7h1l0.7,0.5l2.6,0.2l1.2-0.2l3.6-1.4l2.1-1l2.1-1l2.6-1l3.1-0.2l2.9,0.2l0.2-0.2l1.2-1l1.4-4.8l2.6-6.4
		v-0.5l-0.2-2.2l0.2-2.4l1-2.2l0.5-1.2l1.2-1.2l1.2-0.5l0.5-3.1v-2.6l-0.5-5.3v-6.2l-6.4-1.7l-0.2,1.9l-0.5,3.6l-0.5,3.8v1.4
		l0.5,0.2l0.7,1.9l0.7,1.7l-0.2,1.7v0.5l-0.5,0.7l-0.7,0.2h-0.6l-0.7-0.5l-0.7-0.9l-1.2-1.4l-0.5-1.9V100l-0.5-5l0.2-5l0.7-4.8
		l2.6-0.2h3.6l4.1,0.5l1.9-0.5h2.4l2.4,0.7l1.2-2.4l-0.5-1l-0.2-1.2l-0.5-0.7v-1.7l0.7-1v-1L174,75l0.7-0.5l1.2-0.5l0.7-0.2h1.2
		l1,0.2l1.2,0.5l1.2,0.2l0.7,1l0.5,0.7l0.7,0.7v1.2l0.2,1.5l-0.7,1l0.5,3.6l-1.2,0.2l-0.2,1.9l-0.2,0.7h-1l-1.9-0.5l-0.7,0.5
		l-0.5,0.7v1.4l2.6,10l0.5-1.2l1.7-2.9l-0.7-1c0,0-0.9-1.8-0.7-2.1c0.2-0.4,1.3,0.2,1.4,0c0.1-0.2-0.1-0.5,0-1.2
		c0.1-0.6,2.9-0.4,3.1,0c0.2,0.4,0.2,1,0.2,1l-0.2,1.9V95l-0.2,1.2l-0.2,1l-0.5,1.2l-0.5,1l-0.5,1.2l-0.7,1.7l-1,1.7l-1.2,1.4
		l-1,0.7h-1l-0.7-0.2l-0.7-1l-0.5-1.7v2.6l-1.2,3.6L174,113l2.6,1.4l4.8,2.9l4.3,3.8l4.1,3.8v1.7L190.3,135.3z"/>
	<path class="st1" d="M190.3,135.3v7.9l0.5,1.7l0.5,0.9l1.2,1.2l1.9,0.5h1.7l1.9-0.5l0.7-0.2l1,1.2l-1.9,1.7l-1.4,0.7l-6.4,0.2
		l-0.7,0.2h-1.4l-0.9-0.5l-0.5-0.7l-0.5-1.2l0.2-1.7l-0.5-6.4l-0.7-1.4l-1.2-3.6l-0.5-3.3l0.2-2.4l-5.3-2.9l-5.3-2.9l-3.6-1.7
		l-2.1,3.8l-2.9,4.8l-3.6,4.3l-0.7,0.5l-1.7,0.7h-1.7l-17,2.9l-1.7,0.5l-1.2,1l-1,1.4l-0.4,1.8v1.4l0.2,1.2l-0.7,0.5l-1-0.7l-1-1.4
		l-0.7-1.4l1-7.6v-0.5l0.7-0.7h1l0.7,0.5l2.6,0.2l1.2-0.2l3.6-1.4l2.1-1l2.1-1l2.6-1l3.1-0.2l2.9,0.2l0.2-0.2l1.2-1l1.4-4.8l2.6-6.4
		v-0.5l-0.2-2.2l0.2-2.4l1-2.2l0.5-1.2l1.2-1.2l1.2-0.5l0.5-3.1v-2.6l-0.5-5.3v-6.2l-6.4-1.7l-0.2,1.9l-0.5,3.6l-0.5,3.8v1.4
		l0.5,0.2l0.7,1.9l0.7,1.7l-0.2,1.7v0.5l-0.5,0.7l-0.7,0.2h-0.6l-0.7-0.5l-0.7-0.9l-1.2-1.4l-0.5-1.9V100l-0.5-5l0.2-5l0.7-4.8
		l2.6-0.2h3.6l4.1,0.5l1.9-0.5h2.4l2.4,0.7l1.2-2.4l-0.5-1l-0.2-1.2l-0.5-0.7v-1.7l0.7-1v-1L174,75l0.7-0.5l1.2-0.5l0.7-0.2h1.2
		l1,0.2l1.2,0.5l1.2,0.2l0.7,1l0.5,0.7l0.7,0.7v1.2l0.2,1.5l-0.7,1l0.5,3.6l-1.2,0.2l-0.2,1.9l-0.2,0.7h-1l-1.9-0.5l-0.7,0.5
		l-0.5,0.7v1.4l2.6,10l0.5-1.2l1.7-2.9l-0.7-1c0,0-0.9-1.8-0.7-2.1c0.2-0.4,1.3,0.2,1.4,0c0.1-0.2-0.1-0.5,0-1.2
		c0.1-0.6,2.9-0.4,3.1,0c0.2,0.4,0.2,1,0.2,1l-0.2,1.9V95l-0.2,1.2l-0.2,1l-0.5,1.2l-0.5,1l-0.5,1.2l-0.7,1.7l-1,1.7l-1.2,1.4
		l-1,0.7h-1l-0.7-0.2l-0.7-1l-0.5-1.7v2.6l-1.2,3.6L174,113l2.6,1.4l4.8,2.9l4.3,3.8l4.1,3.8v1.7L190.3,135.3z"/>
</g>
<g>
	<path class="st0" d="M371.9,97.1h6.9l0.6-10.4h9.4v10.4h10v7.6h-10v28.8c0,1.4,0.8,1.7,1.6,1.7h8.4v8.2H387
		c-5.2,0-8.2-3.3-8.2-10.1v-28.7h-6.9V97.1z M425.8,96c12.8,0,21.1,9.7,21.1,23v5.5h-34.4c0.8,6.6,6.9,11.2,14.6,11.2
		c5.8,0,10-3,13-6.2l5.9,5.9c-5,6.3-12.1,9.4-19.6,9.4c-12.1,0-23.7-8.8-23.7-24.1C402.6,106.9,412.9,96,425.8,96 M437.1,116.7
		c-0.2-6.5-4.2-11.6-11.7-11.6c-6.5,0-12.2,4.7-13,11.6H437.1z M453.8,79.8h10v53.7c0,1.2,0.1,1.7,1.6,1.7h6.2v8.2h-9.6
		c-6.3,0-8.1-4.1-8.1-9.9V79.8z M497.7,96c12.8,0,21.1,9.7,21.1,23v5.5h-34.4c0.8,6.6,6.9,11.2,14.6,11.2c5.8,0,10-3,13-6.2l5.9,5.9
		c-5,6.3-12.1,9.4-19.6,9.4c-12.1,0-23.7-8.8-23.7-24.1C474.6,106.9,484.8,96,497.7,96 M509.1,116.7c-0.2-6.5-4.2-11.6-11.7-11.6
		c-6.5,0-12.2,4.7-13,11.6H509.1z M549.3,95.8c11.3,0,17.6,6.8,20.5,14.5l-8.3,3.6c-2.6-5.9-6.8-8.9-12.3-8.9
		c-7.8,0-13.3,6.2-13.3,15.4c0,9.2,5.6,15.4,13.3,15.4c5.6,0,9.8-2.8,13.4-7.9l6.9,4.7c-4.4,7.5-10.2,12.2-21,12.2
		c-13.3,0-22.6-10.3-22.6-24.2C526,106.7,535.4,95.8,549.3,95.8 M574.7,119.6h9.6v1c0,8.6,7.1,14.6,14.7,14.6c7.5,0,14-5.8,14-14.3
		v-1.1h9.8c0,0.5,0.1,1.5,0.1,2.2c0,13.5-11.5,23-24.3,23c-12.7,0-24.1-9.7-24.1-23.4C574.7,120.8,574.7,120.4,574.7,119.6
		 M598.8,95.8c11.7,0,20.6,7.5,23.5,18.3h-10c-2.2-5.4-7.2-8.8-13.5-8.8c-6.3,0-11.3,3.6-13.5,8.8h-9.9
		C578.1,103.4,587.9,95.8,598.8,95.8 M630.4,97.1h9.1l0.1,8.8h0.4c2.8-6.2,7.6-10.1,14.7-10.1c7,0,11.9,4,13.9,11.3h0.5
		c2.7-7.2,7.7-11.3,15.4-11.3c10.6,0,15.7,8.1,15.7,18.5v29.1h-10v-27.9c0-6.2-2.3-11-8.8-11c-7.5,0-11.4,6.4-11.4,13v25.9h-10
		v-27.9c0-7.4-2.9-11-8.7-11c-7.6,0-11.2,6.2-11.2,13v25.9h-10V97.1z"/>
</g>
</svg>
