<?xml version="1.0" standalone="no"?>
<!DOCTYPE svg PUBLIC "-//W3C//DTD SVG 20010904//EN"
 "http://www.w3.org/TR/2001/REC-SVG-20010904/DTD/svg10.dtd">
<svg version="1.0" xmlns="http://www.w3.org/2000/svg"
 width="5000.000000pt" height="5000.000000pt" viewBox="0 0 5000.000000 5000.000000"
 preserveAspectRatio="xMidYMid meet">
<metadata>
Created by potrace 1.16, written by Peter Selinger 2001-2019
</metadata>
<g transform="translate(0.000000,5000.000000) scale(0.100000,-0.100000)"
fill="#000000" stroke="none">
<path d="M42598 26512 c-21 -4 -23 -13 -5 -31 7 -8 7 -11 1 -8 -7 4 -17 0 -24
-8 -10 -12 -10 -18 1 -32 10 -11 10 -14 2 -9 -9 5 -17 -3 -24 -21 -7 -15 -20
-46 -30 -68 -11 -23 -15 -41 -9 -43 6 -2 10 -8 10 -13 0 -6 -4 -8 -9 -5 -12 8
-44 -43 -48 -77 -2 -16 1 -26 5 -23 5 3 9 -1 9 -8 0 -11 -4 -12 -18 -3 -10 6
-15 15 -13 19 14 21 -6 5 -21 -19 -16 -23 -16 -25 -1 -20 9 4 16 2 16 -3 0 -5
7 -7 15 -4 23 9 18 -14 -5 -26 -12 -6 -18 -16 -14 -23 4 -7 3 -8 -2 -4 -5 5
-9 14 -9 20 0 7 -7 13 -16 15 -13 2 -16 -5 -15 -38 1 -22 -2 -40 -7 -40 -4 0
-5 -4 -2 -10 3 -5 1 -10 -4 -10 -13 0 -13 2 -1 34 5 14 6 27 2 30 -10 6 -82
-70 -74 -78 12 -13 12 -48 0 -43 -7 2 -12 11 -10 21 2 9 -2 16 -8 16 -5 0 -10
-4 -10 -9 0 -5 -10 -11 -22 -14 -18 -5 -19 -9 -9 -21 17 -20 7 -33 -25 -33
-17 0 -22 2 -13 7 6 5 19 6 27 2 10 -3 13 0 10 9 -7 19 -55 14 -81 -8 -11 -10
-17 -12 -13 -5 5 8 0 12 -14 12 -12 0 -19 -4 -16 -8 2 -4 -5 -9 -17 -9 -17 -2
-19 0 -7 7 12 8 11 10 -5 10 -12 0 -26 -5 -33 -12 -7 -7 -12 -9 -12 -5 0 13
-79 -33 -89 -51 -15 -29 -21 -70 -10 -74 6 -2 11 -10 13 -18 2 -8 6 -23 11
-33 4 -9 5 -31 3 -47 -3 -22 0 -30 11 -31 14 0 14 -1 1 -7 -9 -4 -15 -13 -14
-19 1 -7 2 -18 3 -24 0 -5 7 -7 14 -3 6 4 8 3 4 -1 -4 -5 -22 -10 -40 -11 -18
-1 -27 0 -21 3 7 2 10 14 7 26 -4 21 -3 20 12 -3 10 -15 14 -18 11 -7 -3 10
-6 26 -6 34 0 15 -2 15 -17 1 -26 -23 -85 -52 -107 -52 -11 -1 -21 -8 -23 -16
-4 -13 -3 -13 6 0 13 18 14 1 2 -19 -7 -11 -10 -9 -16 8 -8 26 -17 26 -39 2
-17 -18 -17 -19 1 -24 10 -3 5 -4 -10 -3 -16 1 -32 6 -35 12 -4 5 -17 10 -29
12 -21 3 -28 -6 -24 -30 0 -4 -8 -12 -20 -18 -19 -11 -20 -10 -9 10 14 26 7
35 -17 25 -10 -4 -30 -7 -44 -6 -15 1 -34 -5 -43 -14 -9 -9 -16 -12 -16 -6 0
6 -7 11 -16 11 -9 0 -12 -5 -8 -12 5 -9 2 -9 -9 1 -15 12 -21 9 -19 -10 1 -3
-5 -6 -13 -6 -8 0 -12 4 -8 10 7 12 -50 5 -59 -8 -5 -6 -8 -5 -8 3 0 7 -5 10
-11 7 -6 -4 -61 -9 -122 -12 -89 -3 -115 -7 -124 -20 -8 -10 -13 -12 -13 -5 0
8 -12 11 -30 10 -16 -1 -30 -6 -30 -10 0 -5 -8 -5 -17 0 -10 5 -31 7 -48 5
-16 -3 -42 -5 -57 -5 -15 0 -25 -4 -22 -9 3 -5 1 -9 -5 -9 -6 0 -8 -6 -5 -14
3 -8 12 -12 20 -9 8 3 12 9 9 13 -3 5 -2 11 3 14 4 2 8 -5 8 -17 0 -30 -42
-33 -51 -3 -4 11 -7 24 -6 28 0 5 -23 4 -39 -2 -3 -1 -9 -2 -14 -1 -5 1 -6 -5
-3 -13 4 -9 1 -18 -5 -22 -7 -4 -8 -3 -4 4 4 7 2 12 -4 12 -6 0 -8 5 -5 10 4
7 -8 10 -34 9 -29 -2 -41 -7 -42 -18 0 -11 -2 -12 -6 -3 -2 6 -21 12 -41 12
-28 0 -33 -3 -22 -10 8 -5 24 -7 35 -5 11 3 14 2 7 -1 -6 -3 -9 -10 -6 -16 4
-6 -2 -5 -15 1 -15 9 -21 9 -21 1 0 -7 -6 -10 -12 -7 -7 2 -12 10 -10 16 1 6
-10 11 -24 11 -14 0 -23 -4 -19 -10 8 -13 -5 -13 -25 0 -10 6 -22 4 -37 -5
-14 -9 -24 -11 -28 -5 -4 6 -11 7 -17 4 -6 -4 -23 -8 -37 -9 -14 -1 -34 -3
-44 -3 -11 -1 -16 -7 -11 -14 5 -10 4 -10 -6 -1 -14 13 -36 8 -62 -15 -15 -13
-18 -13 -18 -1 0 11 -2 11 -10 -1 -5 -8 -10 -10 -10 -4 0 8 -11 8 -40 1 -25
-7 -39 -16 -37 -25 1 -8 -6 -16 -15 -17 -10 -2 -18 1 -18 7 0 6 7 7 16 4 8 -3
12 -2 9 4 -9 14 -31 12 -44 -4 -7 -8 -26 -14 -44 -14 -17 1 -33 -4 -35 -10 -2
-7 -8 -10 -13 -6 -5 3 -9 0 -9 -6 0 -6 -4 -8 -10 -5 -5 3 -21 -1 -34 -10 -14
-9 -26 -16 -28 -15 -7 3 -63 -22 -69 -31 -3 -6 -12 -12 -20 -13 -29 -6 -69
-30 -69 -42 0 -20 18 -26 40 -14 16 9 22 8 26 -4 5 -12 23 -14 102 -10 53 2
99 9 102 14 4 6 19 9 33 6 15 -3 27 -1 27 4 0 4 11 7 25 5 16 -1 24 2 22 9 -6
16 -56 10 -69 -9 -4 -6 -8 -2 -8 9 0 12 5 16 15 12 8 -3 15 -2 15 3 0 4 15 7
34 7 23 -1 32 -5 29 -13 -3 -7 2 -13 11 -13 14 0 20 11 18 32 -1 3 5 8 12 11
10 4 12 -1 9 -16 -4 -18 -3 -19 6 -7 6 8 11 10 11 4 0 -16 52 -5 68 14 6 9 12
11 12 6 0 -6 7 -11 15 -11 8 0 15 3 15 7 0 3 17 6 38 7 62 2 96 8 129 25 24
12 30 12 26 2 -3 -9 4 -11 29 -7 18 3 60 6 93 6 33 1 65 5 71 9 6 4 21 6 33 3
12 -2 21 1 21 8 0 7 4 6 10 -3 6 -10 10 -11 10 -2 0 14 21 12 32 -3 5 -6 8 -5
8 4 0 11 3 11 15 1 12 -10 15 -10 15 0 0 8 4 9 13 3 17 -14 97 -17 97 -4 0 6
-13 9 -29 7 -31 -3 -50 17 -29 30 6 4 8 3 5 -3 -4 -6 2 -13 12 -16 12 -3 22 1
25 9 5 12 38 15 181 14 103 -1 173 -5 169 -11 -3 -5 -1 -9 5 -9 5 0 12 6 14
13 4 9 6 9 6 -1 1 -8 -8 -16 -19 -19 -45 -12 -16 -23 50 -19 39 2 73 0 75 -5
3 -4 12 -6 19 -3 8 3 17 1 21 -5 3 -6 12 -11 18 -11 7 0 6 4 -3 10 -8 5 -10
10 -4 10 5 0 14 -4 20 -10 5 -5 30 -20 56 -33 34 -17 50 -21 58 -13 8 8 9 6 5
-6 -5 -13 0 -20 18 -27 14 -5 36 -21 51 -36 26 -25 38 -22 14 4 -11 11 -9 12
7 4 11 -6 25 -8 32 -6 6 2 14 -1 18 -6 3 -7 0 -8 -10 -5 -11 5 -14 2 -9 -10 3
-9 11 -16 17 -16 6 0 7 -3 4 -6 -4 -4 -13 -1 -22 6 -25 21 -17 -5 9 -27 15
-13 27 -18 33 -12 6 6 10 5 11 -3 3 -41 19 -71 33 -63 13 9 11 25 -3 21 -7 -1
-10 -1 -5 1 4 3 4 10 0 16 -16 25 -11 39 6 20 13 -13 17 -29 14 -55 -4 -42 12
-58 33 -32 13 18 14 18 7 -1 -3 -11 -11 -23 -17 -27 -6 -4 -4 -9 7 -14 9 -3
17 -10 17 -15 0 -5 7 -25 15 -45 8 -19 15 -38 16 -42 1 -4 5 -17 10 -29 4 -12
9 -43 10 -70 1 -26 6 -53 11 -60 6 -7 4 -14 -3 -19 -8 -5 -10 -3 -5 7 4 8 0 5
-8 -6 -9 -11 -14 -25 -12 -32 3 -7 0 -15 -6 -19 -7 -5 -8 -2 -3 7 5 8 -8 -3
-27 -23 -20 -20 -38 -35 -41 -32 -3 3 -4 -2 -3 -11 1 -15 -14 -17 -126 -19
-71 -1 -128 1 -128 6 0 4 -7 4 -17 1 -10 -4 -14 -2 -10 4 3 5 0 10 -8 10 -8 0
-13 -5 -12 -10 1 -5 -4 -12 -10 -14 -7 -3 -13 1 -13 9 0 10 -3 9 -10 -2 -6 -9
-10 -11 -10 -3 0 7 -6 10 -13 7 -8 -3 -14 1 -14 9 0 9 8 13 21 9 16 -4 18 -2
10 8 -18 19 -47 8 -54 -20 -5 -21 -7 -22 -13 -8 -3 10 -2 20 3 23 17 10 11 22
-12 28 -27 7 -54 -11 -38 -27 14 -14 13 -23 -6 -30 -13 -5 -14 -4 -6 7 8 10 8
17 1 24 -8 8 -8 13 0 17 15 10 14 22 -1 24 -7 1 -29 3 -49 5 -20 2 -42 7 -48
11 -7 4 -18 3 -26 -4 -9 -7 -15 -8 -20 0 -4 7 -13 7 -27 -1 -15 -8 -19 -8 -14
0 4 6 3 11 -3 11 -5 0 -13 -5 -16 -10 -5 -8 -11 -7 -21 1 -8 6 -22 8 -31 4
-10 -4 -32 -8 -50 -9 -17 -1 -39 -9 -49 -17 -11 -8 -15 -9 -10 -2 4 8 2 11 -6
8 -16 -5 -68 -16 -85 -17 -7 -1 -13 -5 -13 -9 0 -4 -8 -5 -19 -2 -10 3 -22 0
-25 -6 -4 -6 -1 -9 7 -5 8 3 14 -1 14 -10 0 -8 -6 -12 -14 -9 -15 6 -13 -27 3
-49 6 -7 14 -21 17 -30 4 -10 14 -18 22 -18 9 0 14 4 10 9 -3 5 4 12 15 16 22
7 28 27 8 23 -7 -2 -12 3 -10 10 4 20 -16 14 -23 -8 -4 -11 -11 -18 -16 -14
-6 4 -3 14 7 25 20 23 31 24 50 5 16 -16 19 -46 5 -46 -12 0 -23 -29 -15 -42
4 -6 10 -5 15 3 7 11 9 11 9 1 0 -7 4 -11 9 -7 5 3 12 1 16 -4 3 -6 12 -8 20
-4 9 3 21 0 29 -6 7 -6 30 -9 52 -7 21 2 46 0 55 -5 9 -4 32 -10 50 -12 19 -2
39 -6 45 -9 5 -4 16 -3 23 2 11 6 8 11 -9 20 -18 10 -24 9 -31 -1 -7 -11 -10
-12 -21 -1 -11 11 -10 13 2 10 8 -2 14 3 12 11 -2 10 6 8 30 -6 19 -11 32 -27
31 -37 0 -11 4 -15 12 -12 8 3 16 0 18 -7 3 -9 9 -8 23 3 10 8 16 10 12 6 -12
-15 13 -38 27 -26 9 7 16 5 26 -7 13 -17 13 -17 -6 -3 -18 14 -19 14 -7 -2 7
-9 22 -15 33 -13 12 3 19 -1 16 -8 -6 -19 103 -105 129 -102 12 1 28 -2 36 -6
8 -6 1 -7 -19 -5 -22 2 -33 -1 -33 -9 0 -7 10 -11 25 -10 14 2 27 -1 30 -5 3
-5 -4 -7 -16 -5 -17 3 -19 2 -9 -10 6 -8 9 -18 6 -24 -4 -5 1 -17 10 -25 8 -9
13 -16 10 -16 -9 0 24 -84 37 -92 9 -6 9 -8 0 -8 -7 0 -10 -7 -7 -15 5 -11 10
-12 26 -4 15 8 17 13 8 19 -9 5 -9 9 -1 14 6 4 11 4 12 -1 0 -4 2 -19 5 -33 3
-19 2 -21 -6 -10 -6 10 -10 11 -10 3 0 -7 -7 -13 -16 -13 -11 0 -14 -5 -10
-16 3 -9 6 -18 6 -21 0 -3 6 0 13 6 10 8 14 7 14 -4 0 -8 -6 -15 -14 -15 -7 0
-13 -11 -13 -25 0 -14 5 -25 10 -25 6 0 10 -5 10 -11 0 -5 -4 -8 -8 -5 -5 3
-10 -54 -11 -127 -4 -168 -4 -167 -15 -160 -5 4 -7 -1 -3 -12 4 -9 2 -24 -4
-31 -6 -8 -9 -27 -7 -44 2 -16 0 -31 -6 -33 -5 -2 -11 -28 -12 -58 -3 -76 -3
-76 -15 -59 -9 13 -10 13 -6 -1 3 -9 1 -21 -5 -27 -6 -6 -5 -19 6 -38 16 -29
16 -29 14 -4 -2 14 -7 28 -11 31 -5 3 -3 9 5 11 20 8 21 -57 0 -74 -9 -7 -13
-8 -10 -3 4 6 -1 19 -9 30 -11 14 -14 15 -10 4 3 -9 0 -22 -6 -29 -9 -10 -9
-11 3 -5 12 7 11 4 -2 -11 -9 -10 -18 -32 -20 -49 -2 -16 -9 -36 -16 -44 -10
-11 -10 -16 0 -29 9 -10 9 -13 1 -9 -17 10 -28 -13 -12 -24 11 -7 10 -9 -3 -9
-10 0 -18 -6 -18 -13 0 -7 -13 -46 -29 -87 -20 -53 -25 -77 -17 -82 7 -5 5 -8
-6 -8 -10 0 -18 -4 -18 -9 0 -5 -3 -18 -7 -28 -5 -14 -4 -16 8 -8 8 6 7 2 -4
-7 -12 -12 -16 -24 -12 -38 4 -13 2 -19 -4 -18 -6 2 -20 -16 -30 -38 -15 -32
-16 -45 -8 -54 7 -6 8 -11 2 -10 -24 5 -26 -2 -11 -25 19 -28 10 -34 -10 -7
-9 11 -13 13 -14 4 0 -13 -32 -91 -51 -125 -5 -10 -7 -22 -4 -26 2 -5 -2 -14
-10 -21 -14 -11 -14 -15 2 -34 15 -17 15 -18 1 -8 -21 17 -33 -1 -13 -21 13
-13 13 -16 -1 -21 -8 -3 -12 -11 -8 -17 4 -8 3 -9 -5 -5 -9 6 -9 11 -1 21 6 7
7 16 2 19 -10 6 -53 -90 -44 -99 3 -3 7 -16 9 -28 2 -17 1 -19 -6 -7 -5 8 -7
18 -4 24 3 5 1 6 -5 2 -6 -4 -8 -14 -5 -23 4 -9 -1 -19 -10 -25 -10 -5 -14
-15 -10 -25 4 -11 3 -14 -5 -9 -8 5 -12 -1 -12 -16 0 -17 3 -19 9 -9 5 8 16
11 24 8 9 -3 18 -1 20 6 3 7 4 2 4 -10 -1 -17 -4 -19 -14 -11 -9 7 -17 7 -25
0 -7 -6 -17 -11 -23 -12 -9 -1 -29 -40 -20 -40 2 0 -2 -12 -10 -27 -11 -20
-11 -30 -3 -41 9 -10 8 -12 -2 -10 -8 2 -16 -6 -18 -17 -4 -16 -2 -17 11 -7
12 10 17 10 23 1 4 -7 3 -9 -3 -6 -14 9 -47 -29 -37 -44 4 -7 3 -10 -3 -6 -6
4 -13 0 -17 -8 -3 -8 0 -17 6 -21 7 -5 8 -2 3 7 -8 12 -6 12 8 0 22 -17 21
-21 -3 -16 -24 5 -33 -9 -32 -47 0 -19 -3 -26 -11 -21 -7 4 -6 -1 2 -11 8 -9
10 -16 5 -15 -21 4 -26 -2 -14 -17 11 -12 11 -15 0 -12 -8 2 -16 -6 -18 -17
-4 -16 -2 -17 11 -7 12 10 17 10 23 1 4 -7 3 -9 -3 -6 -14 9 -47 -29 -37 -44
4 -7 3 -10 -3 -6 -6 4 -13 0 -17 -8 -3 -8 0 -17 6 -21 7 -5 8 -2 3 7 -8 12 -6
12 8 0 22 -17 21 -21 -3 -16 -24 5 -33 -9 -32 -47 0 -19 -3 -26 -11 -22 -7 4
-9 4 -5 -1 4 -4 1 -22 -7 -40 -13 -33 -11 -45 8 -45 5 0 7 7 3 15 -3 8 -1 15
4 15 5 0 9 -11 8 -24 -2 -17 -7 -22 -18 -18 -12 5 -12 1 3 -22 10 -15 16 -30
13 -34 -3 -3 -6 0 -6 7 0 7 -4 9 -10 6 -10 -6 -13 3 -13 38 0 29 -13 19 -25
-19 -10 -32 -9 -34 6 -22 9 7 7 1 -6 -14 -13 -14 -24 -36 -26 -49 -1 -13 -7
-33 -14 -45 -8 -16 -8 -24 1 -33 9 -10 9 -12 -2 -9 -8 2 -17 -6 -19 -17 -4
-16 -2 -17 11 -7 12 10 17 10 23 1 4 -7 3 -9 -3 -6 -14 9 -47 -29 -37 -44 4
-7 3 -10 -3 -6 -6 4 -13 0 -17 -8 -3 -8 0 -17 6 -21 7 -4 8 -3 4 4 -10 17 -1
15 14 -3 10 -12 8 -14 -10 -10 -25 5 -42 -29 -33 -66 3 -17 2 -20 -5 -11 -9
13 -11 9 -27 -66 -2 -8 3 -11 16 -7 15 5 19 2 17 -19 -1 -15 -6 -22 -11 -17
-12 12 -47 1 -47 -15 0 -12 18 -29 32 -29 3 0 10 -3 14 -7 8 -8 -31 -2 -46 7
-6 4 -10 3 -9 -2 1 -4 -2 -19 -8 -33 -16 -40 -24 -92 -13 -85 6 3 10 -1 10 -9
0 -10 -6 -13 -17 -10 -16 5 -16 4 -2 -8 16 -13 23 -51 7 -42 -5 3 -6 9 -3 14
9 14 -12 21 -23 7 -18 -21 -51 -147 -39 -147 6 0 3 -6 -8 -13 -10 -8 -15 -19
-11 -25 4 -7 3 -12 -2 -12 -12 0 -22 -49 -12 -55 5 -3 11 1 13 7 4 10 6 10 6
0 1 -8 -8 -16 -18 -19 -27 -7 -34 -43 -13 -67 16 -18 16 -18 -4 -8 -19 10 -23
8 -27 -8 -3 -11 -1 -18 4 -14 5 3 9 1 9 -5 0 -5 8 -12 18 -15 9 -3 5 -4 -11
-2 -22 3 -25 1 -16 -11 10 -11 8 -12 -5 -7 -14 6 -16 2 -11 -22 5 -22 4 -25
-4 -14 -9 13 -11 11 -11 -7 0 -12 6 -24 13 -26 7 -3 5 -6 -5 -6 -10 -1 -18 -2
-18 -4 0 -1 -4 -17 -9 -35 -7 -24 -7 -31 2 -26 7 4 9 3 4 -1 -4 -5 0 -19 9
-32 18 -28 27 -66 14 -58 -5 3 -12 0 -16 -6 -4 -8 -9 -7 -15 2 -12 19 -11 39
2 39 5 0 8 -4 4 -9 -3 -5 -1 -12 4 -15 5 -4 13 -1 17 5 5 8 3 9 -6 4 -9 -5
-11 -4 -6 3 4 7 0 22 -8 34 -17 24 -19 21 -35 -52 -13 -55 -13 -71 -3 -68 4 1
17 -3 30 -10 18 -10 22 -10 23 0 0 7 4 5 8 -5 4 -10 10 -18 14 -17 4 0 15 -7
24 -16 15 -15 18 -15 29 0 10 15 12 15 18 1 3 -8 0 -15 -7 -15 -7 0 -4 -5 6
-11 9 -5 22 -7 29 -3 6 4 8 3 4 -4 -6 -10 30 -28 47 -24 4 1 7 -2 7 -8 0 -5 9
-10 20 -10 11 0 20 -5 20 -11 0 -5 5 -7 10 -4 6 3 10 3 10 -2 0 -4 11 -13 24
-19 19 -9 27 -8 39 3 12 12 16 12 28 -4 12 -16 12 -17 -2 -6 -16 13 -29 8 -29
-9 0 -9 61 -39 88 -44 8 -1 22 -10 31 -18 10 -9 21 -13 24 -9 4 3 7 1 7 -6 0
-7 10 -10 24 -7 17 3 23 1 20 -8 -3 -8 2 -16 10 -19 9 -4 16 -3 16 2 0 4 7 8
15 8 9 0 11 -4 6 -11 -6 -7 2 -17 23 -27 30 -16 32 -15 32 3 0 11 -5 16 -13
14 -7 -3 -15 0 -19 7 -4 7 -4 9 1 5 4 -4 16 -3 26 2 15 8 17 7 14 -10 -5 -26
4 -52 16 -44 5 3 9 0 9 -7 0 -7 3 -10 6 -6 4 3 13 0 21 -8 8 -8 20 -15 26 -15
7 0 6 4 -3 10 -9 6 -10 10 -3 10 7 0 17 -9 23 -20 6 -11 15 -20 21 -20 6 0 7
5 3 12 -5 8 -2 9 10 5 14 -6 17 -3 12 8 -3 9 -2 13 4 10 6 -3 7 -18 3 -33 -6
-25 -5 -26 11 -13 9 8 15 20 12 27 -8 22 13 27 31 8 13 -13 14 -16 3 -12 -8 3
-20 -2 -27 -11 -16 -21 -16 -28 3 -35 9 -4 13 -2 8 5 -4 7 -1 10 7 7 8 -3 13
-10 12 -15 -1 -5 13 -14 30 -21 29 -10 30 -10 13 3 -11 8 -15 15 -8 15 6 0 19
-12 28 -26 14 -20 94 -71 119 -75 23 -4 45 -13 45 -18 0 -4 6 -8 13 -8 8 0 14
7 14 14 0 8 -7 11 -15 8 -8 -3 -12 0 -10 7 2 6 11 12 20 14 12 1 16 -6 16 -28
-1 -16 5 -34 12 -38 21 -13 32 -1 15 16 -8 9 -15 18 -15 22 1 4 17 -11 36 -33
20 -22 40 -39 45 -37 5 1 9 -3 9 -10 0 -6 3 -8 7 -5 3 4 13 1 22 -7 9 -8 23
-16 31 -18 8 -2 21 -9 28 -16 8 -7 18 -10 23 -7 5 4 9 2 9 -3 0 -4 16 -16 36
-25 24 -12 33 -13 29 -5 -4 7 -1 6 7 -3 22 -27 76 -51 81 -36 3 7 6 5 6 -5 1
-10 8 -18 16 -18 8 0 15 -5 15 -10 0 -6 6 -5 14 2 8 7 11 18 8 23 -3 6 1 5 9
-1 15 -12 47 -13 67 0 14 8 32 0 32 -15 0 -6 -8 -9 -18 -7 -11 2 -26 -3 -34
-10 -13 -10 -19 -10 -31 3 -11 11 -16 12 -19 3 -4 -12 31 -37 62 -43 8 -2 16
-4 18 -5 1 -2 6 -3 10 -4 5 0 16 -9 26 -19 10 -9 21 -15 26 -12 5 3 12 1 15
-5 5 -8 11 -8 20 0 10 8 15 8 21 -1 4 -8 3 -9 -4 -5 -8 5 -10 2 -6 -9 4 -9 9
-13 12 -10 3 3 14 -2 24 -12 10 -9 18 -13 18 -9 0 4 7 0 16 -8 8 -9 20 -14 25
-11 5 4 9 0 9 -7 0 -9 3 -9 10 2 6 9 10 11 10 3 0 -7 7 -10 17 -6 11 4 14 3 9
-5 -7 -12 47 -45 58 -35 3 4 6 1 6 -5 0 -6 23 -23 51 -37 l51 -26 -7 22 c-7
22 -7 22 9 6 10 -9 23 -14 29 -10 7 4 4 9 -8 13 -14 5 -15 8 -4 12 15 6 42
-16 32 -26 -4 -3 -1 -6 5 -6 5 0 13 6 15 13 3 7 6 5 6 -5 1 -10 -3 -18 -8 -18
-12 0 -2 -38 12 -47 5 -3 7 -1 4 4 -4 6 0 13 7 16 8 3 17 1 20 -6 3 -9 5 -9 5
1 1 17 31 15 31 -2 0 -9 9 -13 25 -11 30 3 42 -12 25 -28 -9 -9 -15 -7 -26 7
-8 11 -14 16 -14 10 0 -5 -6 -2 -13 7 -11 15 -15 15 -32 3 -18 -13 -10 -20 18
-15 4 0 7 -3 7 -8 0 -5 16 -12 35 -15 20 -4 33 -11 30 -17 -11 -17 11 -9 34
12 12 12 20 27 17 35 -3 9 0 11 11 7 11 -4 14 -2 9 5 -4 7 -3 12 3 12 5 0 20
14 32 32 14 18 17 28 8 24 -9 -5 -8 -3 2 6 9 7 19 23 23 34 3 12 18 26 31 32
14 6 25 17 24 24 0 10 -2 10 -6 1 -2 -7 -9 -13 -15 -13 -6 0 -6 6 2 15 7 8 19
15 26 15 13 0 50 58 46 73 -1 4 3 6 9 5 6 -2 16 6 22 17 7 11 20 26 30 33 12
9 15 21 11 40 -4 21 -3 24 5 12 6 -8 11 -10 11 -4 0 6 -3 14 -7 18 -4 3 -8 17
-10 29 -2 19 -1 18 13 -6 9 -16 20 -25 26 -20 9 5 9 8 0 11 -7 2 -12 11 -12
20 0 12 3 13 12 4 14 -14 32 -16 24 -3 -3 5 1 12 10 15 9 4 14 9 11 13 -4 3 5
14 18 25 14 11 23 24 19 29 -3 5 12 27 33 48 59 60 92 105 85 116 -4 5 -7 12
-8 15 -3 18 -17 39 -23 35 -4 -2 -8 2 -8 10 0 11 4 12 13 4 9 -7 14 -5 18 8 3
10 4 6 2 -10 -2 -15 1 -30 6 -33 4 -3 6 -10 3 -15 -9 -14 11 -11 23 4 7 8 7
18 2 27 -13 20 -12 43 0 35 6 -4 8 -11 5 -16 -4 -5 -1 -9 5 -9 6 0 8 12 5 31
-4 19 -2 28 5 24 5 -3 10 -13 10 -21 0 -13 2 -13 16 1 20 20 11 47 -13 39 -15
-5 -16 -4 -3 5 11 7 19 6 29 -4 12 -12 17 -10 33 10 20 26 23 50 8 60 -16 10
-12 32 6 39 23 9 31 -1 14 -17 -10 -10 -11 -9 -5 2 6 10 4 12 -4 7 -14 -9 3
-36 23 -36 6 0 5 4 -3 9 -11 7 -9 10 7 15 29 9 57 55 43 69 -14 14 -14 40 -1
32 6 -4 8 -10 5 -15 -3 -5 -1 -11 4 -14 10 -6 111 120 111 138 0 6 -4 6 -9 -2
-6 -11 -11 -10 -25 3 -20 20 -20 23 -1 42 11 10 19 12 28 5 14 -11 51 0 63 19
4 7 3 10 -3 6 -5 -3 -10 0 -10 7 0 8 8 11 20 8 17 -4 19 -1 15 22 -4 21 -3 24
8 15 11 -9 15 -7 21 7 4 11 15 25 25 32 19 14 14 37 -6 29 -7 -3 -13 1 -13 9
0 7 5 10 10 7 6 -4 8 2 5 15 -4 12 -1 25 4 29 7 3 8 1 4 -5 -4 -7 -1 -12 8
-12 9 0 16 4 16 8 0 14 -22 31 -35 26 -6 -3 -12 1 -12 9 0 16 45 17 55 1 4 -6
14 -14 22 -17 12 -4 12 -6 -1 -6 -20 -1 -40 -41 -21 -41 7 0 76 97 78 109 0 3
19 26 42 50 23 24 40 47 37 49 -3 3 -11 0 -17 -6 -7 -7 -16 -12 -22 -12 -5 0
-2 6 9 13 10 8 15 19 11 25 -4 7 -1 12 9 12 9 0 13 -4 10 -10 -10 -16 11 -12
25 5 7 8 9 23 6 32 -4 10 -4 14 -1 11 4 -4 22 7 41 24 19 17 32 34 29 36 -3 3
-12 -3 -20 -14 -11 -14 -14 -15 -9 -3 3 11 -3 23 -17 33 -29 20 -32 41 -8 43
11 1 19 -4 19 -11 0 -22 30 -41 47 -30 8 5 15 14 16 19 2 10 10 22 64 82 18
21 29 42 25 51 -3 9 -1 13 5 9 11 -7 28 20 24 38 -2 5 0 7 4 3 4 -4 13 -1 20
5 9 9 10 16 2 25 -8 10 -7 16 2 22 9 5 10 10 2 14 -7 5 -8 13 -1 25 5 10 7 21
5 25 -3 3 -2 4 2 1 11 -9 12 -35 2 -35 -6 0 -7 -5 -4 -10 4 -6 12 -7 18 -3 7
3 3 -4 -7 -16 -15 -16 -16 -20 -4 -16 8 3 26 20 38 38 14 19 17 26 7 18 -9 -7
-17 -10 -18 -5 -4 42 -4 62 0 59 8 -9 41 16 41 31 0 12 3 13 14 2 12 -11 12
-14 -5 -22 -11 -5 -18 -15 -15 -22 3 -8 0 -11 -10 -7 -7 3 -14 0 -14 -6 0 -16
25 -13 40 4 7 8 9 15 4 15 -5 0 2 7 14 16 22 15 22 41 0 28 -7 -4 -8 -2 -4 5
4 6 11 9 16 6 11 -7 80 64 80 81 0 7 7 15 16 18 9 4 14 9 11 13 -4 3 1 12 11
20 9 8 12 12 6 9 -12 -6 -11 45 1 85 6 17 9 19 16 8 5 -8 9 -18 9 -24 0 -5 -5
-3 -10 5 -8 12 -10 10 -10 -8 0 -15 4 -21 13 -17 6 4 4 0 -6 -8 -10 -8 -14
-18 -9 -21 6 -3 19 10 31 29 11 19 24 35 28 35 5 0 14 10 21 21 13 20 12 21
-22 17 -26 -3 -33 -1 -25 8 5 7 19 10 29 7 24 -6 70 22 70 42 0 7 -10 21 -22
30 l-23 16 22 -4 c12 -2 26 -6 29 -10 15 -15 26 -6 13 10 -8 9 -9 14 -4 11 13
-8 39 7 41 22 1 5 2 15 3 21 0 5 5 8 10 4 13 -7 34 32 25 47 -4 6 -3 8 3 5 14
-9 37 19 28 33 -3 5 2 10 12 10 10 0 24 10 31 21 12 18 11 24 -2 38 -20 20
-51 4 -50 -26 0 -11 -5 -20 -12 -20 -14 0 -7 24 13 49 17 19 53 31 50 15 -1
-6 5 -12 14 -14 18 -4 83 82 76 101 -3 7 -1 19 3 27 5 8 4 19 -2 26 -7 9 -7
13 1 13 6 0 11 -5 11 -11 0 -8 4 -8 14 0 8 6 20 10 27 9 15 -4 40 42 31 56 -8
14 -14 52 -6 44 3 -3 7 -14 8 -24 2 -10 8 -20 15 -22 6 -2 11 0 10 5 -3 18 1
33 9 30 5 -1 22 14 38 33 16 19 21 29 11 21 -15 -12 -17 -12 -12 1 3 9 16 20
29 26 12 5 23 17 24 26 1 9 3 23 4 31 1 11 5 12 11 6 7 -7 17 -1 29 20 20 32
15 54 -9 45 -8 -3 -11 -1 -8 4 8 13 35 13 35 0 0 -5 5 -10 11 -10 5 0 7 5 4
10 -3 6 -1 10 4 10 6 0 11 4 11 9 0 4 -11 6 -25 3 -14 -2 -25 0 -25 5 0 5 15
8 32 7 42 -3 52 4 36 24 -10 12 -10 14 0 8 7 -4 12 -2 12 4 0 6 6 8 13 5 6 -4
3 1 -8 11 -15 12 -16 15 -4 11 19 -6 59 18 59 36 0 7 14 25 30 41 17 16 30 35
30 42 0 7 7 17 16 22 15 8 15 10 -1 16 -21 8 -53 -8 -36 -18 6 -4 11 -14 11
-22 0 -8 -5 -12 -10 -9 -6 4 -8 10 -5 15 7 11 -20 32 -30 22 -4 -4 -2 3 4 16
13 25 23 30 15 7 -5 -11 -2 -13 10 -9 9 3 13 10 10 15 -3 5 -1 9 5 9 5 0 13
-4 16 -10 3 -5 11 -10 16 -10 6 0 7 4 4 10 -3 5 0 7 9 4 9 -3 19 3 26 16 13
25 5 39 -12 22 -7 -7 -16 -12 -21 -12 -5 0 1 9 14 19 17 14 26 16 32 8 9 -14
40 21 31 35 -3 5 0 7 7 6 7 -2 16 8 20 22 4 14 7 21 8 17 1 -4 12 4 25 20 13
15 22 36 21 46 -2 9 0 15 6 12 5 -4 9 -1 9 5 0 6 5 8 12 4 8 -5 9 -2 5 9 -3 9
-3 16 1 14 4 -1 8 2 9 6 1 4 12 17 25 27 25 21 18 26 -12 10 -13 -7 -21 -7
-25 0 -3 5 3 10 14 10 11 0 23 5 26 10 4 7 -3 9 -19 6 -14 -3 -28 -1 -30 3 -3
4 6 8 20 9 13 1 35 2 49 3 14 1 25 8 25 15 0 8 5 14 10 14 6 0 10 8 10 17 0
14 -3 13 -16 -5 -18 -27 -30 -28 -39 -4 -5 13 -4 14 6 5 10 -10 15 -9 25 5 7
9 20 17 30 17 19 0 205 234 197 248 -2 4 1 7 7 7 7 0 7 7 -1 23 -11 19 -10 20
3 10 12 -11 18 -9 32 6 10 11 15 25 10 32 -4 7 -3 10 4 5 16 -9 90 92 87 120
-1 13 3 21 9 18 18 -6 49 23 43 40 -4 10 -1 13 9 9 10 -4 17 2 21 16 3 11 8
21 12 21 4 0 18 14 30 31 13 18 19 29 13 25 -6 -4 -16 2 -21 13 -15 27 -13 40
2 21 7 -8 18 -16 26 -18 12 -3 12 0 2 12 -10 12 -9 14 6 10 11 -2 25 6 36 21
18 25 18 25 -5 34 -18 8 -19 10 -5 10 10 1 15 5 12 11 -3 6 1 7 10 3 13 -5 14
-7 3 -14 -9 -6 -10 -9 -1 -9 17 0 46 46 38 59 -3 6 -1 19 4 29 7 13 6 23 -2
33 -7 7 -2 5 11 -5 23 -20 30 -32 10 -20 -7 4 -8 3 -4 -4 4 -7 2 -12 -4 -12
-6 0 -8 -5 -5 -11 4 -6 17 3 31 22 13 18 21 37 17 42 -3 6 -2 7 4 4 5 -3 19 7
31 22 17 24 19 31 8 40 -7 6 -17 7 -22 3 -4 -4 -2 1 5 11 14 17 57 25 46 7 -3
-5 -13 -7 -23 -4 -14 5 -15 4 -2 -5 12 -8 22 -3 47 27 18 20 32 42 33 48 0 7
8 15 18 19 16 6 16 7 -2 20 -10 8 -24 12 -30 8 -6 -3 -8 -2 -3 2 10 11 48 14
41 3 -3 -4 -1 -8 4 -8 15 0 34 28 27 40 -4 6 -1 9 7 8 7 -2 12 3 11 10 -2 6 1
12 6 12 5 0 30 27 56 61 25 34 41 58 34 53 -7 -4 -10 -3 -6 4 4 5 4 17 1 26
-5 14 -9 14 -23 4 -14 -12 -15 -11 -2 5 13 16 13 20 0 28 -9 5 -10 9 -2 9 7 0
16 -7 21 -15 7 -14 11 -14 33 3 13 11 29 18 34 16 14 -4 77 85 70 97 -4 5 -3
9 2 8 20 -3 25 2 14 15 -10 12 -8 13 8 9 12 -3 21 -1 21 5 0 6 13 27 30 45 19
22 28 42 25 55 -2 12 0 24 6 27 5 4 9 11 9 16 0 6 -4 8 -9 4 -15 -9 -25 15
-12 28 9 9 11 8 6 -3 -4 -11 3 -15 29 -16 20 0 33 3 30 7 -2 4 5 13 16 19 11
6 20 20 20 30 0 11 7 20 15 20 8 0 15 5 15 11 0 7 8 17 17 24 14 11 15 15 4
28 -14 17 -7 37 12 36 9 0 9 -2 0 -6 -7 -2 -13 -9 -13 -14 0 -6 5 -7 12 -3 7
5 8 3 3 -7 -8 -12 -6 -12 8 0 10 8 15 16 13 19 -3 2 6 14 20 24 14 11 23 23
20 25 -3 3 5 14 17 24 20 16 20 18 4 19 -26 0 -54 -29 -38 -39 9 -6 8 -11 -4
-21 -8 -7 -15 -9 -16 -4 -4 45 -4 62 1 62 36 -3 51 15 41 50 -7 21 -6 34 1 38
7 4 8 2 4 -4 -4 -7 -3 -12 3 -12 5 0 11 5 13 10 2 7 11 5 23 -4 18 -13 18 -14
-5 -12 -24 1 -26 -4 -21 -44 1 -6 9 -5 21 2 10 7 17 14 15 17 -3 2 4 11 15 18
17 12 18 18 8 36 -10 20 -10 21 5 9 14 -12 19 -8 43 29 14 23 27 48 28 55 1 8
5 17 9 20 10 10 9 26 -1 20 -5 -3 -9 1 -9 9 0 13 3 13 18 -1 21 -19 43 -9 36
17 -3 10 0 22 5 26 7 3 8 1 4 -5 -5 -8 -2 -10 9 -6 13 5 13 9 3 22 -11 13 -10
15 4 9 21 -7 45 27 28 38 -8 5 -8 11 -1 19 7 9 7 16 0 23 -8 8 -5 14 11 23 12
6 19 18 16 25 -3 8 0 17 6 21 6 4 8 3 4 -4 -3 -6 1 -18 10 -27 9 -9 13 -19 10
-23 -4 -3 -11 0 -16 8 -9 13 -14 7 -11 -12 0 -4 -7 -4 -17 -1 -14 6 -15 4 -5
-8 6 -8 12 -17 12 -21 2 -15 16 -3 54 44 l37 47 -22 15 c-25 15 -56 26 -91 30
-39 5 -82 18 -96 30 -11 8 -13 8 -7 -1 10 -17 0 -16 -29 3 -14 9 -25 13 -25 9
0 -4 -6 -2 -14 4 -8 7 -22 13 -32 16 -11 2 -28 7 -38 11 -17 7 -17 5 3 -15 12
-12 27 -19 33 -15 7 5 8 3 3 -6 -6 -10 -4 -12 8 -7 9 3 21 -1 29 -11 9 -11 10
-14 1 -8 -8 4 -13 2 -13 -4 0 -12 -68 -6 -79 7 -3 3 4 3 16 0 13 -3 26 -1 29
4 3 5 -4 9 -15 9 -15 0 -19 4 -14 18 6 15 5 16 -12 2 -10 -8 -16 -10 -12 -3
11 19 -3 42 -24 38 -10 -2 -19 1 -19 7 0 6 -11 8 -27 4 -21 -5 -24 -4 -13 4
16 10 15 11 -37 13 -10 1 -22 6 -26 12 -5 5 -6 1 -2 -11 5 -19 2 -21 -21 -16
-16 3 -24 1 -21 -4 3 -6 -9 -11 -26 -11 -18 -1 -25 1 -17 3 46 16 46 16 25 25
-14 6 -10 7 15 3 32 -5 34 -4 20 10 -8 8 -24 17 -35 19 -11 2 -29 8 -40 12
-11 5 -34 9 -52 9 -20 0 -28 3 -20 8 8 5 7 8 -5 8 -9 0 -25 3 -35 7 -15 6 -16
5 -5 -9 11 -14 10 -16 -7 -11 -11 3 -17 11 -15 18 5 11 -62 35 -111 41 -10 1
-33 9 -74 25 -18 7 -26 7 -32 -3 -7 -10 -11 -10 -21 1 -11 11 -11 13 1 6 10
-5 12 -4 7 4 -4 6 -12 9 -17 5 -5 -3 -16 0 -24 6 -8 6 -19 9 -24 6 -5 -4 -13
-1 -16 5 -4 5 -13 8 -20 5 -8 -3 -19 2 -25 9 -10 12 -15 11 -31 -8 -10 -12
-18 -16 -19 -9 0 6 5 12 10 12 6 0 10 5 10 11 0 5 -4 7 -10 4 -5 -3 -10 -2
-10 3 0 9 -41 21 -87 25 -13 1 -23 6 -23 11 0 6 -6 2 -13 -9 -11 -14 -16 -15
-22 -5 -6 9 -4 11 5 5 8 -5 11 -3 8 5 -5 15 -30 27 -27 13 3 -19 -2 -33 -12
-33 -7 0 -9 10 -5 25 7 27 -2 32 -23 13 -11 -11 -13 -10 -8 5 4 9 2 17 -4 17
-6 0 -9 -8 -7 -17 2 -10 10 -17 16 -16 13 3 16 -9 5 -20 -3 -4 -12 1 -20 11
-12 14 -14 14 -10 1 3 -9 -1 -16 -8 -16 -15 0 -15 18 -1 28 12 9 -1 42 -13 34
-5 -3 -12 -1 -16 5 -3 5 -11 10 -16 10 -6 0 -8 -4 -5 -8 3 -5 -1 -9 -9 -9 -8
0 -13 5 -12 11 1 5 -2 10 -8 11 -5 0 -15 3 -21 7 -6 4 -21 9 -35 12 -13 2 -37
9 -53 15 -16 7 -35 10 -43 7 -7 -3 -13 -2 -13 3 0 5 -15 11 -34 13 -32 3 -34
2 -25 -17 9 -18 9 -19 -4 -3 -8 10 -17 15 -21 11 -4 -4 -4 -1 -1 8 8 20 -53
43 -72 27 -11 -9 -13 -8 -11 2 2 7 -3 15 -11 18 -8 2 -11 0 -8 -5 3 -5 -4 -9
-16 -8 -12 1 -26 -3 -30 -9 -6 -7 -7 -6 -4 4 2 8 9 15 14 15 6 0 15 3 19 8 7
6 -1 8 -58 12 -9 0 -20 4 -23 7 -4 4 -14 4 -23 1 -9 -4 -13 -2 -9 4 4 6 -2 13
-12 16 -11 3 -22 -1 -25 -9 -3 -8 0 -11 8 -8 8 3 17 0 22 -7 5 -9 2 -10 -9 -6
-10 3 -17 2 -17 -4 0 -5 -6 -4 -14 3 -8 7 -10 15 -5 18 4 3 4 12 0 19 -7 10
-10 9 -16 -8 -8 -27 12 -54 35 -48 9 2 17 -1 17 -8 0 -16 -32 -8 -50 13 -18
22 -30 55 -17 47 6 -3 10 -2 10 3 0 13 -59 34 -72 26 -6 -4 -15 0 -20 7 -7 10
-8 8 -4 -7 4 -13 2 -21 -7 -21 -7 0 -13 9 -13 20 1 14 -8 23 -28 28 -38 11
-47 4 -40 -29 4 -21 3 -24 -5 -11 -6 9 -24 22 -40 29 -16 6 -28 17 -25 24 3 7
-7 18 -21 24 -32 15 -38 15 -30 2 11 -17 -16 -11 -42 10 -14 11 -29 17 -33 15
-5 -3 -11 -1 -14 3 -3 5 -17 8 -30 7 -15 -2 -27 3 -31 13 -5 14 -7 14 -15 2
-6 -10 -3 -21 11 -36 15 -16 16 -21 5 -21 -8 0 -13 4 -11 8 3 3 -2 12 -10 19
-7 6 -11 19 -8 27 4 10 2 14 -4 10 -6 -4 -13 -2 -15 3 -2 6 -14 12 -28 14 -14
2 -38 9 -55 15 -16 7 -39 14 -50 15 -11 1 -28 6 -37 10 -9 4 -22 8 -30 10 -7
1 -19 5 -26 10 -7 4 -16 5 -19 2 -3 -3 -11 -2 -17 3 -14 12 -88 32 -82 22 3
-4 -5 -7 -17 -8 -12 0 -16 1 -9 4 15 6 6 23 -13 23 -7 0 -16 -8 -18 -17 -4
-14 -5 -12 -6 5 0 12 -5 22 -11 22 -5 0 -8 -6 -6 -12 1 -7 1 -10 -1 -5 -3 4
-9 5 -14 2 -5 -4 -6 1 -3 10 5 11 2 14 -11 9 -10 -4 -21 -1 -26 7 -6 10 -9 10
-9 2 0 -33 -20 -53 -48 -50 -24 1 -19 12 5 12 9 0 18 11 20 24 2 14 0 22 -3
18 -4 -4 -15 0 -25 9 -9 8 -29 16 -43 18 -14 1 -29 6 -33 9 -3 4 -13 7 -22 7
-14 0 -14 -2 -1 -10 12 -8 11 -10 -7 -10 -16 0 -21 4 -17 15 4 8 1 16 -5 16
-15 2 -23 4 -42 13 -9 4 -20 6 -25 4 -5 -1 -18 3 -29 9 -11 6 -35 14 -54 18
-26 6 -32 4 -27 -6 4 -8 1 -7 -6 2 -15 19 -123 54 -112 38 4 -6 -5 -3 -19 6
-15 9 -30 14 -36 11 -5 -3 -11 -1 -13 6 -3 8 -7 6 -11 -5 -3 -9 -2 -17 3 -17
6 0 10 -4 10 -10 0 -5 -7 -7 -15 -4 -9 4 -15 0 -15 -7 0 -9 -3 -10 -8 -4 -10
15 -32 17 -32 3 0 -6 -3 -8 -6 -5 -4 4 -1 13 6 22 10 12 9 16 -4 21 -9 3 -13
10 -10 15 3 5 15 -2 26 -17 19 -23 22 -24 31 -9 6 12 5 21 -3 28 -10 9 -12 8
-6 -6 5 -15 -1 -13 -26 8 -18 15 -39 24 -50 22 -10 -3 -18 -1 -18 4 0 4 -7 6
-15 3 -8 -4 -15 -1 -15 5 0 7 -6 11 -12 10 -7 -1 -26 3 -41 9 -38 16 -38 16
-31 -13 4 -15 2 -25 -5 -25 -6 0 -8 6 -5 14 4 11 -1 14 -20 12 -14 -2 -23 1
-20 6 3 5 13 7 21 3 13 -4 14 -3 3 10 -13 16 -110 49 -118 40 -3 -3 -10 -1
-16 4 -21 16 -55 20 -49 6 4 -12 -14 -14 -37 -5 -3 1 -9 2 -15 0 -5 -1 -4 4 3
12 11 11 14 10 22 -2 7 -10 10 -11 10 -2 0 12 -14 20 -81 41 -47 15 -52 14
-45 -5 3 -8 2 -12 -4 -9 -6 3 -10 1 -10 -4 0 -19 5 -26 15 -23 6 2 7 0 2 -4
-15 -15 -43 -11 -43 7 0 10 4 15 8 13 4 -3 8 -1 8 4 0 6 -7 12 -15 16 -9 3
-12 12 -8 22 5 14 2 16 -20 12 -15 -3 -24 -1 -21 3 3 5 -5 10 -18 11 -26 1
-34 3 -63 12 -11 4 -24 6 -29 6 -5 -1 -12 3 -16 10 -5 7 -14 8 -33 1 -26 -10
-39 2 -14 13 6 3 1 3 -12 0 -16 -4 -21 -3 -17 5 5 7 -2 11 -17 11 -13 0 -39 7
-57 16 -30 16 -33 16 -42 0 -5 -9 -14 -16 -21 -16 -7 0 -6 4 3 10 11 7 11 10
2 10 -7 0 -10 5 -7 10 3 6 1 10 -4 10 -6 0 -11 -4 -11 -10 0 -5 -9 -2 -20 7
-22 19 -117 46 -131 37 -5 -3 -9 0 -9 6 0 6 -4 9 -9 5 -5 -3 -12 -1 -16 5 -9
15 -28 12 -19 -2 4 -7 -1 -6 -12 3 -22 19 -51 27 -76 21z"/>
<path d="M40806 19081 c-3 -5 -15 -7 -26 -4 -11 3 -28 2 -37 -2 -10 -4 -34 -9
-53 -11 -19 -2 -36 -8 -38 -14 -2 -5 -8 -8 -13 -5 -14 9 -79 -6 -94 -22 -9 -8
-15 -10 -15 -3 0 8 -6 8 -21 -1 -15 -8 -18 -14 -10 -22 14 -14 14 -37 1 -37
-5 0 -7 7 -4 15 4 10 0 15 -11 15 -9 0 -14 4 -10 10 3 5 -7 5 -25 -1 -16 -6
-33 -16 -37 -22 -4 -6 -1 -7 7 -2 9 5 11 4 6 -4 -6 -9 -12 -9 -24 1 -10 7 -14
8 -10 4 4 -5 0 -15 -10 -22 -16 -12 -16 -14 3 -27 19 -14 18 -15 -8 -10 -32 6
-33 10 -10 35 9 11 11 18 5 18 -7 0 -12 -5 -12 -12 0 -6 -3 -9 -6 -6 -3 4 -22
-5 -41 -18 -20 -13 -42 -24 -49 -24 -8 0 -14 -5 -14 -11 0 -5 5 -7 12 -3 6 4
8 3 5 -4 -4 -5 -15 -8 -25 -5 -11 2 -27 -7 -42 -24 -18 -19 -19 -23 -5 -13 18
14 19 13 8 -1 -7 -9 -9 -19 -5 -24 4 -4 -3 -2 -15 4 -21 11 -27 8 -24 -12 1
-5 -3 -6 -8 -2 -6 3 -47 -30 -91 -74 -48 -46 -77 -82 -71 -85 6 -4 11 -13 10
-19 0 -9 -2 -9 -6 1 -2 6 -12 12 -21 12 -15 0 -15 -2 -2 -10 12 -8 11 -10 -6
-10 -12 0 -27 -6 -33 -14 -10 -11 -8 -17 6 -26 17 -10 16 -11 -2 -5 -16 4 -32
-6 -63 -39 -41 -43 -54 -65 -30 -50 7 4 8 3 4 -5 -4 -6 -12 -9 -17 -6 -12 8
-12 -8 1 -21 7 -7 6 -11 -4 -11 -8 0 -13 4 -10 9 3 4 0 8 -5 8 -6 0 -11 -7
-11 -16 0 -8 -4 -13 -9 -10 -5 3 -12 -1 -15 -10 -9 -24 -7 -29 6 -16 7 7 16
12 22 12 5 0 1 -6 -9 -14 -11 -8 -24 -12 -31 -9 -8 3 -11 -9 -9 -39 l3 -44
-55 0 c-47 0 -59 -4 -77 -25 -12 -14 -30 -28 -39 -32 -20 -8 -23 -35 -4 -43 8
-3 14 -11 14 -19 0 -10 -4 -12 -12 -5 -18 15 -38 -9 -23 -27 9 -11 8 -13 -3
-11 -17 4 -43 37 -35 45 3 4 6 1 6 -5 0 -7 5 -12 10 -12 5 0 9 6 7 13 -1 6 4
11 11 10 6 -2 12 2 12 7 0 6 -5 10 -11 10 -5 0 -7 6 -3 13 4 6 -1 5 -12 -4
-10 -8 -31 -20 -46 -27 -28 -12 -38 -32 -16 -32 6 0 9 -3 6 -6 -4 -3 -15 -1
-27 5 -13 8 -22 8 -26 1 -4 -6 -11 -8 -16 -5 -5 4 -9 2 -9 -3 0 -5 -14 -9 -31
-10 -17 0 -38 -9 -46 -19 -8 -10 -11 -12 -7 -4 4 9 2 12 -7 9 -8 -3 -13 -11
-11 -17 1 -7 -2 -10 -8 -6 -6 3 -7 11 -4 17 6 9 -15 8 -85 -1 -2 -1 -1 -8 2
-16 4 -8 2 -17 -4 -20 -5 -4 -9 -3 -8 2 5 30 -32 43 -60 20 -12 -9 -13 -9 -7
1 4 6 2 12 -3 12 -6 0 -11 -4 -11 -9 0 -6 -9 -8 -20 -6 -11 2 -20 -2 -20 -8 0
-8 -4 -7 -9 2 -8 12 -12 12 -25 2 -9 -7 -13 -17 -10 -22 3 -5 -2 -6 -11 -2
-14 5 -14 8 -3 15 11 8 -15 7 -90 -4 -7 -1 -11 -7 -8 -14 3 -8 0 -11 -9 -7 -8
3 -12 10 -9 15 4 6 1 8 -7 6 -8 -3 -13 -11 -11 -17 3 -15 -15 -14 -21 2 -3 9
-8 8 -22 -3 -17 -13 -18 -13 -10 0 8 13 7 13 -8 1 -9 -7 -17 -10 -17 -7 0 4
-7 1 -15 -6 -29 -26 -40 -33 -55 -33 -8 0 -14 -5 -13 -12 2 -8 -5 -8 -24 2
-21 11 -30 11 -41 3 -22 -19 -41 -18 -47 2 -4 11 -12 17 -20 13 -8 -3 -12 -10
-8 -17 4 -6 0 -6 -9 2 -12 9 -18 10 -23 2 -4 -6 -5 -13 -2 -16 9 -9 177 -12
183 -3 3 5 10 9 15 9 6 0 7 -5 3 -12 -5 -8 -2 -9 11 -5 9 4 23 3 29 -2 6 -5
66 -12 132 -15 67 -3 133 -10 147 -15 20 -8 28 -7 34 3 7 12 10 12 21 0 10
-11 10 -14 0 -14 -8 0 -6 -5 5 -11 9 -5 22 -7 29 -3 7 5 8 3 3 -6 -6 -9 -2
-10 15 -5 14 4 20 3 16 -3 -6 -9 21 -27 37 -24 4 1 7 -2 7 -7 0 -5 9 -13 21
-16 12 -4 29 -13 38 -21 9 -8 20 -14 24 -13 5 0 15 -8 24 -18 9 -11 12 -12 8
-3 -4 8 8 -2 25 -22 18 -21 37 -38 43 -38 7 0 6 5 -3 11 -13 9 -13 10 0 6 8
-2 15 -10 15 -18 0 -8 13 -30 28 -49 27 -34 28 -34 21 -7 -5 23 -3 27 15 27
12 0 21 -4 21 -10 0 -5 -6 -7 -14 -4 -10 4 -13 -3 -11 -28 4 -49 4 -50 13 -44
5 3 9 -1 9 -9 0 -8 -5 -12 -10 -8 -5 3 -4 -4 2 -16 9 -16 9 -21 -1 -21 -9 0
-9 -3 2 -10 13 -9 13 -10 0 -10 -9 0 -11 -3 -5 -8 20 -14 11 -37 -13 -34 -12
2 -22 -2 -22 -8 0 -6 5 -8 12 -4 7 4 8 3 4 -5 -4 -6 -11 -9 -16 -6 -17 10 -40
-7 -36 -28 1 -12 -4 -28 -12 -36 -16 -17 -45 -25 -36 -10 3 5 0 9 -5 9 -6 0
-11 -4 -11 -10 0 -5 -8 -10 -17 -9 -11 0 -13 3 -5 6 17 7 5 23 -19 23 -13 0
-18 -4 -13 -12 4 -7 3 -8 -5 -4 -6 4 -9 12 -5 17 7 13 69 5 88 -10 10 -8 16
-5 24 14 l12 26 -63 -7 c-98 -11 -131 -11 -144 -1 -7 5 -24 6 -37 3 -18 -4
-23 -11 -19 -26 5 -19 6 -19 25 3 19 22 19 22 9 1 -8 -17 -7 -25 4 -34 20 -16
32 -5 16 14 -9 11 -9 16 0 22 7 4 9 3 5 -4 -3 -6 -1 -14 5 -17 5 -4 8 -13 5
-20 -5 -13 26 -49 35 -41 2 3 5 -11 5 -30 0 -18 -1 -32 -4 -30 -3 4 -36 -31
-70 -75 -11 -14 -9 -16 13 -16 16 0 25 5 26 16 0 10 2 11 6 4 2 -7 11 -13 19
-13 9 0 12 -4 9 -10 -3 -5 -1 -10 5 -10 7 0 10 6 7 14 -6 14 10 36 27 36 5 0
2 -6 -7 -12 -12 -9 -14 -17 -7 -28 9 -13 10 -13 10 0 1 12 3 11 11 -3 7 -12
17 -15 35 -11 17 4 24 2 24 -7 0 -8 20 -25 44 -38 25 -12 47 -29 50 -37 8 -20
26 -17 26 4 0 12 4 11 13 -8 8 -14 20 -24 27 -22 11 3 11 0 1 -12 -14 -16 0
-30 33 -31 10 0 20 -8 22 -18 1 -9 -2 -15 -7 -11 -5 3 -6 10 -3 16 4 6 -1 8
-12 6 -11 -2 -18 -10 -16 -17 1 -7 -2 -9 -8 -6 -7 4 -6 -2 2 -14 7 -12 18 -19
25 -17 7 3 15 1 18 -5 4 -5 3 -8 -2 -7 -4 2 -8 -1 -8 -7 0 -5 4 -9 8 -7 5 1 5
-3 2 -9 -7 -11 10 -54 32 -76 13 -15 27 -17 19 -4 -5 8 2 8 33 2 2 -1 -2 -7
-9 -15 -6 -8 -19 -12 -28 -9 -13 4 -12 2 3 -11 11 -10 14 -14 7 -11 -11 6 -12
3 -3 -14 7 -11 14 -21 17 -21 3 0 2 5 -2 12 -4 7 -3 8 4 4 6 -4 9 -13 6 -20
-3 -7 2 -19 10 -26 9 -7 13 -16 10 -21 -3 -5 0 -9 5 -9 6 0 10 -5 9 -12 -2 -7
6 -12 16 -13 11 0 20 -6 22 -13 1 -7 0 -8 -3 -2 -6 13 -23 13 -23 0 0 -16 44
-30 52 -16 4 6 8 7 8 1 0 -5 5 -3 10 5 8 13 10 12 10 -2 0 -10 5 -18 10 -18 6
0 9 3 8 8 -2 4 0 8 5 10 18 6 19 1 2 -18 -18 -20 -41 -28 -31 -11 3 5 -5 8
-19 7 -14 0 -23 -5 -21 -11 2 -5 9 -9 15 -7 6 1 10 -1 9 -6 -5 -13 41 -64 51
-58 5 3 8 -2 7 -11 -3 -20 97 -123 120 -123 8 0 13 -3 12 -7 -2 -5 1 -9 7 -10
5 -1 13 -11 17 -23 6 -16 12 -19 21 -12 7 6 20 6 32 1 18 -9 18 -9 -2 -5 -27
5 -29 0 -8 -20 8 -9 15 -11 15 -5 0 6 5 11 11 11 6 0 9 -6 6 -14 -3 -8 2 -20
11 -28 13 -11 15 -11 8 2 -4 8 -1 7 7 -3 15 -18 15 -18 20 0 4 14 5 14 6 -4 1
-24 15 -31 26 -13 3 6 0 10 -7 10 -10 0 -9 3 2 10 17 11 12 18 -18 23 -36 5
-33 13 4 12 34 0 35 -1 31 -33 -4 -22 0 -35 12 -43 14 -9 13 -10 -4 -5 -20 6
-20 6 0 -9 21 -17 42 -14 37 4 -1 7 2 10 7 7 5 -3 7 -14 5 -24 -4 -12 7 -22
41 -38 25 -12 48 -17 51 -12 3 4 14 3 25 -2 11 -6 24 -8 30 -5 5 4 17 1 25 -6
11 -9 18 -9 22 -2 8 12 25 -3 30 -27 5 -19 23 -42 30 -36 2 3 17 -1 33 -9 31
-17 52 -20 29 -5 -10 7 -11 10 -2 10 7 0 15 -7 18 -15 7 -17 25 -21 22 -4 -2
6 5 13 15 14 9 2 15 0 12 -5 -3 -5 3 -16 12 -26 12 -11 18 -13 21 -5 3 9 8 9
17 1 7 -6 21 -12 31 -14 11 -2 32 -7 48 -12 21 -5 27 -4 22 5 -4 6 -13 8 -19
4 -7 -4 -6 0 2 10 7 9 19 17 25 17 7 0 6 -3 -2 -8 -9 -7 -7 -13 9 -28 14 -12
19 -13 14 -4 -8 13 -7 13 9 0 15 -12 51 -15 176 -14 96 0 164 4 172 11 7 6 26
8 41 6 17 -2 26 0 23 6 -4 5 8 10 26 9 18 0 44 2 58 5 14 2 32 5 41 6 8 0 23
7 34 14 17 13 17 14 -1 12 -18 -2 -48 -12 -67 -23 -5 -2 -3 5 4 15 12 20 61
25 87 9 6 -4 12 -3 12 2 0 6 9 8 20 5 14 -4 22 1 28 18 6 15 11 18 16 11 11
-18 36 -14 37 6 0 9 3 12 5 5 4 -8 13 -9 35 -1 29 10 35 19 22 31 -3 4 -15 -1
-26 -10 -19 -17 -19 -17 -16 2 5 24 27 27 53 6 18 -15 19 -15 12 3 -5 16 -4
17 9 6 11 -9 15 -9 15 -1 0 7 5 9 10 6 11 -7 118 50 138 74 9 11 11 11 6 2 -5
-10 -3 -12 5 -7 7 5 10 14 7 22 -3 9 0 11 11 7 12 -5 14 -3 8 7 -5 9 -4 11 4
6 18 -11 64 22 57 41 -5 13 -4 14 8 4 12 -10 17 -9 28 8 7 12 18 21 25 21 7 0
13 10 14 23 0 19 1 19 8 4 6 -17 8 -16 29 6 13 13 22 31 20 38 -2 8 4 13 13
11 16 -2 35 26 24 36 -3 3 -5 0 -5 -6 0 -7 -5 -12 -11 -12 -8 0 -8 4 1 14 6 8
17 13 25 10 7 -3 36 19 65 48 29 30 46 54 40 56 -7 3 -16 -2 -21 -9 -7 -12
-10 -12 -21 0 -10 11 -10 12 0 7 7 -4 15 -1 18 8 3 8 13 13 23 11 11 -2 24 8
36 31 10 19 23 31 29 27 6 -3 8 -3 4 2 -4 4 -3 14 4 22 6 7 9 16 6 19 -3 2
-19 -17 -37 -43 -17 -26 -31 -44 -31 -40 0 5 9 22 21 38 11 16 17 29 12 29 -4
0 3 7 15 16 12 8 28 12 35 9 6 -4 3 1 -8 10 -20 16 -20 16 0 13 11 -2 21 2 23
7 2 6 11 19 20 29 9 11 11 16 5 12 -8 -4 -13 -1 -13 8 0 9 6 13 13 10 8 -3 18
6 25 21 7 15 8 25 2 25 -6 0 -10 5 -10 10 0 6 5 9 12 8 7 -2 17 12 23 30 6 18
15 29 20 25 5 -5 3 0 -4 10 -12 15 -12 17 5 10 17 -6 18 -5 4 12 -8 10 -10 16
-4 12 7 -4 14 0 18 8 3 8 1 17 -4 20 -4 3 -10 0 -12 -7 -3 -7 -7 -8 -11 -2 -3
5 3 16 15 23 11 7 17 8 13 2 -3 -6 -2 -11 3 -11 5 0 12 9 15 20 5 21 -15 44
-28 32 -5 -4 -5 -1 0 6 5 10 10 11 18 3 6 -6 15 -11 21 -11 5 0 1 6 -9 14 -10
7 -27 11 -37 8 -14 -3 -18 1 -16 21 3 29 33 53 44 34 4 -6 4 -9 -1 -5 -4 4
-14 0 -21 -10 -18 -23 -17 -33 1 -26 8 4 22 1 29 -5 16 -14 23 -6 30 33 3 16
8 31 10 34 3 3 1 11 -5 19 -9 10 -7 13 6 13 12 0 16 6 12 20 -3 11 -1 23 4 26
5 3 9 12 9 20 0 8 -4 13 -8 10 -5 -3 -9 1 -9 9 0 8 5 13 10 12 6 -1 11 9 11
23 1 14 5 31 10 38 5 9 3 12 -7 10 -9 -2 -16 2 -16 7 -1 6 5 10 12 10 7 0 12
16 13 43 2 40 -9 56 -19 30 -4 -10 -6 -10 -6 0 -1 7 -5 10 -11 7 -6 -4 -10 13
-10 44 0 27 4 52 8 55 4 2 6 -11 4 -30 -5 -45 3 -65 24 -57 12 4 15 16 12 48
-1 24 1 41 5 38 10 -6 2 55 -8 65 -13 13 -24 -22 -12 -38 10 -13 10 -13 -5 -2
-14 11 -18 10 -27 -5 -9 -16 -10 -16 -8 4 0 12 6 21 11 20 5 -1 11 11 12 27 3
31 14 49 14 23 0 -10 5 -17 10 -17 13 0 13 57 0 65 -6 3 -7 -1 -4 -10 4 -10
-2 -8 -19 7 -16 15 -22 27 -16 34 5 6 5 14 -1 20 -5 5 -6 15 0 24 5 8 12 11
17 7 4 -5 1 -12 -7 -17 -11 -7 -12 -10 -2 -10 9 0 11 -7 7 -19 -6 -21 10 -38
20 -21 3 5 1 10 -5 10 -7 0 -8 6 -2 18 12 22 3 100 -9 81 -7 -11 -9 -11 -9 -1
0 7 -4 10 -10 7 -5 -3 -10 1 -10 9 0 9 6 13 15 10 12 -5 12 0 4 28 -6 18 -15
54 -19 80 -5 26 -14 57 -21 70 -8 13 -14 28 -14 33 -1 6 -7 9 -14 7 -8 -2 -11
3 -8 12 4 9 2 18 -3 21 -5 3 -7 12 -3 21 6 16 -28 48 -37 34 -3 -4 -11 -2 -18
6 -7 8 -8 14 -3 14 6 0 8 7 5 15 -4 8 -1 15 6 15 7 0 10 -8 7 -19 -3 -13 -1
-18 8 -14 10 3 7 17 -13 58 -15 29 -31 51 -36 48 -5 -4 -6 -1 -2 5 8 14 -33
84 -45 76 -6 -4 -6 -11 1 -19 14 -17 22 -57 9 -50 -5 4 -6 11 -3 17 5 7 0 9
-14 6 -16 -5 -20 -2 -17 14 3 14 0 18 -10 14 -8 -3 -15 -3 -15 0 0 2 12 9 26
14 24 10 29 38 6 33 -6 -2 -9 3 -6 10 2 7 -9 28 -26 47 -16 18 -30 38 -30 43
0 5 -6 4 -13 -2 -18 -14 -30 -2 -16 16 6 7 7 13 2 13 -5 0 -18 7 -29 16 -10 8
-12 13 -4 9 8 -4 2 6 -15 20 -16 15 -23 24 -15 20 8 -4 2 5 -14 21 -18 19 -30
25 -33 17 -4 -10 -8 -9 -19 1 -19 19 -18 27 4 20 10 -3 7 0 -6 8 -12 8 -29 24
-37 35 -10 15 -22 20 -33 16 -9 -3 -14 -3 -10 2 10 11 -32 46 -45 38 -6 -3 -7
-1 -3 5 9 15 -71 61 -95 55 -10 -3 -17 -9 -14 -13 3 -5 2 -11 -2 -13 -5 -3 -9
8 -10 25 0 21 2 26 8 17 6 -10 9 -10 9 -2 0 15 -52 43 -80 43 -12 0 -19 4 -16
9 3 5 -6 12 -22 16 -15 3 -36 14 -46 23 -12 10 -16 12 -11 3 5 -9 3 -12 -6 -9
-8 3 -13 11 -11 17 1 7 -2 10 -8 6 -5 -3 -10 -2 -10 4 0 8 -45 23 -67 22 -5 0
-19 7 -32 15 -17 12 -26 13 -34 5 -16 -16 -32 -13 -18 3 9 11 4 15 -26 22 -21
4 -42 9 -48 9 -5 1 -18 5 -28 10 -9 4 -28 4 -42 1 -16 -4 -34 -1 -48 9 -24 17
-47 20 -47 5 0 -5 6 -7 13 -4 8 3 19 -1 25 -9 9 -11 8 -14 -3 -14 -8 0 -12 4
-9 9 3 4 0 8 -5 8 -6 0 -11 -6 -11 -12 0 -9 -4 -8 -10 2 -6 10 -10 11 -10 3 0
-17 -12 -16 -36 3 -18 15 -18 15 2 5 20 -10 34 -6 34 10 0 13 -42 18 -60 6
-17 -10 -17 -12 -2 -24 14 -11 14 -13 2 -11 -21 4 -31 20 -20 33 7 8 -19 12
-90 12 -59 1 -102 -3 -106 -9 -4 -6 -10 -5 -15 3 -7 11 -9 9 -10 -6 -1 -11 -1
-24 0 -28 1 -5 -4 -5 -10 -2 -6 4 -9 16 -6 26 5 20 2 25 -7 10z"/>
<path d="M17047 19014 c-3 -3 -3 -13 -1 -22 5 -16 5 -16 -5 0 -10 15 -14 15
-48 -2 -21 -10 -42 -16 -47 -13 -5 4 -6 1 -2 -5 5 -8 -1 -11 -16 -10 -13 1
-41 -5 -63 -12 -22 -8 -43 -14 -47 -15 -3 0 -9 -3 -13 -7 -4 -4 -13 -4 -20 -2
-7 3 -16 0 -20 -5 -3 -6 -11 -8 -17 -5 -6 4 -9 1 -6 -7 3 -8 10 -14 16 -14 5
0 13 -2 16 -5 3 -4 -5 -6 -19 -6 -13 0 -23 5 -22 11 2 11 -73 10 -82 -2 -3 -5
-18 -8 -33 -9 -101 -4 -100 -4 -94 -20 5 -14 4 -15 -9 -4 -9 8 -24 10 -42 4
-16 -4 -44 -8 -63 -9 -19 -1 -39 -3 -45 -5 -5 -1 -26 -3 -45 -4 -25 -1 -34 -5
-32 -16 3 -12 1 -13 -9 -2 -15 14 -53 16 -44 2 3 -5 2 -10 -4 -10 -5 0 -12 6
-14 13 -4 9 -6 9 -6 0 -1 -7 -10 -17 -20 -22 -14 -8 -22 -7 -32 7 -11 14 -11
15 0 5 15 -13 41 -7 41 9 0 14 -99 1 -119 -15 -12 -10 -13 -9 -7 1 5 9 -1 12
-23 10 -17 -1 -31 -6 -31 -11 0 -5 9 -7 20 -4 11 3 18 2 16 -2 -3 -4 -36 -8
-73 -8 -62 0 -64 1 -23 7 l45 7 -40 2 c-22 2 -53 5 -70 7 -24 4 -27 2 -15 -7
12 -9 12 -10 -5 -4 -34 11 -286 11 -281 0 2 -5 -7 -11 -21 -11 -22 -2 -23 -1
-6 11 17 13 17 13 -2 12 -11 -1 -26 -8 -33 -14 -7 -7 -32 -12 -55 -11 l-42 1
40 4 c22 3 43 7 47 11 9 9 -97 7 -111 -2 -6 -4 -11 -3 -11 2 0 5 -11 10 -25
10 -16 0 -22 -5 -18 -12 5 -7 2 -7 -8 1 -20 17 -108 13 -102 -4 3 -7 0 -13 -6
-13 -6 0 -11 6 -11 14 0 20 -23 26 -103 25 -60 -1 -66 -3 -55 -16 8 -10 14
-11 16 -4 5 16 22 14 22 -3 0 -18 -25 -14 -51 8 -17 14 -40 17 -155 15 -98 -1
-132 -4 -127 -13 5 -8 3 -8 -8 0 -8 6 -41 11 -74 10 -48 -1 -59 -4 -57 -16 3
-12 1 -13 -9 -2 -15 14 -85 16 -94 2 -3 -5 -12 -10 -18 -10 -7 0 -6 4 3 10 10
7 -9 10 -62 10 -42 0 -80 -4 -83 -10 -5 -7 -50 -7 -50 0 0 1 -10 3 -22 6 -13
2 -23 -1 -23 -7 0 -5 -5 -7 -11 -3 -10 6 -49 7 -145 5 -14 -1 -23 -5 -20 -10
3 -5 -6 -8 -19 -8 -14 0 -25 3 -25 7 0 9 -151 10 -165 2 -16 -10 -36 -11 -29
-1 6 10 -39 13 -49 3 -6 -6 -62 -8 -381 -13 -91 -1 -97 -2 -85 -18 13 -15 12
-15 -8 -5 -27 15 -36 15 -28 2 3 -5 1 -10 -4 -10 -6 0 -11 6 -11 13 0 8 -4 7
-10 -3 -9 -13 -10 -13 -11 0 0 10 -3 8 -9 -5 -7 -17 -9 -17 -9 -2 -1 24 -16
21 -18 -4 -1 -12 1 -19 4 -15 3 3 13 0 21 -7 13 -9 14 -9 8 1 -4 7 -1 12 8 12
18 0 20 -8 7 -29 -8 -13 -12 -13 -26 -1 -11 9 -19 10 -23 3 -5 -7 -15 -7 -32
-1 -13 5 -20 12 -15 16 18 12 15 30 -5 35 -17 4 -19 1 -15 -25 4 -19 2 -27 -5
-23 -5 3 -10 1 -10 -6 0 -7 -3 -10 -6 -7 -3 4 -1 15 5 27 7 12 7 22 2 26 -5 3
-12 -3 -14 -12 -4 -17 -5 -17 -6 0 0 9 -8 17 -16 17 -11 0 -14 -7 -11 -26 5
-24 4 -25 -12 -11 -12 11 -22 13 -35 6 -9 -6 -15 -13 -13 -17 3 -4 -3 -8 -13
-8 -10 0 -18 7 -17 16 1 8 -5 14 -12 12 -8 -1 -11 2 -7 8 5 8 13 6 26 -6 17
-16 24 -13 20 9 -1 5 3 6 9 2 5 -3 10 -1 10 4 0 15 -41 14 -78 -2 -30 -12 -27
-26 8 -40 12 -4 12 -6 -1 -6 -8 -1 -25 9 -37 22 -15 16 -31 22 -54 21 -18 -1
-41 -2 -51 -3 -10 -1 -16 -4 -14 -8 3 -5 -1 -14 -8 -20 -11 -10 -15 -9 -20 7
-5 17 -12 19 -48 14 -23 -3 -47 -6 -54 -7 -7 0 -10 -4 -7 -8 2 -4 0 -10 -6
-14 -5 -3 -10 1 -10 9 0 9 -7 14 -17 12 -10 -2 -54 -7 -97 -11 -44 -4 -90 -11
-103 -16 -12 -4 -29 -6 -37 -3 -8 3 -17 0 -22 -7 -5 -8 -3 -10 6 -4 9 5 11 4
6 -4 -4 -6 -13 -8 -19 -4 -7 4 -21 9 -32 10 -14 2 -16 0 -7 -5 10 -7 10 -11
-2 -21 -8 -7 -12 -20 -9 -29 4 -13 2 -13 -9 2 -15 19 -15 19 -26 0 -9 -16 -13
-17 -24 -5 -7 8 -8 11 -2 8 6 -4 19 2 29 13 10 11 23 17 29 13 6 -3 8 -2 3 2
-12 14 -47 16 -47 2 0 -8 -4 -7 -10 3 -9 15 -11 13 -14 -12 0 -7 -7 -14 -13
-14 -26 -3 -28 -5 -13 -14 8 -5 11 -10 5 -10 -5 0 -16 4 -23 9 -11 6 -10 10 5
16 10 5 23 7 28 6 6 -1 5 2 -1 9 -7 7 -19 8 -36 1 -14 -5 -29 -7 -32 -4 -5 6
-10 -12 -7 -29 0 -4 -6 -5 -15 -1 -13 5 -13 8 -2 15 9 7 5 8 -12 4 -14 -3 -32
-6 -40 -7 -10 0 -8 -3 5 -9 16 -7 17 -9 3 -9 -9 -1 -20 4 -23 9 -4 7 -12 7
-25 0 -10 -5 -28 -10 -39 -10 -12 0 -21 -5 -21 -11 0 -6 -9 -8 -20 -4 -13 4
-20 2 -20 -6 0 -7 -3 -10 -6 -6 -4 3 -13 0 -21 -8 -18 -18 -37 -20 -27 -2 6 8
3 8 -9 -1 -9 -8 -22 -10 -28 -6 -9 5 -11 1 -7 -13 6 -21 -13 -26 -29 -8 -4 4
-2 5 5 1 6 -4 12 -2 12 4 0 8 -7 9 -17 5 -10 -4 -36 -14 -58 -22 -22 -8 -46
-19 -52 -25 -7 -6 -13 -7 -13 -4 0 4 -6 1 -14 -6 -7 -7 -11 -20 -8 -28 2 -8
-2 -6 -11 5 -8 11 -19 16 -23 12 -5 -4 -3 -12 5 -16 10 -7 9 -9 -3 -14 -8 -3
-18 -1 -22 5 -5 7 -2 8 6 3 8 -5 11 -4 6 3 -4 7 -32 -2 -79 -25 -84 -41 -81
-39 -72 -53 4 -7 16 -2 32 16 20 22 27 24 34 13 5 -8 9 -18 9 -24 0 -5 -4 -4
-9 4 -5 7 -14 10 -21 6 -9 -6 -9 -10 1 -17 11 -8 10 -9 -3 -4 -10 3 -20 1 -24
-5 -4 -6 -13 -4 -25 7 -17 15 -23 13 -20 -8 0 -4 -6 -5 -13 -2 -12 5 -176 -91
-176 -103 0 -3 9 -18 21 -34 11 -16 16 -29 10 -29 -6 0 -11 4 -11 9 0 4 -11 7
-25 6 -14 -2 -23 1 -20 5 3 5 12 7 20 3 20 -7 19 11 -2 28 -11 10 -14 10 -9 2
4 -8 2 -13 -7 -13 -14 0 -67 -41 -67 -52 0 -3 10 -4 23 -2 20 4 20 4 2 -5 -12
-5 -25 -5 -32 1 -12 10 -17 4 -14 -14 0 -5 -5 -7 -12 -5 -7 1 -11 -7 -10 -20
3 -23 -12 -32 -19 -12 -4 12 -118 -87 -118 -103 0 -5 -7 -16 -15 -25 -8 -8
-12 -19 -9 -25 4 -7 2 -8 -5 -4 -14 9 -37 -8 -53 -37 -8 -17 -8 -19 5 -14 10
4 18 -1 22 -14 7 -21 27 -27 22 -6 -1 6 4 11 11 10 21 -5 13 15 -9 22 -15 5
-18 10 -11 17 8 8 16 6 26 -5 20 -19 20 -34 2 -53 -19 -18 -30 -18 -46 1 -18
21 -28 19 -61 -14 -29 -29 -39 -61 -18 -61 5 0 7 6 3 13 -5 9 -4 9 6 0 9 -9
19 -9 32 -2 17 9 18 8 9 -9 -11 -21 -42 -20 -69 1 -10 8 -12 4 -8 -17 3 -14 1
-24 -3 -22 -9 6 -36 -10 -36 -21 0 -4 -13 -25 -28 -45 -17 -22 -26 -42 -21
-50 10 -16 12 -58 2 -52 -4 3 -8 15 -9 27 0 15 -2 17 -6 7 -4 -8 -12 -19 -18
-25 -13 -10 -85 -142 -85 -153 0 -4 5 0 10 8 5 8 10 11 10 5 -1 -17 -27 -45
-35 -37 -5 4 -5 1 0 -7 5 -9 3 -18 -6 -25 -8 -6 -20 -22 -27 -35 -49 -86 -51
-90 -39 -95 7 -2 4 -5 -5 -5 -17 -1 -23 -13 -19 -35 1 -4 -5 -13 -14 -20 -8
-6 -17 -21 -19 -33 -3 -12 -14 -31 -26 -43 -11 -11 -18 -25 -15 -30 3 -4 1
-10 -4 -12 -4 -1 -24 -32 -43 -68 -19 -36 -44 -81 -56 -100 -25 -40 -28 -55
-9 -44 7 4 9 3 4 -2 -5 -5 -13 -9 -18 -9 -5 0 -9 -4 -10 -10 0 -5 -10 -20 -21
-32 -12 -13 -18 -23 -15 -23 4 0 -1 -8 -11 -18 -11 -11 -25 -33 -33 -50 -8
-18 -17 -32 -20 -32 -10 0 -49 -69 -53 -93 -2 -14 -9 -21 -20 -19 -9 2 -16 -4
-16 -13 0 -8 -5 -15 -11 -15 -5 0 -7 -4 -4 -10 3 -5 0 -10 -7 -10 -7 0 -22
-15 -34 -33 -20 -31 -22 -57 -3 -57 5 0 8 6 7 13 -2 6 3 11 10 9 6 -1 12 2 12
8 0 5 -5 10 -12 10 -6 0 -9 3 -5 6 8 8 41 -18 45 -35 2 -11 0 -12 -11 -3 -20
17 -42 -8 -24 -27 9 -10 9 -12 -3 -9 -8 2 -21 11 -28 20 -15 20 -39 14 -47
-13 -4 -11 -9 -17 -13 -15 -9 5 -39 -26 -33 -34 19 -22 27 -27 36 -22 6 3 7 1
2 -3 -11 -13 -45 -16 -52 -5 -3 6 2 7 12 4 15 -5 15 -4 3 5 -11 8 -21 4 -42
-16 -15 -14 -25 -31 -21 -36 3 -6 1 -7 -5 -3 -6 3 -21 -8 -34 -25 -13 -16 -43
-51 -68 -76 -25 -25 -38 -42 -30 -37 8 4 -7 -14 -35 -40 -27 -26 -44 -44 -36
-40 10 5 11 1 6 -15 -3 -11 -2 -21 3 -21 5 0 9 -7 9 -16 0 -15 -1 -15 -12 -1
-10 15 -13 15 -27 1 -12 -12 -17 -13 -23 -3 -6 8 -4 10 5 4 9 -5 11 -4 6 4 -4
7 -2 10 5 9 6 -2 13 3 14 10 2 7 1 8 -2 2 -2 -5 -8 -8 -12 -6 -4 3 -23 -11
-42 -31 -19 -21 -27 -34 -19 -29 8 4 -4 -10 -27 -32 -44 -41 -54 -58 -28 -48
9 3 15 0 15 -10 0 -11 -5 -12 -17 -6 -22 12 -43 5 -43 -14 0 -16 26 -19 33 -4
3 6 4 5 3 -2 -4 -17 -37 -23 -46 -8 -5 7 -18 -2 -39 -29 -18 -23 -29 -46 -25
-52 4 -7 3 -9 -4 -5 -18 11 -74 -44 -68 -67 3 -14 2 -17 -5 -10 -7 7 -24 -4
-52 -36 -23 -25 -45 -47 -49 -49 -5 -2 -8 -12 -8 -23 0 -13 -5 -17 -17 -12
-11 4 -14 3 -9 -5 4 -7 3 -12 -3 -12 -6 0 -9 -6 -7 -12 1 -7 1 -10 -1 -5 -9
15 -21 5 -69 -55 -26 -34 -42 -58 -35 -53 10 5 12 4 7 -4 -4 -6 -12 -9 -17 -6
-5 4 -30 -15 -55 -42 -25 -26 -83 -87 -130 -135 -46 -48 -84 -89 -84 -91 0 -3
9 -3 20 0 12 3 20 0 20 -6 0 -7 6 -9 13 -5 6 4 8 3 4 -1 -11 -13 -38 -15 -31
-3 4 6 -2 8 -17 3 -31 -10 -32 -11 -24 -25 6 -9 10 -9 16 1 7 11 9 11 9 -2 0
-11 -9 -16 -30 -16 -24 0 -44 -12 -85 -53 -30 -29 -51 -58 -48 -64 12 -19 10
-43 -3 -43 -10 0 -10 5 -2 21 12 24 13 25 -147 -130 -55 -53 -119 -110 -142
-126 -24 -16 -43 -34 -43 -39 0 -6 -4 -8 -9 -5 -5 4 -23 -5 -39 -19 -16 -13
-32 -22 -35 -18 -4 3 -9 -2 -13 -11 -3 -9 -10 -13 -15 -10 -11 6 -90 -17 -84
-26 6 -10 -238 -9 -257 1 -10 6 -19 5 -23 -1 -4 -6 -11 -8 -16 -4 -5 3 -7 9
-4 14 6 10 -42 23 -56 15 -5 -4 -12 0 -15 9 -3 8 -11 13 -18 10 -7 -3 -20 4
-29 14 -10 11 -28 17 -47 16 -16 -1 -28 2 -25 7 3 4 13 6 23 2 9 -3 3 4 -13
15 -17 10 -39 31 -48 45 -11 18 -23 24 -35 21 -14 -5 -15 -4 -2 5 9 7 11 14 5
19 -5 4 -11 14 -13 22 -2 8 -8 17 -13 18 -5 2 -6 9 -3 14 5 7 2 8 -7 3 -22
-14 -50 -14 -39 1 8 8 6 13 -5 18 -11 4 -14 13 -10 25 3 11 1 22 -5 26 -6 3
-8 11 -4 16 4 6 11 6 20 -2 10 -8 11 -16 3 -31 -8 -16 -8 -23 2 -29 8 -5 17
-3 22 4 5 7 6 2 2 -13 -5 -23 -5 -23 6 -6 9 15 9 24 0 38 -6 10 -9 23 -6 28 4
6 2 10 -3 10 -5 0 -9 10 -9 23 -1 49 -2 53 -13 37 -6 -9 -10 -10 -10 -3 0 6 5
15 10 18 7 4 7 13 0 26 -6 10 -8 19 -4 19 3 0 1 7 -6 15 -7 8 -9 15 -5 15 4 0
2 6 -4 13 -6 8 -8 17 -4 20 3 4 1 7 -6 7 -7 0 -11 6 -8 13 2 7 -6 30 -19 52
-13 22 -29 53 -35 68 -8 20 -16 26 -30 22 -14 -5 -17 -2 -14 15 3 16 0 20 -10
17 -7 -3 -18 0 -24 7 -8 9 -6 12 7 11 9 0 23 -4 30 -9 17 -10 28 22 15 43 -7
12 -6 19 5 27 12 9 16 38 18 140 4 160 -2 201 -26 209 -13 4 -17 12 -13 22 6
14 8 14 15 -3 5 -12 6 -4 3 21 -3 21 -9 42 -13 45 -4 3 -8 16 -10 30 -3 25
-20 42 -35 33 -5 -3 -3 5 5 16 11 18 11 23 0 30 -8 4 -13 11 -13 15 2 17 -1
22 -20 34 -12 8 -18 9 -15 3 4 -7 1 -8 -8 -5 -8 3 -12 12 -9 20 3 8 10 11 17
8 6 -3 2 2 -8 10 -14 11 -22 13 -27 5 -4 -8 -8 -7 -11 2 -6 18 -74 21 -88 4
-7 -9 -8 -15 0 -20 5 -3 10 -12 10 -18 0 -8 -3 -7 -9 2 -5 7 -14 11 -20 7 -14
-9 -7 -96 9 -106 6 -4 11 -11 9 -15 -4 -13 52 -76 61 -70 6 4 7 -2 3 -12 -3
-10 -2 -15 2 -11 12 11 40 -33 37 -55 -4 -23 29 -20 35 3 4 12 3 12 -5 1 -7
-9 -12 -10 -16 -2 -4 6 -1 11 6 11 10 0 9 3 -2 10 -8 5 -12 12 -8 15 3 3 15
-6 26 -20 13 -17 22 -21 25 -13 3 7 4 3 4 -9 -1 -14 -7 -20 -17 -18 -9 2 -23
-1 -31 -6 -11 -7 -11 -9 -1 -9 7 0 10 -5 7 -11 -4 -6 1 -17 11 -25 11 -9 13
-12 5 -8 -11 6 -13 2 -7 -17 4 -13 7 -34 7 -46 0 -13 4 -23 9 -23 6 0 8 11 6
25 -3 14 0 25 5 25 5 0 9 -18 7 -40 -2 -33 -4 -37 -17 -27 -12 9 -13 9 -7 0 4
-7 8 -42 8 -78 1 -36 5 -68 10 -71 5 -3 6 -10 3 -15 -4 -5 -2 -9 4 -9 5 0 11
3 14 8 2 4 2 1 0 -7 -2 -8 2 -11 10 -8 8 3 14 0 14 -7 0 -7 -6 -13 -14 -13 -7
0 -13 4 -13 9 0 4 -4 8 -10 8 -15 0 -4 -59 15 -80 10 -11 15 -20 10 -20 -4 0
-1 -8 6 -17 13 -17 13 -17 -5 -3 -18 14 -19 13 -13 -3 4 -10 7 -21 7 -23 0 -3
5 -2 12 2 8 5 9 2 5 -9 -3 -9 -1 -19 5 -23 6 -4 8 -3 4 4 -3 6 -2 13 3 16 11
7 9 -13 -2 -31 -10 -16 5 -17 19 -3 7 7 11 6 11 -4 0 -8 -4 -14 -8 -13 -7 2
-9 -3 -9 -22 0 -5 15 -18 33 -30 17 -11 27 -21 21 -21 -5 0 -16 6 -24 13 -8 6
-6 2 4 -10 11 -13 16 -23 12 -23 -4 0 8 -14 26 -31 21 -20 25 -27 11 -20 -12
6 -23 16 -26 23 -2 7 -5 -9 -5 -36 -1 -27 -4 -51 -7 -54 -2 -3 1 -12 8 -20 8
-11 8 -14 0 -9 -6 4 -25 -4 -41 -18 -16 -14 -35 -25 -41 -25 -6 0 -9 -6 -7
-12 1 -7 1 -10 -1 -5 -3 4 -9 5 -14 2 -5 -4 -6 1 -3 9 4 11 0 16 -13 16 -11 0
-30 12 -44 28 -27 31 -89 130 -89 143 0 5 -4 9 -10 9 -5 0 -10 9 -10 20 0 11
-5 20 -10 20 -6 0 -9 3 -8 8 3 15 -15 62 -24 62 -5 0 -6 -4 -3 -10 3 -6 -1 -7
-9 -4 -9 3 -13 10 -10 15 2 5 0 18 -6 29 -8 15 -8 25 -1 34 6 7 8 16 4 20 -4
3 -8 16 -10 28 -2 12 -7 25 -11 28 -4 3 -9 16 -10 30 0 14 -6 26 -11 28 -5 2
-8 9 -5 17 3 7 1 16 -5 20 -6 3 -11 17 -11 31 0 14 -7 27 -15 30 -8 4 -15 10
-15 16 0 5 4 7 10 3 5 -3 5 7 -1 27 -6 18 -13 39 -15 47 -3 9 -8 10 -17 3 -10
-8 -13 -6 -13 7 0 12 6 17 16 14 9 -3 8 0 -4 7 -13 9 -15 14 -6 20 9 6 9 12 0
30 -10 18 -14 20 -21 9 -6 -9 -9 -10 -9 -2 0 6 5 15 10 18 18 11 11 38 -8 33
-11 -3 -19 0 -19 8 0 7 4 12 8 11 4 -1 7 1 8 6 3 20 0 28 -8 22 -6 -3 -8 4 -6
15 2 11 -7 33 -23 52 -15 18 -21 29 -14 24 18 -11 15 5 -5 21 -10 8 -12 11 -4
7 9 -5 12 -3 7 5 -4 6 -12 8 -18 5 -7 -5 -9 -1 -5 9 3 10 2 17 -3 17 -5 0 -11
-8 -13 -17 -3 -10 -4 -6 -4 9 1 16 6 24 12 20 5 -3 2 5 -7 18 -9 14 -21 24
-26 23 -6 -1 -9 5 -7 15 3 21 -44 90 -68 98 -9 3 -15 10 -12 15 8 12 -31 53
-43 46 -5 -4 -9 0 -9 7 0 21 -46 75 -60 71 -7 -2 -10 2 -6 11 3 7 1 14 -5 14
-6 0 -27 18 -47 39 -22 23 -43 37 -52 34 -7 -3 -13 -2 -12 3 4 22 -2 26 -14
10 -7 -10 -21 -17 -31 -15 -16 4 -16 5 -1 24 9 11 14 15 11 8 -4 -6 -2 -14 4
-18 17 -11 11 21 -8 38 -15 13 -21 14 -32 4 -10 -10 -12 -8 -6 7 7 19 6 19
-14 1 -11 -10 -20 -13 -20 -7 0 7 5 12 10 12 6 0 10 5 10 11 0 6 -9 8 -22 4
-18 -5 -20 -4 -8 4 13 10 12 14 -9 30 -37 29 -143 82 -135 68 4 -6 -2 -4 -13
6 -11 9 -27 17 -35 17 -9 0 -19 7 -22 16 -4 11 -13 14 -27 11 -12 -3 -18 -3
-15 1 9 8 -105 61 -121 55 -7 -3 -20 2 -29 11 -8 9 -20 14 -25 11 -4 -3 -22 1
-40 10 -17 9 -37 14 -45 11 -8 -3 -14 0 -14 6 0 6 -3 8 -6 5 -4 -3 -15 -2 -26
4 -14 7 -23 7 -34 -2 -12 -10 -15 -10 -12 1 3 15 -38 26 -94 25 -20 -1 -34 3
-32 7 3 4 -2 8 -11 8 -10 0 -13 -5 -9 -12 5 -8 0 -7 -11 2 -10 8 -16 10 -12 4
4 -7 -5 -11 -26 -11 -18 0 -24 2 -14 4 24 6 22 22 -3 20 -11 -1 -20 -6 -20
-12 0 -5 -4 -4 -9 3 -4 7 -12 12 -17 11 -5 -1 -11 0 -14 1 -3 2 -28 4 -57 5
-36 1 -50 -2 -46 -9 4 -6 0 -5 -9 1 -14 12 -106 10 -145 -2 -7 -3 -13 0 -13 5
0 5 -39 7 -92 5 -132 -7 -129 -6 -115 -25 8 -10 5 -9 -9 3 -22 18 -44 23 -44
8 0 -5 -9 -11 -20 -14 -11 -3 -20 -1 -20 4 0 5 -8 9 -17 9 -15 0 -16 -2 -3
-10 12 -7 10 -9 -7 -7 -12 0 -20 4 -18 7 5 8 -113 -7 -135 -16 -8 -4 -35 -8
-58 -10 -24 -2 -50 -8 -58 -15 -8 -6 -14 -8 -14 -3 0 5 -10 -2 -21 -16 -15
-18 -19 -20 -15 -7 5 15 1 18 -17 15 -12 -2 -22 -9 -22 -15 0 -7 -4 -13 -10
-12 -5 1 -9 5 -7 10 4 15 -25 10 -38 -6 -7 -8 -18 -15 -24 -15 -6 0 -4 5 4 10
13 8 12 10 -2 10 -10 0 -18 -4 -18 -10 0 -5 -6 -7 -14 -4 -7 3 -31 -2 -52 -12
-37 -16 -46 -19 -70 -22 -19 -3 -105 -87 -109 -107 -2 -11 -4 -20 -5 -20 -10
0 -5 -65 6 -82 16 -26 71 -40 87 -23 9 9 7 11 -9 6 -12 -4 -31 -3 -44 2 -19 7
-14 9 23 9 37 0 47 -4 45 -16 -2 -13 7 -16 47 -16 34 0 49 4 48 12 -2 7 4 10
13 6 13 -5 13 -7 2 -14 -10 -7 -9 -9 4 -9 9 0 19 6 21 13 4 10 6 10 6 0 1 -8
14 -13 34 -13 24 0 28 3 17 10 -9 6 -10 10 -3 10 6 0 15 -5 18 -10 4 -6 11 -8
16 -4 6 3 5 12 -3 21 -12 15 -11 15 9 3 12 -8 19 -18 17 -22 -3 -4 6 -4 19 1
14 6 27 7 31 4 3 -3 13 -2 23 2 10 5 26 9 36 10 9 2 18 4 20 5 1 1 24 4 51 6
27 3 55 9 62 15 7 6 18 8 24 4 6 -4 17 -1 25 5 8 6 18 9 23 6 5 -3 9 1 9 8 0
14 -34 15 -57 2 -12 -7 -13 -7 -2 5 7 8 18 14 25 14 7 1 11 6 9 13 -1 9 6 7
23 -4 14 -9 23 -20 20 -24 -3 -5 3 -7 12 -5 19 3 19 25 0 37 -8 5 -4 8 9 8 17
0 21 -5 19 -25 -2 -14 0 -25 5 -25 13 0 30 26 23 34 -4 4 0 4 10 0 9 -3 14
-10 11 -15 -9 -15 14 -10 30 7 10 10 16 11 16 4 0 -8 8 -10 22 -5 13 4 33 6
46 6 13 -1 20 4 17 9 -3 6 1 10 10 10 10 0 13 -5 9 -12 -5 -8 -2 -9 12 -4 10
4 73 10 139 13 156 6 160 7 160 26 0 9 4 16 9 16 5 0 13 5 17 13 8 11 10 11
18 0 4 -8 12 -13 17 -13 5 0 9 -7 9 -16 0 -18 4 -19 150 -27 55 -3 109 -7 120
-10 11 -2 25 1 32 6 15 12 36 1 27 -14 -5 -7 0 -9 14 -6 12 4 24 2 27 -2 6 -9
24 -8 43 4 8 4 11 3 10 -4 -2 -7 7 -16 20 -21 15 -6 21 -5 17 1 -3 6 -2 10 4
10 5 0 13 -5 17 -11 4 -8 14 1 25 22 10 19 18 30 19 26 0 -5 -4 -16 -9 -25
-13 -25 12 -55 48 -56 16 -1 27 -4 24 -8 -4 -7 11 -12 29 -9 3 0 38 -17 76
-38 48 -26 74 -35 81 -28 12 12 45 1 36 -13 -5 -8 -11 -7 -21 1 -10 8 -14 8
-14 0 0 -6 6 -12 13 -12 6 -1 17 -2 22 -4 6 -1 16 -3 23 -3 7 -1 11 -6 8 -11
-3 -5 19 -27 48 -49 40 -30 56 -37 60 -26 3 7 1 16 -4 19 -4 3 -11 -1 -13 -7
-4 -8 -6 -9 -6 -2 -1 6 7 18 16 25 13 11 15 11 9 1 -6 -11 -1 -12 24 -8 25 4
30 2 21 -7 -7 -7 -17 -12 -24 -12 -18 0 -14 -46 6 -59 14 -9 20 -8 27 4 5 8
10 10 10 5 0 -6 -6 -17 -12 -24 -8 -9 -8 -11 -2 -8 7 4 14 -3 18 -16 3 -12 16
-33 28 -47 13 -14 34 -48 48 -77 25 -52 42 -69 37 -35 -1 9 -6 22 -10 29 -4 6
-2 15 4 19 7 4 9 3 6 -3 -4 -6 0 -16 8 -23 7 -6 11 -18 9 -25 -3 -7 0 -24 6
-37 10 -21 10 -22 -4 -4 -14 18 -15 18 -13 -3 1 -11 5 -21 9 -21 4 0 7 -3 6
-7 -5 -25 16 -122 28 -127 8 -3 14 -10 14 -16 0 -6 -4 -9 -8 -6 -4 3 -9 -13
-9 -36 -1 -32 3 -41 18 -45 10 -3 17 -9 14 -13 -3 -5 2 -16 11 -24 24 -24 3
-19 -23 6 l-23 21 0 -21 c0 -11 8 -26 18 -32 16 -11 16 -11 0 -6 -19 6 -22 -2
-12 -28 3 -9 10 -13 15 -10 5 3 9 0 9 -6 0 -7 -7 -10 -15 -7 -8 4 -17 2 -21
-4 -3 -6 -8 -130 -10 -277 -4 -281 -6 -311 -19 -332 -5 -8 -4 -11 3 -6 6 3 13
2 17 -4 3 -5 -3 -10 -13 -10 -16 0 -19 -5 -15 -22 4 -19 3 -20 -6 -8 -7 10
-11 11 -11 2 0 -13 -46 -57 -129 -123 -28 -22 -49 -44 -46 -49 2 -4 -4 -18
-15 -30 -16 -18 -17 -26 -8 -37 9 -11 8 -13 -2 -11 -7 2 -13 -7 -15 -19 -2
-25 10 -31 18 -10 4 9 6 9 6 -1 1 -7 -6 -15 -14 -18 -20 -8 -19 -34 2 -64 16
-24 16 -24 0 -11 -15 12 -17 11 -17 -3 0 -9 5 -16 10 -16 6 0 10 -5 10 -11 0
-5 -4 -7 -10 -4 -15 9 -12 -8 5 -31 8 -10 14 -28 15 -39 0 -17 -2 -18 -11 -5
-9 12 -9 11 -3 -5 10 -26 11 -235 2 -235 -5 0 -8 -8 -8 -17 0 -10 -11 -54 -25
-98 -29 -92 -30 -99 -12 -90 6 4 2 -2 -10 -12 -18 -15 -30 -46 -23 -63 4 -13
8 -54 4 -42 -3 6 -9 12 -14 12 -9 0 -8 -12 4 -49 13 -39 13 -89 -1 -84 -8 3
-9 12 -3 27 5 14 3 30 -6 46 -7 14 -14 21 -14 15 -1 -5 -3 -18 -5 -28 -2 -9 1
-14 7 -11 6 4 2 -6 -8 -22 -11 -15 -13 -25 -6 -21 6 5 12 4 12 -2 0 -6 -4 -11
-9 -11 -15 0 -22 -32 -10 -46 9 -11 8 -14 -1 -14 -7 0 -10 -7 -6 -16 3 -8 2
-12 -4 -9 -6 3 -11 -3 -11 -14 -2 -30 -3 -34 -13 -50 -5 -8 -4 -16 5 -22 11
-7 11 -9 1 -9 -10 0 -10 -5 -2 -21 7 -11 9 -23 6 -27 -3 -3 -6 0 -6 6 0 7 -5
12 -11 12 -6 0 -9 -9 -6 -20 3 -11 1 -20 -4 -20 -8 0 -17 -23 -23 -66 -2 -10
2 -25 8 -33 8 -11 8 -13 -2 -7 -14 8 -26 -19 -35 -74 -3 -19 -13 -57 -21 -84
-20 -61 -20 -72 -2 -57 11 9 16 9 22 0 4 -7 3 -10 -2 -6 -16 10 -45 -20 -47
-49 -1 -16 -6 -33 -12 -37 -6 -5 -3 -7 7 -3 10 3 20 0 24 -6 4 -7 3 -8 -4 -4
-7 4 -12 2 -12 -4 0 -6 -4 -9 -9 -5 -10 5 -23 -24 -26 -60 -1 -11 -10 -37 -19
-58 -14 -32 -15 -42 -4 -55 7 -10 8 -14 4 -10 -10 9 -34 -32 -40 -68 -3 -17
-1 -22 7 -18 7 3 5 0 -4 -8 -14 -11 -37 -66 -43 -101 -1 -7 -8 -22 -14 -34 -7
-13 -10 -23 -6 -23 3 0 1 -7 -6 -15 -11 -13 -11 -18 0 -28 9 -9 11 -9 6 0 -3
6 -2 14 3 17 8 5 8 -15 1 -34 -1 -3 -2 -9 -1 -13 1 -5 -3 -6 -9 -2 -6 3 -8 11
-5 16 4 5 1 9 -5 9 -7 0 -9 -8 -5 -20 3 -11 2 -20 -3 -20 -6 0 -15 -14 -21
-30 -6 -18 -6 -28 -1 -25 17 11 11 -7 -7 -21 -16 -12 -16 -13 -2 -14 11 0 16
-8 15 -24 0 -13 -5 -22 -9 -19 -5 3 -6 11 -3 19 3 8 -1 14 -10 14 -11 0 -14
-6 -10 -16 4 -10 2 -13 -6 -8 -7 5 -9 -1 -6 -20 4 -20 0 -29 -14 -37 -11 -6
-17 -13 -15 -16 3 -3 -3 -19 -13 -36 -18 -28 -18 -33 -4 -48 15 -16 14 -17 -4
-12 -14 3 -22 -1 -27 -16 -3 -11 -4 -25 0 -30 3 -5 0 -13 -6 -17 -8 -5 -10 -2
-5 7 4 8 0 5 -8 -5 -9 -11 -16 -26 -16 -33 0 -24 -1 -28 -15 -43 -7 -8 -26
-42 -41 -75 -16 -33 -32 -62 -37 -63 -4 -2 -5 -8 -1 -13 3 -5 -1 -9 -8 -10 -7
0 -4 -4 7 -9 19 -8 19 -9 -2 -9 -19 -1 -20 -4 -10 -26 7 -14 15 -25 20 -25 13
0 8 -27 -8 -40 -10 -9 -15 -9 -15 -1 0 6 -5 11 -11 11 -5 0 -8 -4 -4 -9 3 -5
0 -13 -6 -17 -8 -4 -9 -3 -5 4 4 7 1 12 -6 12 -10 0 -10 2 1 9 7 5 9 11 4 14
-5 3 -15 -3 -22 -15 -10 -16 -10 -19 1 -13 7 5 3 -2 -10 -15 -13 -12 -21 -29
-18 -37 3 -8 2 -12 -3 -9 -5 3 -19 -13 -31 -35 -19 -38 -19 -41 -3 -34 10 4
24 8 31 8 15 0 15 10 1 24 -7 7 -7 13 -1 17 11 7 28 -32 18 -41 -3 -4 -1 -13
6 -20 9 -11 9 -17 -3 -24 -8 -5 -20 -9 -28 -9 -11 0 -10 5 4 20 16 18 16 20 2
20 -10 0 -17 -4 -17 -9 0 -6 -9 -8 -20 -6 -12 2 -24 -4 -30 -15 -12 -22 -13
-33 -2 -26 4 2 9 -6 10 -19 1 -18 -2 -23 -13 -19 -8 4 -12 11 -8 17 3 6 1 7
-6 3 -6 -4 -9 -12 -6 -17 4 -5 1 -9 -4 -9 -6 0 -11 -9 -11 -20 0 -11 -4 -20
-10 -20 -13 0 -38 -52 -33 -68 3 -6 9 -10 14 -6 5 3 9 0 9 -5 0 -14 -13 -14
-28 1 -16 16 -15 -3 2 -25 11 -14 15 -15 19 -5 3 7 4 -4 2 -26 -3 -21 -9 -44
-16 -52 -15 -18 -66 -43 -73 -36 -10 10 15 31 30 25 20 -8 46 17 41 39 -3 10
-1 16 4 12 13 -8 11 8 -4 28 -15 18 -26 14 -44 -19 -10 -17 -9 -22 2 -27 9 -3
12 0 8 10 -3 7 0 14 7 14 6 0 8 -4 5 -10 -3 -5 -1 -10 5 -10 7 0 6 -5 -2 -14
-8 -8 -15 -10 -19 -4 -3 5 -9 10 -13 11 -10 3 -35 -46 -29 -55 2 -5 -3 -15
-12 -24 -15 -15 -14 -17 6 -28 12 -6 23 -19 25 -29 1 -11 -1 -16 -4 -12 -4 4
-7 12 -7 18 0 21 -33 19 -45 -4 -9 -17 -9 -27 0 -45 7 -13 17 -21 21 -18 4 2
10 0 14 -6 4 -6 -4 -9 -18 -8 -16 1 -23 7 -20 15 8 20 -15 15 -26 -5 -6 -11
-6 -24 0 -35 8 -13 6 -15 -6 -11 -12 5 -18 -2 -14 -18 0 -2 -7 -20 -16 -40 -8
-21 -12 -38 -9 -38 4 0 1 -7 -6 -15 -7 -8 -10 -21 -7 -29 3 -8 3 -17 -1 -20
-3 -4 -7 -12 -8 -19 -1 -7 -7 -32 -13 -57 -13 -55 -14 -153 -2 -146 11 7 9
-13 -2 -31 -5 -8 -3 -13 5 -13 9 0 9 -3 -2 -10 -12 -8 -12 -10 -1 -10 9 0 10
-4 4 -12 -6 -7 -9 -22 -7 -33 12 -84 16 -101 26 -112 6 -8 8 -16 5 -20 -9 -9
13 -44 24 -38 5 4 9 1 9 -4 0 -6 -4 -11 -9 -11 -15 0 19 -73 40 -88 19 -13 28
-38 9 -27 -6 3 -7 -1 -4 -9 7 -19 14 -19 35 -3 9 7 14 19 11 27 -4 11 -1 10
12 -3 19 -18 14 -39 -8 -31 -7 3 -19 -2 -26 -11 -10 -12 -10 -15 3 -15 22 0
41 -26 26 -36 -7 -4 -9 -3 -6 3 4 6 0 14 -8 17 -13 5 -14 2 -4 -17 7 -12 19
-27 26 -32 8 -6 15 -19 17 -30 1 -10 17 -26 34 -35 17 -8 32 -22 33 -30 0 -8
2 -31 3 -50 2 -43 46 -126 57 -108 4 7 5 16 3 20 -3 4 0 8 6 8 6 0 9 4 5 9 -3
5 -2 12 3 15 4 2 8 -6 8 -20 0 -13 -3 -24 -7 -24 -9 0 -19 -40 -11 -40 4 0 16
-19 26 -41 18 -36 21 -38 28 -20 11 31 17 25 12 -11 -4 -25 -2 -29 5 -18 9 13
11 12 12 -5 1 -11 1 -23 0 -27 0 -5 4 -8 10 -8 5 0 8 -4 5 -8 -7 -12 74 -118
88 -114 6 2 14 9 18 15 10 17 55 16 55 0 0 -8 -6 -12 -12 -9 -13 5 -35 -12
-35 -26 0 -4 7 -8 16 -8 9 0 12 5 8 12 -4 7 -3 8 4 4 14 -9 4 -36 -13 -36 -8
0 -17 9 -20 20 -6 20 -25 28 -25 12 0 -16 37 -52 45 -44 5 4 5 1 1 -6 -9 -15
12 -45 25 -36 5 3 6 -1 4 -8 -3 -8 7 -25 22 -38 25 -22 26 -22 9 -2 -11 12
-14 22 -9 22 11 0 25 -25 27 -45 2 -15 43 -54 51 -47 3 4 3 -1 0 -9 -3 -9 2
-22 11 -30 16 -12 17 -12 11 1 -4 8 -2 7 5 -4 42 -60 50 -67 64 -55 8 6 14 8
14 4 0 -5 10 0 23 11 l22 19 -19 -22 c-11 -13 -16 -23 -11 -23 4 0 3 -6 -3
-13 -8 -10 -4 -20 18 -40 20 -19 31 -24 36 -16 4 8 3 9 -4 5 -17 -10 -15 -1 4
14 8 8 14 9 12 4 -2 -5 2 -11 7 -13 17 -6 37 -41 32 -54 -3 -7 -6 -6 -6 4 -1
20 -28 33 -36 18 -4 -5 -3 -8 2 -7 4 1 21 -10 37 -25 16 -15 35 -27 42 -27 8
0 14 -4 14 -8 0 -14 47 -31 69 -25 12 3 21 1 21 -6 0 -16 97 -14 103 2 2 6 3
25 1 42 -2 16 0 25 4 19 4 -6 22 -18 41 -27 32 -16 36 -16 52 -1 19 17 20 38
5 63 -7 11 -10 11 -17 0 -7 -11 -9 -10 -9 4 0 9 5 17 10 17 6 0 10 5 10 11 0
5 -5 7 -12 3 -7 -5 -8 -3 -3 6 6 10 11 10 20 -3 14 -19 30 -23 19 -5 -4 7 -3
8 4 4 7 -4 12 -2 12 5 0 8 5 7 17 -2 15 -13 16 -12 11 9 -4 12 -2 20 3 16 5
-3 9 0 9 5 0 6 -5 11 -11 11 -8 0 -9 4 0 13 6 8 8 17 4 21 -11 10 -14 48 -4
42 5 -3 8 5 7 19 0 14 -5 25 -9 25 -5 0 -5 4 -2 10 3 5 1 29 -6 52 -7 24 -14
56 -16 72 -4 36 -6 38 -27 30 -9 -3 -13 -11 -9 -17 3 -5 1 -7 -5 -3 -5 3 -13
0 -15 -6 -4 -9 -6 -8 -6 2 -1 21 11 35 29 35 8 0 16 11 18 23 3 21 0 23 -20
17 -19 -5 -20 -4 -6 5 10 6 17 21 16 35 -1 13 -5 22 -9 19 -4 -2 -6 12 -4 31
2 21 -2 41 -11 49 -16 17 -19 30 -4 21 6 -3 10 1 10 9 0 9 -4 16 -8 16 -12 0
-10 354 3 362 6 5 6 11 -3 20 -17 17 -15 28 6 29 10 0 12 3 5 6 -10 4 -10 9 2
26 11 16 12 24 2 36 -9 12 -9 13 0 8 8 -5 25 16 50 65 20 40 37 75 38 78 0 3
4 10 8 17 7 11 -9 28 -27 28 -13 0 -15 44 -3 52 6 3 7 2 4 -4 -4 -6 0 -19 8
-29 13 -18 13 -17 11 8 -2 18 1 25 10 21 9 -3 10 -11 4 -29 -12 -30 1 -31 26
-2 12 15 14 19 4 13 -9 -6 -8 -3 2 7 10 9 18 19 18 23 0 3 9 16 21 28 28 30
51 75 44 87 -3 6 1 7 9 4 10 -4 16 -1 16 9 0 8 7 17 15 21 8 3 15 11 15 19 0
7 11 24 25 37 14 13 25 29 25 36 0 6 7 15 15 18 9 3 15 14 13 23 -2 10 3 18
12 18 8 0 15 6 15 13 0 8 7 19 16 25 9 7 19 23 23 35 5 13 10 21 14 18 9 -10
32 32 26 48 -3 9 -1 16 6 16 6 0 8 -6 5 -12 -4 -7 5 0 20 16 19 21 23 31 14
36 -6 4 -8 13 -4 20 4 6 -1 18 -11 26 -14 10 -15 14 -4 12 23 -4 41 -31 27
-40 -7 -4 -7 -8 -2 -8 13 0 59 50 68 73 3 9 11 17 17 17 5 0 10 7 10 16 0 9
-5 12 -12 8 -7 -4 -8 -3 -4 5 4 6 12 9 17 6 5 -4 9 -1 9 4 0 6 7 11 15 11 8 0
15 5 15 11 0 5 -6 7 -12 3 -10 -6 -10 -4 -2 7 6 8 10 22 9 31 -2 12 3 15 18
12 29 -5 57 23 57 58 0 15 4 28 10 28 5 0 7 -8 4 -17 -5 -15 -3 -15 10 1 20
24 20 29 1 69 -12 23 -12 27 -2 15 8 -10 18 -14 22 -10 5 4 5 -1 2 -10 -4 -13
-1 -18 10 -18 9 0 14 3 10 6 -6 7 4 21 48 65 24 23 26 28 10 24 l-20 -7 20 13
c11 7 26 20 32 30 7 9 30 37 52 60 30 33 36 46 26 51 -10 6 -11 13 -2 33 7 14
15 25 20 25 11 0 3 -24 -13 -37 -13 -11 -13 -12 2 -13 20 0 33 17 33 45 0 13
7 20 20 20 13 0 20 6 19 18 -1 9 4 17 12 17 7 0 16 5 20 12 5 8 2 9 -12 4 -10
-4 -15 -4 -11 0 4 4 2 13 -4 21 -6 7 -8 13 -3 13 5 0 2 5 -6 10 -10 6 -11 10
-2 10 6 0 12 7 12 15 0 18 16 20 26 3 4 -7 3 -8 -4 -4 -7 4 -12 3 -12 -2 0 -6
7 -12 15 -16 9 -3 12 -12 8 -23 -6 -16 -5 -16 10 -4 9 7 15 17 12 21 -3 4 2
11 11 14 8 3 12 11 8 17 -4 8 -3 9 4 5 8 -4 16 3 22 18 5 14 15 26 21 26 8 0
8 4 0 14 -9 11 -9 16 0 22 8 5 9 3 4 -6 -5 -8 -3 -11 4 -9 7 3 13 9 13 14 0 6
9 16 20 23 10 7 16 17 13 22 -3 4 1 10 9 13 7 3 24 20 37 38 13 19 17 29 8 25
-7 -4 -6 -1 4 7 19 16 24 32 5 21 -7 -4 -8 -3 -4 4 4 6 13 9 20 6 17 -6 68 64
59 79 -3 6 -1 7 5 3 6 -3 16 3 23 15 10 19 9 21 -5 16 -11 -4 -15 -3 -10 4 3
6 15 8 26 6 15 -4 19 -2 15 12 -3 12 1 18 12 17 9 -1 16 7 16 18 0 11 6 21 13
24 6 2 12 8 12 13 0 6 -4 8 -9 5 -5 -4 -7 4 -4 15 6 21 6 21 17 1 12 -23 28
-12 41 27 4 12 9 20 12 17 8 -8 35 23 28 33 -3 5 0 13 6 17 8 4 9 3 5 -4 -15
-24 5 -11 39 26 19 20 35 43 35 51 0 8 3 11 6 8 8 -7 44 36 44 51 0 6 8 13 18
16 19 7 71 56 58 56 -4 0 9 14 29 32 26 22 33 33 24 39 -7 4 -17 5 -21 3 -4
-3 -5 2 -1 11 3 9 9 13 12 8 9 -12 31 -14 31 -2 0 5 5 7 10 4 6 -4 9 -1 8 6
-2 7 2 13 8 14 6 0 18 8 27 17 16 16 16 18 -4 28 -26 14 -34 8 -21 -17 9 -16
7 -19 -14 -19 -13 0 -24 2 -24 6 1 11 36 48 62 65 15 9 26 21 23 25 -3 5 0 12
6 16 8 4 9 3 5 -4 -4 -7 -2 -12 3 -12 6 0 11 -8 11 -17 0 -15 -2 -16 -10 -3
-5 8 -10 10 -10 4 0 -6 -10 -16 -22 -23 -23 -11 -23 -11 2 -5 19 4 22 3 10 -5
-8 -6 -10 -11 -4 -11 16 0 100 79 96 91 -1 5 6 13 15 16 10 4 44 33 77 65 50
50 56 64 24 59 -4 0 -5 6 -1 15 3 9 9 12 12 7 10 -15 37 -9 62 14 13 12 41 36
62 53 20 18 36 40 35 48 -2 9 3 17 10 18 6 1 17 2 23 3 6 0 9 10 6 22 -5 17
-3 18 11 7 10 -8 13 -9 9 -1 -4 6 -3 14 3 18 5 3 10 1 10 -5 0 -7 15 3 33 21
22 21 33 41 30 54 -2 11 -1 14 3 8 3 -7 10 -13 15 -13 6 0 7 5 3 12 -5 8 -2 9
9 5 13 -5 17 -1 17 16 0 15 3 18 8 9 6 -9 14 -6 30 13 12 14 26 25 32 25 5 0
9 3 8 8 -2 4 2 9 7 10 19 7 35 24 29 33 -3 5 0 9 6 9 6 0 9 4 6 9 -3 5 2 15
12 22 15 13 16 12 4 -3 -24 -30 3 -27 33 5 17 17 22 25 12 18 -9 -8 -19 -12
-21 -10 -2 2 8 13 22 23 14 11 22 14 18 8 -4 -7 -3 -12 3 -12 12 0 33 35 25
42 -3 3 2 8 11 12 11 4 14 2 9 -7 -9 -14 6 -3 86 63 30 25 62 52 72 60 10 8
18 24 18 35 0 14 3 16 8 7 6 -9 13 -8 28 6 10 10 27 21 37 25 9 3 17 13 17 22
0 8 7 15 15 15 7 0 18 7 23 16 5 9 13 17 18 17 5 1 8 5 7 9 -2 4 3 5 11 2 7
-3 18 2 25 10 11 13 8 14 -16 11 -15 -2 -22 -2 -15 1 6 3 10 10 6 15 -3 5 0 9
5 9 6 0 11 -4 11 -9 0 -14 34 -7 55 11 11 10 29 24 39 31 15 11 16 16 6 22 -9
6 -11 4 -5 -5 5 -9 4 -11 -4 -6 -9 6 -9 11 0 22 13 16 33 19 23 3 -9 -14 29 6
81 43 22 16 40 33 40 38 0 5 4 12 9 17 5 5 6 3 2 -4 -4 -7 -2 -13 3 -13 6 0
11 4 11 8 0 5 11 15 25 22 14 7 23 16 20 18 -3 3 5 10 18 17 12 6 21 17 20 23
-2 7 4 9 14 5 12 -5 14 -3 8 7 -5 9 -4 11 4 6 12 -8 41 15 41 33 0 6 -7 7 -17
4 -11 -4 -14 -3 -9 5 4 7 2 12 -3 12 -6 0 -11 4 -11 8 0 5 7 9 15 9 8 0 13 -3
10 -5 -3 -3 3 -11 13 -18 12 -9 21 -9 29 -2 19 15 16 31 -4 24 -15 -5 -14 -3
2 9 19 15 20 14 26 -7 6 -21 7 -22 14 -4 6 14 2 24 -15 38 -13 11 -25 25 -26
32 -3 21 32 15 42 -7 5 -13 17 -21 29 -20 20 1 20 1 1 -13 -11 -7 -18 -16 -15
-18 2 -2 19 9 37 24 19 16 27 27 19 27 -9 -1 -16 3 -16 8 0 6 11 11 25 12 15
1 22 -2 18 -9 -4 -6 7 0 25 13 17 12 31 25 31 28 0 2 -3 1 -7 -2 -7 -8 -33 11
-33 24 0 5 5 9 10 9 6 0 9 -5 8 -11 -4 -17 39 -21 46 -4 3 8 11 15 18 15 19 1
61 41 78 73 7 15 17 27 22 27 5 0 6 -5 3 -10 -9 -15 44 10 82 38 18 13 30 29
26 35 -3 6 -1 7 5 3 14 -8 104 55 98 69 -2 7 1 12 7 13 17 1 39 8 60 17 12 5
14 11 8 19 -12 14 -2 30 24 39 16 6 15 3 -5 -13 -14 -11 -20 -20 -13 -20 24 0
43 13 43 31 0 11 7 19 16 19 9 0 12 -5 8 -12 -8 -13 44 26 77 57 9 8 20 15 26
15 11 0 43 32 43 44 0 3 -12 -2 -27 -11 l-27 -18 19 32 c18 30 19 31 34 12 15
-18 18 -18 39 -4 12 9 20 20 17 25 -3 5 0 12 6 16 8 4 9 3 5 -4 -12 -21 10
-13 37 12 14 13 28 21 31 18 3 -3 6 0 6 6 0 7 6 12 14 12 8 0 22 10 30 22 9
12 16 18 16 13 1 -6 9 0 18 11 10 12 29 25 41 29 16 5 20 10 11 15 -8 5 -7 9
7 15 10 5 23 9 28 9 6 1 20 7 31 15 18 12 20 17 9 28 -17 16 -26 17 -23 1 2
-7 -3 -12 -9 -10 -7 1 -13 -2 -13 -8 0 -5 5 -10 12 -10 6 0 9 -3 5 -6 -8 -8
-41 18 -45 35 -2 11 0 12 11 3 20 -17 42 8 24 27 -9 10 -9 12 3 9 8 -2 21 -11
29 -21 12 -17 14 -17 32 -1 10 9 19 12 19 6 0 -6 -6 -12 -12 -15 -7 -2 -10 -7
-7 -11 3 -3 18 5 33 19 15 14 31 25 36 25 14 0 40 42 33 53 -3 6 -1 7 6 3 6
-4 8 -13 4 -19 -8 -13 64 39 87 63 13 14 14 14 5 0 -7 -11 -4 -10 12 3 14 12
19 25 16 40 -5 20 -4 21 8 4 13 -16 16 -16 52 8 21 15 35 30 32 35 -3 5 -1 11
4 15 6 3 8 13 5 23 -5 14 -4 14 4 2 6 -8 8 -18 6 -22 -3 -4 2 -5 10 -2 9 3 14
10 11 14 -3 4 3 7 13 6 10 0 18 7 20 20 2 16 9 20 25 17 15 -3 33 5 54 25 17
17 33 28 36 26 2 -3 18 9 36 25 17 16 31 26 31 23 0 -4 5 1 11 11 5 9 17 17
26 17 10 0 13 6 9 16 -5 14 -4 15 7 5 11 -9 17 -8 26 3 14 17 -2 31 -21 20 -9
-6 -9 -3 0 9 13 15 16 15 29 1 9 -8 18 -12 21 -9 3 3 0 11 -6 17 -15 15 -16
28 -2 28 5 0 9 -5 7 -12 -1 -6 6 -14 16 -16 16 -3 17 -1 8 16 -15 27 -13 41 2
22 14 -18 43 -19 40 -2 -3 11 10 16 30 13 4 0 7 6 7 14 0 9 -6 12 -17 8 -13
-5 -15 -2 -10 11 4 10 7 20 7 23 0 3 9 -5 19 -18 11 -13 23 -21 27 -16 4 4 -1
13 -11 20 -15 12 -16 14 -1 14 9 0 16 -4 16 -8 0 -15 34 -2 40 15 3 10 10 17
15 17 6 0 9 12 8 27 -2 20 0 23 7 12 5 -8 6 -18 4 -22 -3 -4 2 -8 10 -8 18 0
21 11 7 26 -6 5 -1 10 14 10 14 1 22 -2 19 -8 -3 -5 3 -4 15 4 22 13 30 34 9
22 -7 -4 -10 -4 -6 1 4 4 2 15 -4 24 -10 12 -8 12 8 -1 27 -23 41 -23 54 2 6
11 14 19 18 18 13 -4 52 13 52 23 0 5 7 9 15 9 17 0 20 16 5 25 -5 3 -10 12
-9 18 0 9 2 9 5 1 8 -19 94 8 94 29 0 5 -6 4 -14 -2 -11 -9 -16 -9 -22 0 -4 8
-3 9 4 5 6 -4 17 5 25 21 14 26 15 26 21 5 4 -12 4 -27 0 -34 -4 -7 6 0 22 15
23 22 26 29 15 36 -11 7 -10 10 5 15 10 3 6 4 -9 2 -20 -3 -25 0 -18 7 13 13
52 17 45 5 -5 -7 10 -12 29 -9 4 0 7 -4 7 -9 0 -6 7 -6 18 1 13 8 18 23 18 50
0 22 6 45 13 51 9 9 12 9 7 1 -10 -18 -14 -73 -6 -78 4 -3 14 3 21 12 8 9 9
14 3 10 -7 -4 -11 3 -11 21 0 15 2 21 4 14 3 -6 9 -10 13 -7 5 3 12 0 16 -6 5
-8 3 -9 -7 -4 -10 6 -11 5 -3 -4 8 -9 22 -5 56 14 53 29 79 55 57 55 -12 0
-12 2 0 9 9 6 10 11 2 15 -17 11 -13 23 9 29 20 5 28 -7 11 -17 -10 -7 -9 -31
2 -42 4 -4 7 -2 7 4 0 7 7 12 15 12 8 0 15 4 15 9 0 5 8 12 18 14 16 4 16 5 0
6 -10 0 -18 5 -18 10 0 10 19 9 37 -2 20 -13 65 23 59 47 -6 24 10 46 33 45
12 0 11 -2 -4 -9 -17 -7 -17 -9 -2 -9 9 -1 17 -5 17 -11 0 -5 -7 -7 -15 -4
-10 4 -15 0 -15 -10 0 -16 2 -16 30 1 17 9 30 21 30 26 0 4 5 5 10 2 6 -3 10
-1 10 5 0 6 4 9 8 6 4 -2 14 4 21 16 7 11 8 17 2 14 -6 -4 -19 -2 -28 3 -11 6
-13 11 -5 11 7 0 10 5 7 10 -4 6 -1 9 7 8 7 -2 12 2 11 8 -3 18 23 12 36 -8 8
-12 8 -18 0 -18 -5 0 -8 -4 -4 -9 5 -9 75 24 75 36 0 2 -5 1 -12 -3 -7 -4 -8
-3 -4 4 4 6 14 8 22 5 13 -5 15 -1 10 14 -5 14 -1 23 10 27 14 5 15 4 4 -9
-22 -26 8 -18 36 10 14 14 28 23 32 21 4 -2 16 2 27 10 10 8 14 14 8 14 -6 0
-13 7 -16 15 -5 11 -1 12 20 4 21 -8 28 -6 40 11 8 11 18 18 23 15 4 -3 24 9
44 27 35 30 35 32 19 52 -10 12 -11 16 -4 9 11 -9 19 -8 39 5 15 10 23 11 19
5 -5 -7 -4 -13 2 -13 6 0 11 5 11 12 0 6 3 9 6 5 3 -3 17 6 31 21 13 15 21 21
17 13 -5 -10 -3 -12 5 -7 7 5 10 14 7 22 -3 8 0 11 9 8 8 -3 25 5 39 19 14 14
34 31 44 39 24 16 83 85 63 74 -10 -6 -12 -5 -7 3 4 6 12 9 17 6 5 -4 47 31
94 76 61 60 84 88 80 100 -4 12 1 22 14 29 17 9 20 8 15 -5 -5 -11 -2 -13 10
-9 9 3 13 10 10 15 -3 5 0 9 6 9 7 0 25 11 42 25 16 14 26 25 22 25 -4 0 -15
-7 -24 -15 -14 -13 -17 -13 -17 0 0 8 4 12 8 9 4 -2 10 0 14 6 3 5 15 10 26
10 10 0 19 5 19 10 0 6 7 10 15 10 8 0 15 5 15 11 0 5 -4 8 -8 5 -5 -3 -9 1
-9 9 0 11 4 12 14 4 10 -9 32 3 97 52 46 35 81 68 78 73 -3 5 0 6 6 2 14 -8
62 21 62 38 0 6 -5 4 -11 -4 -9 -13 -10 -13 -6 0 2 8 10 14 17 12 7 -1 19 3
28 10 13 11 14 11 7 -2 -8 -13 -6 -13 8 -1 9 7 14 17 11 22 -3 5 2 6 10 3 9
-3 16 -1 16 5 0 6 3 10 8 9 11 -3 54 23 75 46 10 12 16 15 12 9 -4 -9 -1 -11
9 -7 9 3 13 11 9 17 -3 6 -1 7 6 3 6 -4 18 -1 26 8 16 16 20 31 7 22 -5 -3 -9
1 -9 8 0 7 6 13 13 13 7 0 12 -3 11 -6 -2 -6 9 -12 18 -10 3 1 8 2 13 3 4 1
22 7 40 15 25 10 30 16 20 23 -9 6 -7 8 7 6 27 -4 107 32 102 46 -2 6 -9 12
-15 12 -7 1 -16 2 -22 3 -5 0 -10 5 -10 9 0 14 55 7 56 -6 3 -23 4 -24 19 -12
8 7 12 17 9 22 -4 6 1 8 13 4 11 -4 36 0 56 9 29 12 35 19 32 40 -1 18 2 25
10 21 7 -2 18 1 25 7 10 9 11 9 6 0 -4 -7 -2 -13 3 -13 6 0 11 5 11 11 0 5 5
7 10 4 17 -10 11 -21 -11 -22 -24 -2 -52 -23 -31 -23 14 0 95 31 102 40 3 3
13 6 23 7 9 0 23 1 31 2 7 0 16 15 20 31 3 17 10 30 15 30 6 0 8 -7 5 -15 -4
-8 -1 -16 5 -16 6 -1 17 -2 24 -3 6 -1 26 2 42 7 17 4 43 10 60 12 16 3 31 9
33 14 2 6 10 7 18 4 8 -3 14 -1 14 5 0 5 7 13 16 16 8 3 12 2 9 -4 -3 -6 -2
-10 3 -10 6 0 12 7 16 15 3 8 12 12 21 9 8 -4 27 2 43 12 15 10 33 19 40 20
15 3 41 33 42 49 0 6 10 21 21 34 14 17 23 21 31 13 14 -14 1 -33 -20 -30 -9
2 -18 -5 -20 -14 -3 -16 1 -15 37 4 23 12 41 26 41 30 0 5 -6 6 -12 2 -10 -6
-10 -4 -2 7 5 8 9 24 8 36 0 12 3 20 8 17 4 -3 6 -9 3 -14 -3 -5 -1 -11 5 -15
6 -4 7 -11 4 -17 -4 -7 -2 -8 4 -4 7 4 11 24 9 45 -3 35 -1 37 25 37 15 0 28
-3 28 -8 0 -4 -9 -8 -20 -8 -11 0 -20 -5 -20 -11 0 -6 7 -8 17 -5 15 6 15 5 2
-12 -8 -10 -4 -8 7 4 12 13 25 20 28 16 4 -3 4 1 1 10 -4 9 -1 19 6 24 8 4 10
3 5 -4 -4 -7 -2 -12 4 -12 5 0 18 13 29 30 10 16 21 27 24 24 4 -4 11 5 16 20
6 14 13 26 16 26 4 0 3 -6 -1 -12 -4 -7 25 19 63 57 40 40 66 72 59 75 -14 6
-15 25 -2 37 5 4 6 3 2 -4 -15 -27 18 -23 44 5 20 22 27 39 25 61 -1 17 1 28
6 26 4 -3 6 -14 4 -25 -2 -11 0 -20 4 -20 12 0 20 60 9 66 -4 3 -8 10 -8 15 0
6 7 4 15 -5 8 -8 12 -23 9 -33 -3 -10 8 -3 26 17 17 19 56 61 86 93 31 33 53
65 50 72 -3 9 0 12 8 9 7 -3 19 3 27 12 9 12 10 15 2 10 -7 -4 -13 -2 -13 3 0
6 5 11 11 11 6 0 9 9 6 19 -5 19 15 23 30 6 4 -4 3 -5 -3 -2 -6 3 -11 0 -11
-8 0 -11 3 -12 14 -3 8 6 12 17 9 23 -2 7 3 12 12 11 11 -1 16 5 14 18 -2 11
1 16 10 13 19 -7 50 12 42 26 -4 7 -4 9 1 5 12 -12 35 11 28 29 -5 12 -1 14
16 8 18 -5 21 -3 18 15 -2 12 -8 25 -13 28 -5 4 -10 13 -12 21 -2 11 0 12 11
3 20 -17 42 8 24 27 -9 10 -9 12 3 9 8 -2 21 -10 28 -18 12 -13 13 -12 8 5 -5
18 -4 18 6 3 11 -14 14 -15 37 -1 l26 15 -25 -20 c-14 -11 -21 -24 -17 -28 4
-4 7 -3 7 3 0 5 18 18 40 29 22 10 40 22 40 25 0 4 11 10 25 13 14 4 25 11 25
17 0 6 4 8 9 5 5 -3 22 1 37 9 16 8 34 15 40 15 6 0 17 7 24 15 7 8 16 12 21
9 5 -3 9 0 9 5 0 17 -28 13 -38 -5 -6 -11 -11 -13 -16 -5 -4 6 -3 11 3 11 5 0
9 9 8 20 -1 11 -6 20 -11 20 -16 0 0 10 24 15 22 4 22 4 4 -17 -19 -21 -19
-21 5 -8 13 6 21 8 17 2 -3 -5 1 -15 8 -21 10 -8 16 -9 21 -1 3 6 11 8 16 5 5
-4 9 -1 9 5 0 6 5 8 10 5 6 -3 10 -1 10 5 0 6 5 8 10 5 6 -3 14 4 19 17 6 13
10 18 10 12 1 -6 8 -11 16 -11 8 0 12 4 9 8 -2 4 11 11 31 15 19 3 35 10 35
15 0 5 3 8 8 8 27 -5 35 2 17 15 -17 12 -21 12 -32 -3 -7 -9 -13 -12 -13 -7 0
6 -6 1 -14 -10 -11 -14 -17 -16 -26 -7 -17 16 -5 31 25 28 16 -2 25 2 25 11 0
17 26 19 33 2 3 -8 6 -9 6 -2 1 7 12 9 27 6 18 -3 25 -1 20 6 -4 6 2 8 16 5
23 -4 23 -4 3 13 l-20 17 20 -7 c19 -6 19 -6 1 8 -18 14 -18 15 2 13 11 0 19
-4 16 -8 -2 -4 1 -11 7 -15 6 -3 15 0 20 7 5 8 9 10 9 6 0 -4 9 -3 20 3 22 12
22 27 2 49 -7 7 -11 20 -8 27 5 14 -7 27 -17 18z"/>
<path d="M38788 17593 c-10 -2 -18 -9 -18 -15 0 -6 -3 -9 -6 -5 -3 3 -15 -4
-26 -15 -15 -15 -17 -23 -9 -31 9 -9 14 -8 21 3 5 8 6 18 3 23 -3 4 3 7 13 5
11 -2 18 2 17 10 -2 6 2 12 7 12 17 0 11 -19 -10 -32 -24 -15 -26 -34 -4 -42
26 -10 29 -7 8 10 -10 9 -2 6 18 -5 27 -16 38 -18 44 -10 4 7 3 9 -4 5 -6 -3
-13 -3 -16 2 -7 13 28 11 36 -1 10 -16 60 -20 69 -5 7 10 9 10 9 1 0 -7 7 -13
15 -13 8 0 15 5 15 11 0 7 11 9 30 6 24 -5 28 -4 24 11 -5 14 -4 14 4 2 6 -8
8 -18 6 -22 -9 -14 28 -22 47 -9 12 7 19 7 19 1 0 -5 3 -9 8 -8 4 1 18 -4 31
-11 15 -8 21 -9 16 -2 -4 7 -2 17 4 24 10 13 0 17 -61 20 -16 1 -28 5 -28 9 0
5 -3 7 -7 6 -8 -1 -24 5 -112 45 -43 20 -44 20 -59 1 -14 -18 -14 -18 -9 4 5
20 2 22 -36 21 -23 -1 -50 -3 -59 -6z"/>
<path d="M4565 17560 c-3 -5 0 -12 6 -16 8 -5 9 -3 4 7 -5 9 -1 8 11 -3 14
-13 23 -14 38 -6 13 7 17 7 12 0 -3 -6 0 -12 6 -15 7 -3 -2 -5 -19 -4 -18 0
-33 4 -33 10 0 5 -7 4 -15 -3 -9 -7 -18 -10 -22 -6 -3 3 -1 6 6 6 9 0 9 3 -1
13 -17 17 -113 23 -102 6 5 -9 1 -11 -14 -7 -12 4 -20 1 -19 -4 1 -6 -4 -13
-12 -16 -8 -2 -11 0 -7 6 9 16 -9 24 -38 16 -16 -4 -23 -11 -19 -18 4 -6 -1
-5 -10 3 -13 10 -24 11 -44 3 -16 -5 -41 -10 -57 -11 -16 0 -35 -9 -43 -19 -8
-9 -12 -11 -8 -4 3 6 1 12 -4 12 -6 0 -11 -4 -11 -8 0 -5 -17 -8 -37 -6 -43 2
-80 -12 -86 -35 -4 -13 -5 -12 -6 3 -1 14 -6 17 -23 12 -13 -3 -27 -6 -32 -6
-4 0 -5 -7 -2 -16 5 -13 3 -14 -6 -7 -26 21 -138 -13 -138 -41 0 -9 -5 -16
-10 -16 -6 0 -9 3 -8 8 4 11 -9 14 -37 7 -5 -1 -18 -3 -27 -3 -10 -1 -18 -10
-18 -19 0 -14 -2 -15 -9 -4 -10 16 -34 5 -25 -12 5 -9 4 -9 -6 0 -10 9 -18 9
-34 0 -12 -6 -25 -12 -31 -12 -5 -1 -9 -7 -7 -15 3 -11 0 -11 -12 -1 -17 14
-29 0 -20 -23 4 -11 1 -16 -11 -16 -10 0 -14 -5 -10 -12 4 -7 1 -6 -7 3 -7 9
-20 14 -28 12 -13 -4 -13 -3 -1 5 8 6 22 9 32 7 12 -2 16 1 13 10 -6 14 -24
10 -94 -20 -3 -2 -15 -6 -27 -10 -15 -5 -23 -15 -23 -31 0 -13 -4 -24 -10 -24
-5 0 -10 -5 -10 -11 0 -5 4 -8 8 -5 5 3 9 -1 9 -9 0 -13 -2 -13 -16 -1 -10 9
-22 12 -30 7 -11 -7 -11 -9 0 -14 9 -3 10 -6 2 -6 -6 -1 -15 4 -18 9 -3 6 -11
10 -16 10 -6 0 -8 -4 -5 -8 3 -5 -1 -9 -8 -9 -11 0 -12 4 -3 18 6 10 16 15 22
10 13 -10 58 13 47 24 -4 5 -1 5 6 1 15 -9 16 10 1 20 -6 3 -14 2 -18 -4 -4
-6 -30 -16 -59 -22 -55 -12 -73 -27 -51 -41 11 -7 11 -9 -3 -9 -9 0 -19 4 -22
9 -3 5 -31 0 -62 -11 -76 -27 -105 -43 -96 -53 4 -4 -3 -6 -15 -3 -13 4 -27 0
-34 -8 -7 -8 -20 -12 -30 -9 -13 5 -19 1 -19 -10 0 -10 6 -15 13 -12 8 3 14
-4 15 -20 1 -15 -2 -22 -9 -18 -6 4 -8 10 -5 13 3 3 -3 11 -14 19 -25 18 -69
7 -65 -15 2 -9 4 -21 4 -25 1 -5 5 -6 10 -2 5 3 12 2 15 -3 2 -4 -8 -9 -24
-10 -24 -2 -27 1 -23 18 3 12 0 20 -6 20 -7 0 -9 -5 -5 -12 6 -10 5 -10 -7 -2
-11 9 -22 8 -47 -6 -34 -19 -40 -29 -24 -39 6 -4 4 -11 -4 -19 -8 -7 -14 -8
-14 -3 0 6 -6 8 -14 5 -8 -3 -17 0 -21 6 -5 8 -11 8 -21 -1 -12 -9 -12 -15 -2
-27 11 -13 10 -14 -8 -4 -16 9 -27 7 -53 -9 -17 -10 -34 -26 -37 -34 -4 -8
-11 -12 -18 -9 -6 3 0 -3 13 -14 18 -14 21 -21 11 -27 -9 -5 -11 -4 -6 3 4 7
4 12 -1 13 -4 0 -15 2 -24 4 -10 2 -29 -17 -53 -53 -28 -43 -36 -63 -32 -87 4
-24 0 -34 -17 -44 -19 -13 -21 -12 -10 1 7 8 9 19 5 23 -4 5 -2 5 4 2 6 -3 11
0 11 8 0 8 -4 15 -9 15 -7 0 -11 -16 -5 -23 1 -2 -4 -11 -12 -20 -7 -10 -10
-17 -7 -17 4 0 0 -10 -8 -22 -18 -25 -21 -42 -7 -33 5 3 13 0 17 -6 4 -8 3 -9
-5 -5 -15 9 -25 -19 -15 -41 4 -10 8 -21 8 -25 2 -13 40 -36 53 -31 7 3 13 0
13 -6 0 -6 5 -11 11 -11 5 0 7 6 3 13 -6 9 -4 9 7 1 8 -5 29 -11 47 -13 24 -2
32 2 32 13 0 9 5 16 11 16 5 0 7 -4 4 -10 -4 -6 7 -10 27 -10 20 0 28 3 21 8
-7 5 3 8 25 8 21 0 47 4 58 9 10 4 26 9 34 11 49 9 90 29 86 40 -3 8 -1 16 5
19 5 4 8 1 7 -6 -2 -6 3 -14 11 -17 10 -3 12 0 7 13 -6 15 -4 16 10 5 12 -11
17 -11 23 -1 5 7 11 12 15 12 32 -5 38 0 34 29 -3 21 0 30 9 30 9 0 11 5 7 13
-4 7 -3 9 2 4 5 -5 9 -14 9 -20 0 -7 12 -13 27 -15 22 -3 26 0 23 16 -2 11 2
19 11 19 8 0 13 -6 10 -13 -8 -21 51 18 61 40 5 12 8 15 6 9 -3 -17 12 -16 26
1 10 11 6 16 -16 24 l-28 10 32 -1 c17 -1 29 -5 26 -9 -2 -5 3 -8 11 -8 15 0
21 12 17 34 -1 5 5 4 13 -3 12 -10 16 -9 25 6 6 10 11 15 11 11 0 -5 9 0 19
10 11 9 31 25 45 35 32 22 34 37 4 31 -21 -4 -21 -4 -3 5 11 5 24 5 28 1 5 -4
19 2 32 14 12 11 34 29 48 39 17 11 24 23 21 35 -5 13 -4 14 4 3 8 -11 14 -10
36 5 14 11 26 23 26 28 0 5 -9 1 -20 -9 -12 -11 -20 -13 -20 -6 0 7 -4 9 -10
6 -6 -3 -7 1 -3 10 4 13 8 14 14 4 6 -10 10 -10 23 0 8 7 20 10 25 7 5 -4 12
-2 16 4 3 5 21 17 39 25 18 9 42 24 53 33 25 22 52 40 81 52 23 10 29 25 13
35 -5 3 -12 -2 -14 -10 -4 -12 -5 -12 -3 1 0 10 10 18 23 19 13 1 19 -3 16
-11 -4 -10 3 -10 26 2 17 8 33 20 36 25 4 5 11 6 17 3 7 -5 9 -1 5 9 -3 9 -2
19 4 22 5 4 8 2 7 -3 -3 -10 1 -12 21 -12 5 0 13 9 16 20 3 11 11 20 17 20 6
0 6 -6 -2 -15 -11 -13 -8 -13 19 -4 17 6 31 15 31 21 0 5 3 7 8 4 12 -7 72 22
72 35 0 8 4 8 15 -1 12 -10 15 -10 15 0 0 7 7 10 15 6 8 -3 15 -1 15 4 0 5 7
7 15 4 8 -3 20 -2 27 2 7 5 18 9 23 10 6 0 16 2 23 2 7 1 10 7 7 12 -3 6 -1
10 4 10 6 0 11 -6 11 -12 0 -9 3 -9 8 -3 4 6 17 10 30 9 13 -1 30 8 39 20 10
13 13 15 10 4 -5 -14 7 -17 33 -8 3 1 14 3 24 4 11 0 21 7 24 15 3 9 0 11 -8
6 -9 -5 -11 -4 -6 3 4 8 -3 16 -18 22 -33 12 -33 15 4 15 20 1 29 -3 26 -11
-3 -7 1 -18 9 -24 10 -8 14 -8 18 2 4 8 6 7 6 -4 1 -10 7 -15 14 -13 6 2 27 6
45 9 35 5 56 16 31 16 -8 0 -4 7 9 16 15 10 27 13 35 6 7 -5 20 -8 30 -7 10 2
14 -1 10 -7 -4 -8 2 -9 18 -5 13 4 32 7 42 7 12 0 16 4 11 13 -5 7 -1 7 10 -2
11 -10 20 -11 24 -5 8 12 408 11 456 0 17 -4 34 -2 42 5 12 9 18 9 27 0 9 -10
8 -11 -5 -6 -10 4 -18 3 -18 -3 0 -6 12 -9 28 -7 15 2 32 -1 39 -7 7 -5 17 -7
24 -3 6 4 15 2 19 -5 4 -6 23 -13 41 -15 19 -2 47 -8 63 -15 16 -6 31 -8 34
-5 3 3 0 5 -7 5 -7 0 -9 5 -6 10 4 6 13 3 23 -9 25 -28 123 -57 107 -31 -4 6
-12 7 -18 4 -7 -4 -8 -3 -4 1 9 11 39 16 33 6 -9 -14 10 -30 43 -36 20 -3 30
-2 27 4 -4 5 2 14 11 20 10 6 13 11 6 11 -6 0 -15 -5 -18 -10 -4 -7 -12 -7
-24 0 -10 5 -22 6 -26 2 -5 -4 -5 -2 -1 5 4 7 14 9 22 6 11 -4 14 -1 12 10 -2
9 2 16 7 16 6 0 9 -6 8 -12 -2 -7 8 -13 22 -13 14 -1 25 3 25 9 0 6 3 7 7 3 4
-4 -3 -15 -16 -25 -32 -24 -21 -37 36 -47 53 -8 52 -8 73 -17 8 -4 27 -8 42
-11 15 -3 32 -7 38 -11 16 -10 12 12 -6 30 -13 13 -19 13 -32 3 -10 -9 -13 -9
-9 -1 9 14 -8 26 -41 27 -14 1 -27 8 -29 16 -4 13 -3 13 7 0 10 -13 11 -13 7
0 -3 14 -80 51 -177 85 -3 1 -22 9 -43 19 -21 9 -42 14 -47 11 -6 -4 -10 -1
-10 6 0 7 -3 9 -7 6 -3 -4 -13 -1 -21 6 -10 8 -13 8 -9 1 4 -7 0 -15 -9 -18
-22 -8 -36 -8 -30 2 6 10 -22 47 -30 39 -4 -4 -12 -3 -18 2 -13 9 -137 37
-150 33 -5 -2 -22 2 -37 8 -15 7 -34 8 -41 4 -21 -13 -37 -13 -32 0 7 17 -45
19 -71 2 -15 -10 -26 -11 -36 -4 -11 8 -11 9 3 4 12 -3 15 -1 12 9 -5 11 -10
12 -24 3 -10 -7 -16 -17 -12 -23 7 -12 -29 15 -40 29 -3 6 -18 11 -33 13 -20
3 -25 1 -19 -9 6 -10 4 -10 -7 -2 -21 15 -111 12 -117 -5 -3 -10 0 -11 9 -5
22 13 46 12 46 -3 0 -7 -3 -11 -5 -8 -3 3 -11 0 -19 -6 -10 -9 -18 -8 -31 5
-24 21 -89 22 -95 1 -4 -11 -4 -10 -3 2 1 13 13 20 46 24 27 3 -2 6 -72 7 -65
0 -120 -3 -123 -8z"/>
</g>
</svg>
