<?xml version="1.0" standalone="no"?>
<!DOCTYPE svg PUBLIC "-//W3C//DTD SVG 20010904//EN"
 "http://www.w3.org/TR/2001/REC-SVG-20010904/DTD/svg10.dtd">
<svg version="1.0" xmlns="http://www.w3.org/2000/svg"
 width="1000.000000pt" height="1000.000000pt" viewBox="0 0 1000.000000 1000.000000"
 preserveAspectRatio="xMidYMid meet">
<metadata>
Created by potrace 1.16, written by Peter Selinger 2001-2019
</metadata>
<g transform="translate(0.000000,1000.000000) scale(0.100000,-0.100000)"
fill="#000000" stroke="none">
<path d="M8505 5260 c-21 -47 -43 -69 -81 -79 -22 -6 -28 -13 -26 -29 4 -30
-23 -39 -155 -52 -171 -16 -198 -21 -182 -31 8 -5 28 -8 44 -8 30 1 30 1 5 10
-18 6 -12 7 24 4 27 -3 77 -5 111 -5 71 0 116 -24 148 -77 36 -62 -6 -97 -89
-75 -42 11 -114 6 -114 -9 0 -4 14 -3 32 2 20 5 45 5 68 -1 19 -5 47 -10 62
-10 20 0 26 -4 22 -14 -4 -11 -12 -13 -30 -6 -15 6 -24 6 -24 0 0 -5 -7 -7
-15 -4 -8 4 -12 11 -8 17 4 6 0 8 -10 4 -9 -3 -17 -3 -19 1 -2 4 -16 5 -33 1
l-30 -7 28 -1 c99 -4 138 -88 102 -221 l-15 -55 30 -27 c17 -16 26 -28 21 -28
-6 0 -13 5 -16 11 -8 12 -55 -40 -55 -61 0 -13 1 -13 10 0 8 12 9 9 8 -12 -2
-19 -6 -24 -14 -18 -6 6 -14 7 -17 3 -13 -12 -6 12 13 52 11 22 19 47 19 55 0
30 -80 -177 -139 -358 -33 -101 -60 -190 -60 -196 0 -6 48 -35 106 -64 58 -29
102 -47 98 -41 -4 7 -2 10 7 7 8 -3 13 -11 12 -17 -3 -10 204 -121 225 -121 4
0 89 107 187 238 98 130 172 231 163 224 -13 -11 -18 -11 -24 0 -15 23 -13 37
7 43 22 7 42 -2 34 -16 -4 -5 -4 -9 -1 -9 7 0 558 731 554 735 -5 5 -864 255
-874 254 -5 0 7 -7 26 -14 19 -7 29 -14 22 -14 -7 -1 -11 -5 -8 -9 3 -5 -1 -9
-8 -9 -8 0 -12 6 -9 12 2 7 -7 15 -21 17 -14 3 -26 2 -26 -2 0 -14 -39 -18
-49 -6 -8 9 -7 13 4 13 8 0 11 -5 8 -10 -3 -6 -1 -7 6 -3 6 4 9 11 6 16 -6 10
-24 8 -43 -4 -11 -7 -12 -4 -3 12 10 18 16 20 37 12 14 -6 31 -10 37 -9 10 0
-48 26 -64 28 -3 1 -14 -17 -24 -39z"/>
<path d="M3410 3800 c-19 -11 -43 -19 -53 -20 -10 0 -16 -4 -13 -8 3 -5 -129
-9 -292 -11 -295 -2 -572 -16 -582 -29 -3 -4 -23 -8 -45 -9 -56 -4 -156 -55
-207 -108 -24 -24 -65 -84 -91 -132 -25 -49 -59 -107 -74 -130 -50 -74 -360
-399 -398 -418 -40 -18 -73 -15 -115 13 -14 9 -41 16 -60 17 -35 0 -91 38 -77
52 4 3 7 1 7 -6 0 -7 6 -11 13 -8 7 3 19 -3 25 -14 17 -26 62 -22 62 6 -1 18
-1 19 -11 3 -24 -41 -51 -12 -90 96 -9 28 -18 45 -18 38 -1 -7 -5 -11 -10 -8
-5 3 -9 -10 -9 -30 0 -19 -3 -38 -6 -41 -3 -4 -6 23 -6 58 0 43 -5 72 -16 87
-9 13 -14 26 -11 29 10 9 47 -61 41 -77 -4 -11 -2 -12 6 -4 9 9 8 19 -4 42
-59 114 -216 176 -387 153 -86 -12 -130 -27 -137 -50 -4 -11 8 -12 64 -7 194
18 242 18 293 3 28 -8 48 -11 45 -6 -9 15 11 10 32 -7 19 -15 19 -16 -1 -9
-14 4 -11 -2 13 -24 43 -40 52 -68 52 -165 0 -77 -2 -86 -29 -119 -25 -32 -28
-43 -23 -84 6 -59 12 -69 12 -20 0 20 5 37 11 37 5 0 8 -4 5 -9 -3 -5 1 -14 9
-21 12 -10 11 -16 -7 -41 -16 -21 -24 -26 -31 -17 -7 10 -8 10 -5 0 2 -8 6
-12 8 -11 8 5 50 -35 50 -47 0 -7 -8 -11 -17 -10 -10 2 -22 -2 -26 -8 -6 -7
-7 -6 -4 4 2 8 9 15 15 15 5 0 13 3 16 8 3 4 3 5 -1 2 -3 -3 -13 1 -21 8 -13
9 -14 9 -8 0 4 -7 3 -13 -3 -13 -5 0 -11 8 -13 18 -3 9 -10 -7 -16 -36 -8 -36
-9 -59 -2 -72 7 -13 7 -21 0 -25 -5 -3 -10 2 -11 12 0 10 -11 -18 -24 -62 -13
-44 -22 -81 -19 -84 2 -2 4 2 4 10 1 10 4 9 11 -4 8 -13 5 -24 -11 -47 -12
-16 -22 -39 -23 -49 -1 -11 -3 -18 -6 -16 -2 3 -10 -3 -17 -13 -8 -9 -3 9 11
41 43 98 28 77 -47 -68 -69 -134 -72 -143 -72 -210 -1 -66 2 -75 43 -145 25
-41 65 -97 90 -123 37 -40 50 -47 75 -45 28 3 31 7 33 38 1 34 1 34 -5 5 -6
-24 -13 -31 -36 -33 -18 -2 -26 0 -21 7 3 6 12 8 18 4 7 -4 5 1 -3 11 -13 17
-14 17 -20 0 -4 -11 -9 -14 -13 -7 -4 6 0 16 8 23 8 7 15 19 15 26 0 8 4 14 9
14 4 0 6 -11 4 -24 -3 -14 1 -25 9 -28 10 -4 13 4 11 36 -2 32 -1 37 7 21 7
-14 8 -2 4 41 -9 93 2 113 201 369 50 64 61 84 54 100 -8 19 -9 19 -6 -1 1
-11 -2 -22 -8 -23 -17 -3 -17 26 -1 42 12 12 13 17 3 20 -6 3 -2 4 10 4 18 -1
22 -6 18 -26 -3 -18 23 4 98 84 56 60 102 116 102 126 0 22 11 33 25 24 8 -5
5 -11 -7 -21 -10 -7 -13 -14 -7 -14 6 0 21 12 35 26 59 64 550 417 726 523 57
34 102 65 102 69 -3 21 3 32 17 32 8 0 12 4 9 10 -3 6 1 7 9 4 9 -3 13 -11 9
-18 -7 -12 18 8 93 76 61 55 120 93 194 125 34 15 44 22 25 18 l-30 -5 25 15
c14 8 36 14 50 14 23 0 23 -1 5 -9 -12 -5 -14 -9 -6 -9 29 -2 98 50 163 122
54 60 83 83 140 110 64 31 122 67 108 66 -3 0 -21 -8 -40 -19z"/>
<path d="M8108 3800 c-46 -14 -94 -48 -133 -95 -45 -55 -83 -76 -155 -85 l-55
-6 44 -13 c24 -7 57 -25 73 -41 15 -16 28 -25 28 -21 0 4 -5 12 -12 19 -9 9
-8 12 6 12 14 0 16 -6 11 -42 -3 -24 -6 -53 -7 -66 0 -13 -5 -21 -12 -19 -6 3
-10 10 -8 16 1 7 -2 9 -9 5 -7 -4 -10 -2 -8 5 3 7 8 12 13 11 9 -2 26 19 26
33 0 5 -7 1 -16 -7 -8 -9 -21 -16 -28 -16 -6 0 -12 -9 -12 -20 0 -11 6 -20 12
-20 14 0 39 -31 87 -105 25 -39 37 -49 55 -47 12 2 29 -3 37 -12 8 -8 23 -13
33 -11 11 2 19 -3 19 -11 0 -19 -16 -18 -57 6 l-35 21 24 -21 c13 -11 48 -27
79 -36 97 -29 206 -4 284 65 40 34 89 122 87 155 -1 14 -4 10 -10 -11 -12 -40
-22 -44 -12 -5 4 15 7 59 7 97 0 45 2 61 7 45 6 -20 7 -21 8 -5 3 69 -99 190
-186 219 -49 17 -140 20 -185 6z"/>
<path d="M815 3492 c-90 -23 -261 -89 -280 -109 -8 -8 -20 -23 -26 -34 -35
-66 86 -39 186 41 55 44 125 78 176 86 33 6 39 9 24 14 -36 13 169 -2 215 -16
60 -18 63 -10 3 10 -73 26 -214 30 -298 8z"/>
</g>
</svg>
