<?xml version="1.0" standalone="no"?>
<!DOCTYPE svg PUBLIC "-//W3C//DTD SVG 20010904//EN"
 "http://www.w3.org/TR/2001/REC-SVG-20010904/DTD/svg10.dtd">
<svg version="1.0" xmlns="http://www.w3.org/2000/svg"
 width="200.000000pt" height="200.000000pt" viewBox="0 0 200.000000 200.000000"
 preserveAspectRatio="xMidYMid meet">
<metadata>
Created by potrace 1.16, written by Peter Selinger 2001-2019
</metadata>
<g transform="translate(0.000000,200.000000) scale(0.100000,-0.100000)"
fill="#000000" stroke="none">
<path d="M1686 1031 c-13 -14 -14 -21 -5 -27 8 -5 10 -3 4 7 -5 8 -4 10 0 6
16 -14 13 -37 -4 -37 -14 0 -17 -6 -14 -24 3 -14 -4 -50 -16 -81 -12 -30 -21
-59 -21 -64 0 -7 64 -41 79 -41 5 0 48 53 97 118 48 64 81 111 72 104 -11 -9
-18 -10 -23 -2 -3 5 0 10 7 11 14 1 -130 49 -148 49 -6 0 -19 -9 -28 -19z"/>
<path d="M492 740 c-19 -4 -39 -13 -45 -20 -9 -8 -4 -8 16 1 24 11 30 10 37
-1 6 -10 4 -18 -6 -23 -14 -8 -14 -11 1 -27 14 -15 14 -18 1 -23 -10 -4 -13
-1 -9 8 3 8 -2 18 -11 21 -15 6 -15 8 1 28 18 21 18 21 -3 3 -12 -10 -26 -17
-31 -15 -5 2 -30 -22 -54 -52 -37 -45 -51 -55 -77 -55 -25 -1 -32 3 -32 19 0
33 -9 12 -20 -44 -6 -29 -17 -67 -25 -83 -21 -42 -19 -71 7 -93 13 -10 17 -12
11 -4 -10 13 -4 27 35 77 51 67 101 109 232 196 47 31 96 65 110 76 l25 20
-65 0 c-36 -1 -80 -5 -98 -9z"/>
</g>
</svg>
