<?xml version="1.0" standalone="no"?>
<!DOCTYPE svg PUBLIC "-//W3C//DTD SVG 20010904//EN"
 "http://www.w3.org/TR/2001/REC-SVG-20010904/DTD/svg10.dtd">
<svg version="1.0" xmlns="http://www.w3.org/2000/svg"
 width="234.000000pt" height="95.000000pt" viewBox="0 0 234.000000 95.000000"
 preserveAspectRatio="xMidYMid meet">
<metadata>
Created by potrace 1.16, written by Peter Selinger 2001-2019
</metadata>
<g transform="translate(0.000000,95.000000) scale(0.100000,-0.100000)"
fill="#000000" stroke="none">
<path d="M1520 785 c-10 -12 -10 -15 3 -15 19 0 31 -33 23 -66 -5 -20 -13 -24
-41 -24 -30 0 -35 -3 -35 -23 0 -24 37 -67 58 -67 14 0 34 -35 25 -44 -11 -11
-40 -6 -53 9 -7 8 -16 15 -20 15 -4 0 -8 -46 -8 -102 -1 -57 -4 -115 -7 -129
-5 -23 -2 -27 22 -32 15 -3 35 -8 44 -12 12 -5 19 1 26 22 l10 28 12 -23 c13
-24 28 -21 78 18 l21 17 -40 69 -40 69 11 75 c15 98 14 147 -2 157 -7 4 -23
23 -36 41 -25 36 -33 39 -51 17z"/>
<path d="M764 496 c-3 -15 -3 -60 1 -101 7 -74 7 -75 35 -75 20 0 31 6 35 21
l7 21 23 -22 24 -22 30 22 c17 12 31 23 31 26 0 12 -53 109 -61 112 -5 2 -15
10 -22 17 -7 7 -32 16 -55 20 -39 6 -42 5 -48 -19z"/>
</g>
</svg>
